<svg width="20" height="20" viewBox="0 0 20 20" fill="none" xmlns="http://www.w3.org/2000/svg">
<mask id="mask0_252_674" style="mask-type:alpha" maskUnits="userSpaceOnUse" x="0" y="0" width="20" height="20">
<rect width="20" height="20" fill="#06C106"/>
</mask>
<g mask="url(#mask0_252_674)">
<path d="M16.9214 17.8394C15.0996 17.8394 13.2996 17.4422 11.5215 16.6479C9.74334 15.8536 8.12554 14.7277 6.66806 13.2702C5.21059 11.8127 4.08469 10.1949 3.29036 8.41679C2.49604 6.63867 2.09888 4.83869 2.09888 3.01684C2.09888 2.7545 2.18633 2.53588 2.36122 2.36098C2.53612 2.18608 2.75474 2.09863 3.01709 2.09863H6.55875C6.7628 2.09863 6.94498 2.16786 7.10531 2.30632C7.26563 2.44478 7.36037 2.60875 7.38951 2.79822L7.95793 5.85892C7.98708 6.09212 7.97979 6.28888 7.93607 6.4492C7.89234 6.60952 7.81218 6.74798 7.69559 6.86458L5.57496 9.00707C5.86645 9.54634 6.2126 10.0674 6.61341 10.5702C7.01421 11.073 7.4551 11.5577 7.93607 12.024C8.38789 12.4759 8.86157 12.8949 9.35711 13.2811C9.85265 13.6673 10.3773 14.0208 10.9312 14.3414L12.9862 12.2864C13.1174 12.1552 13.2886 12.0568 13.5 11.9913C13.7113 11.9257 13.919 11.9074 14.1231 11.9366L17.14 12.5487C17.3441 12.607 17.5117 12.7127 17.6429 12.8657C17.774 13.0188 17.8396 13.19 17.8396 13.3795V16.9212C17.8396 17.1835 17.7522 17.4021 17.5773 17.577C17.4024 17.7519 17.1838 17.8394 16.9214 17.8394Z" fill="#06C106"/>
</g>
</svg>
