<svg width="20" height="20" viewBox="0 0 20 20" fill="none" xmlns="http://www.w3.org/2000/svg">
<mask id="mask0_252_680" style="mask-type:alpha" maskUnits="userSpaceOnUse" x="0" y="0" width="20" height="20">
<rect width="20" height="20" fill="#06C106"/>
</mask>
<g mask="url(#mask0_252_680)">
<path d="M3.33268 16.6654C2.87435 16.6654 2.48199 16.5022 2.1556 16.1758C1.82921 15.8494 1.66602 15.457 1.66602 14.9987V4.9987C1.66602 4.54036 1.82921 4.148 2.1556 3.82161C2.48199 3.49523 2.87435 3.33203 3.33268 3.33203H16.666C17.1244 3.33203 17.5167 3.49523 17.8431 3.82161C18.1695 4.148 18.3327 4.54036 18.3327 4.9987V14.9987C18.3327 15.457 18.1695 15.8494 17.8431 16.1758C17.5167 16.5022 17.1244 16.6654 16.666 16.6654H3.33268ZM9.99935 10.832L16.666 6.66536V4.9987L9.99935 9.16536L3.33268 4.9987V6.66536L9.99935 10.832Z" fill="#06C106"/>
</g>
</svg>
