<svg width="18" height="18" viewBox="0 0 18 18" fill="none" xmlns="http://www.w3.org/2000/svg">
<path d="M4.52832 8.9998C4.5317 9.9349 4.64881 10.8661 4.87707 11.7729H8.52207V6.44043H4.82645C4.63223 7.27982 4.53224 8.13825 4.52832 8.9998Z" fill="#06C106"/>
<path d="M9.47803 6.44043V11.7729H13.123C13.3608 10.8673 13.4873 9.93605 13.4999 8.9998C13.4978 8.13846 13.3997 7.28003 13.2074 6.44043H9.47803Z" fill="#06C106"/>
<path d="M9 0C7.21997 0 5.47991 0.527841 3.99987 1.51677C2.51983 2.50571 1.36628 3.91131 0.685088 5.55585C0.00389953 7.20038 -0.17433 9.00998 0.172936 10.7558C0.520203 12.5016 1.37737 14.1053 2.63604 15.364C3.89471 16.6226 5.49836 17.4798 7.24419 17.8271C8.99002 18.1743 10.7996 17.9961 12.4442 17.3149C14.0887 16.6337 15.4943 15.4802 16.4832 14.0001C17.4722 12.5201 18 10.78 18 9C18 6.61305 17.0518 4.32387 15.364 2.63604C13.6761 0.948211 11.387 0 9 0ZM15.8738 12.7744H13.8375C13.4525 13.9797 12.8833 15.1182 12.15 16.1494C11.6087 16.3846 11.0426 16.5582 10.4625 16.6669C11.5018 15.5378 12.3017 14.2098 12.8138 12.7631H9.48375V16.785H8.53313V12.7744H5.18625C5.69766 14.223 6.49752 15.553 7.5375 16.6837C6.96934 16.5762 6.41474 16.4065 5.88375 16.1775C5.1479 15.1377 4.57858 13.9895 4.19625 12.7744H2.12625C1.94666 12.4465 1.79064 12.1063 1.65938 11.7562H3.90938C3.69855 10.8525 3.58912 9.92802 3.58313 9C3.58393 8.13981 3.67442 7.28205 3.85313 6.44062H1.5525C1.67101 6.09166 1.81386 5.75145 1.98 5.4225H4.12313C4.52565 4.08337 5.14925 2.82096 5.96813 1.6875C6.48784 1.47281 7.02905 1.31441 7.5825 1.215C6.46307 2.41564 5.6185 3.84564 5.1075 5.40562H8.53313V1.125H9.48375V5.4225H12.9094C12.3993 3.86501 11.5567 2.43704 10.44 1.2375C10.9926 1.32965 11.5338 1.4805 12.0544 1.6875C12.8685 2.81277 13.4901 4.06544 13.8938 5.39437H16.0144C16.1805 5.72333 16.3234 6.06354 16.4419 6.4125H14.1581C14.3407 7.26292 14.4331 8.13021 14.4338 9C14.4309 9.93345 14.3233 10.8636 14.1131 11.7731H16.3631C16.2239 12.118 16.0603 12.4526 15.8738 12.7744Z" fill="#06C106"/>
</svg>
