<svg width="950" height="560" viewBox="0 0 950 560" fill="none" xmlns="http://www.w3.org/2000/svg">
<mask id="mask0_529_146" style="mask-type:alpha" maskUnits="userSpaceOnUse" x="0" y="0" width="950" height="560">
<path d="M0 0H935C943.284 0 950 6.71573 950 15V545C950 553.284 943.284 560 935 560H0V0Z" fill="#03038C"/>
</mask>
<g mask="url(#mask0_529_146)">
<path d="M500.939 984L498.844 983.469C525.205 879.625 501.075 762.288 435.871 677.256C370.666 592.229 263.589 538.455 156.425 536.927C148.366 536.814 140.129 536.969 132.167 537.125C113.981 537.474 95.1824 537.834 76.9035 534.968C46.4916 530.201 21.9657 515.9 9.61162 495.728C-14.4797 456.394 9.87159 403.16 47.7293 378.123C81.6914 355.665 123.255 349.417 163.452 343.378C168.003 342.691 172.547 342.013 177.063 341.307C220.093 334.6 268.171 323.275 298.486 290.101C324.036 262.143 333.36 223.046 342.377 185.241C352.535 142.653 363.038 98.619 397.039 71.6042C429.345 45.9391 477.252 40.5633 543.488 55.1548C550.243 56.6442 557.029 58.2228 563.843 59.8131C606.438 69.7386 650.488 79.9976 692.265 68.4741C745.449 53.8089 787.218 2.35855 793.837 -56.6397C799.929 -110.945 777.929 -168.822 734.984 -211.468L736.509 -213C779.919 -169.9 802.152 -111.356 795.987 -56.3992C789.274 3.45233 746.857 55.6591 692.839 70.557C650.535 82.2201 606.213 71.899 563.35 61.9153C556.544 60.3328 549.766 58.7503 543.019 57.2648C477.453 42.8168 430.144 48.0607 398.378 73.2992C364.963 99.8447 355.01 141.571 344.472 185.741C335.389 223.814 325.999 263.187 300.073 291.555C269.304 325.222 220.788 336.675 177.385 343.44C172.861 344.146 168.318 344.828 163.762 345.511C123.798 351.519 82.4713 357.725 48.9088 379.922C11.8892 404.405 -11.9964 456.328 11.4391 494.603C23.4634 514.233 47.4383 528.169 77.2255 532.835C95.3182 535.67 114.028 535.313 132.113 534.964C140.09 534.813 148.339 534.658 156.445 534.766C209.687 535.526 263.802 548.974 312.943 573.65C362.084 598.326 405.18 633.699 437.574 675.945C469.969 718.188 492.943 768.979 504.016 822.83C515.09 876.678 514.023 932.41 500.924 984H500.939Z" fill="white" fill-opacity="0.06"/>
<path d="M481.842 984L479.755 983.438C504.291 892.398 491.176 793.382 443.775 711.781C438.102 702.016 431.901 692.488 425.355 683.464C377.869 617.976 304.742 569.298 224.724 549.911C202.499 544.522 179.782 541.388 157.2 540.596C149.204 540.317 141.04 540.313 133.141 540.305C115.512 540.29 97.2851 540.278 79.5317 537.248C62.1157 534.276 30.3666 525.291 13.4121 498.491C-11.3101 459.403 11.3179 408.13 46.4641 383.044C78.8104 359.956 119.413 352.562 158.678 345.412C162.288 344.756 165.894 344.096 169.493 343.429C213.497 335.36 258.35 323.465 288.319 291.318C313.452 264.277 323.515 226.881 333.253 190.715C344.379 149.381 355.881 106.639 390.228 80.9097C413.523 63.4552 445.009 55.9248 486.484 57.9189C501.926 58.6522 518.69 60.5881 537.739 63.8393C543.021 64.7316 548.295 65.6588 553.553 66.5822C563.248 68.2853 573.269 70.0428 582.914 71.5054C613.255 76.1765 645.597 79.8117 678.169 68.8207C680.15 68.1495 682.144 67.4163 684.094 66.6365C711.76 55.6494 737.157 34.9127 755.616 8.24794C769.309 -11.5305 778.403 -33.753 781.916 -56.026C783.095 -63.4633 783.735 -71.1023 783.828 -78.7296C784.503 -126.259 762.941 -175.872 726.155 -211.448L727.656 -213C764.861 -177.016 786.667 -126.814 785.984 -78.7025C785.891 -70.9704 785.24 -63.2266 784.045 -55.6885C780.482 -33.1012 771.264 -10.5644 757.388 9.47391C738.692 36.4878 712.946 57.4999 684.889 68.6422C682.908 69.4298 680.879 70.1786 678.859 70.8653C645.826 82.0154 613.189 78.3452 582.588 73.6392C572.92 72.1766 562.884 70.4153 553.177 68.7082C547.927 67.7849 542.656 66.8615 537.375 65.9692C518.415 62.7336 501.732 60.8054 486.379 60.076C445.439 58.1362 414.404 65.5036 391.523 82.64C357.773 107.92 346.876 148.411 335.339 191.278C325.536 227.7 315.399 265.359 289.901 292.792C259.501 325.397 214.253 337.42 169.885 345.555C166.286 346.223 162.676 346.878 159.065 347.538C120.033 354.645 79.6713 361.993 47.7167 384.802C13.2259 409.422 -8.05647 460.517 15.2347 497.334C31.7433 523.429 62.8292 532.208 79.8924 535.114C97.4635 538.117 115.601 538.129 133.137 538.144C141.052 538.152 149.235 538.156 157.27 538.435C179.995 539.234 202.859 542.385 225.224 547.808C305.735 567.315 379.312 616.296 427.096 682.191C433.685 691.278 439.925 700.868 445.637 710.695C493.324 792.788 506.521 892.402 481.834 983.996L481.842 984Z" fill="white" fill-opacity="0.06"/>
<path d="M463.071 983.996L460.995 983.402C486.395 894.684 475.905 797.817 432.223 717.644C426.976 708.02 421.213 698.606 415.101 689.673C370.607 624.583 300.811 575.432 223.602 554.822C202.114 549.079 180.009 545.528 157.9 544.271C149.956 543.824 141.834 543.646 133.979 543.475C116.892 543.103 99.2223 542.718 81.9954 539.529C65.0091 536.389 33.9743 527.243 16.9647 501.254C-7.62016 463.69 12.3699 413.204 44.988 387.976C76.1432 363.881 116.438 355.27 155.409 346.942L161.87 345.557C204.893 336.306 248.765 323.48 278.248 292.544C302.972 266.436 313.773 230.746 324.22 196.232C336.355 156.138 348.902 114.681 383.643 90.2257C414.181 68.7272 453.846 67.4388 481.028 68.3314C496.12 68.8242 512.92 70.2018 532.394 72.5379L538.355 73.2365C551.678 74.8003 564.267 76.2788 576.433 77.3188C608.337 80.0508 635.092 81.18 664.648 69.1696C666.507 68.4129 668.397 67.5863 670.263 66.7132C696.96 54.2875 723.046 32.6222 741.829 7.26637C756.51 -12.5479 766.224 -33.6351 770.699 -55.4091C772.189 -62.6192 773.167 -70.1515 773.605 -77.804C776.334 -125.349 755.013 -176.55 717.959 -211.424L719.441 -213C756.945 -177.698 778.526 -125.85 775.763 -77.6837C775.321 -69.9264 774.327 -62.2855 772.818 -54.9745C768.281 -32.8939 758.439 -11.5196 743.568 8.55084C724.575 34.186 698.19 56.0997 671.179 68.669C669.278 69.5576 667.357 70.3958 665.463 71.1681C635.46 83.3609 608.446 82.2239 576.251 79.4687C564.05 78.4248 551.445 76.9463 538.103 75.3824L532.138 74.6839C512.726 72.3517 495.984 70.9818 480.958 70.4929C454.083 69.6081 414.895 70.8693 384.888 91.9952C350.757 116.02 338.874 155.288 326.292 196.86C315.771 231.615 304.897 267.553 279.816 294.034C249.93 325.397 205.688 338.351 162.328 347.676L155.863 349.061C117.128 357.339 77.0745 365.899 46.3114 389.691C14.45 414.333 -5.14033 463.546 18.7732 500.082C35.3404 525.395 65.7387 534.336 82.3874 537.414C99.4474 540.569 117.027 540.953 134.029 541.321C141.903 541.492 150.045 541.671 158.024 542.121C180.281 543.386 202.529 546.96 224.161 552.738C301.862 573.484 372.105 622.95 416.886 688.458C423.041 697.457 428.842 706.93 434.124 716.616C478.078 797.281 488.63 894.739 463.075 984L463.071 983.996Z" fill="white" fill-opacity="0.06"/>
<path d="M444.278 983.981L442.21 983.352C468.458 896.921 460.608 802.208 420.674 723.498C415.854 714.011 410.534 704.715 404.861 695.865C362.804 630.208 298.097 581.86 222.661 559.719C201.947 553.629 180.472 549.662 158.835 547.935C150.934 547.306 142.844 546.957 135.017 546.611C118.501 545.89 101.427 545.14 84.749 541.802C68.2065 538.495 37.9078 529.187 20.8687 504.011C-3.87322 467.459 13.1155 418.815 43.8372 392.902C73.7246 367.688 111.97 358.209 152.463 348.175L154.473 347.678C193.689 337.955 238.063 324.967 268.307 293.76C292.672 268.615 304.178 234.597 315.307 201.693C329.048 161.069 342.028 122.696 377.1 99.5307C406.459 80.1385 443.336 78.1317 475.54 78.7372C493.231 79.0555 510.646 80.1424 526.967 81.2292C544.558 82.4015 558.178 83.0031 569.831 83.1312C601.139 83.4611 623.7 82.7042 650.937 69.5147C652.699 68.6569 654.468 67.7447 656.241 66.7782C682.563 52.5368 708.643 30.4857 727.797 6.2726C743.311 -13.3253 753.882 -33.8781 759.217 -54.8036C761.03 -61.8641 762.341 -69.2895 763.117 -76.8857C768.042 -125.029 747.514 -176.576 709.544 -211.409L711.003 -213C749.466 -177.717 770.261 -125.475 765.267 -76.6645C764.479 -68.9635 763.148 -61.4255 761.313 -54.2679C755.904 -33.0436 745.197 -12.223 729.493 7.61952C710.164 32.05 683.843 54.3068 657.274 68.6802C655.473 69.6583 653.676 70.5899 651.884 71.4632C624.216 84.8585 601.414 85.627 569.808 85.2971C558.116 85.169 544.457 84.5634 526.824 83.3912C510.53 82.3083 493.141 81.2253 475.501 80.907C443.623 80.317 407.158 82.2811 378.291 101.343C343.836 124.101 330.973 162.132 317.352 202.396C306.145 235.525 294.562 269.779 269.855 295.273C239.215 326.892 194.496 339.993 154.989 349.786L152.979 350.283C112.739 360.254 74.7296 369.675 45.2264 394.563C15.2381 419.859 -1.40524 467.269 22.6537 502.812C39.2582 527.347 68.9516 536.453 85.1681 539.695C101.683 543.002 118.676 543.743 135.106 544.465C142.948 544.81 151.058 545.164 159.002 545.796C180.787 547.535 202.409 551.529 223.266 557.662C299.203 579.946 364.341 628.621 406.677 694.716C412.389 703.624 417.748 712.983 422.598 722.535C462.784 801.742 470.685 897.042 444.278 984V983.981Z" fill="white" fill-opacity="0.06"/>
<path d="M424.979 983L422.921 982.337C450.049 898.23 444.83 805.744 408.602 728.589C404.209 719.252 399.327 710.077 394.088 701.326C355.095 636.096 293.63 587.326 221.019 563.996C201.036 557.564 180.173 553.184 159.01 550.984C151.13 550.174 143.055 549.631 135.241 549.111C119.294 548.044 102.808 546.946 86.6783 543.463C58.8432 537.469 36.5425 524.233 23.8853 506.19C-1.61567 469.842 14.0904 422.98 41.8128 397.342C70.5373 370.781 110.789 359.395 146.302 349.348C186.457 337.989 228.134 324.404 257.701 294.568C281.637 270.416 293.832 238.144 305.627 206.935C320.486 167.619 334.522 130.479 370.004 108.592C399.867 90.1731 437.058 88.7649 469.589 88.9124C481.042 88.9511 492.48 89.1723 503.545 89.3817C509.564 89.4981 515.452 89.6106 521.13 89.6882C536.922 89.9132 550.954 89.5796 562.846 88.7106C591.893 86.5926 611.374 84.2533 636.922 69.644C638.576 68.6897 640.242 67.6849 641.924 66.6298C668.322 50.1429 694.425 27.7207 713.541 5.11226C729.954 -14.2919 741.396 -34.2895 747.544 -54.3221C749.68 -61.2272 751.326 -68.5435 752.441 -76.0732C759.533 -123.975 739.294 -177.09 700.884 -211.39L702.325 -213C741.263 -178.23 761.774 -124.359 754.577 -75.7551C753.447 -68.1207 751.773 -60.6958 749.61 -53.6859C743.376 -33.374 731.799 -13.1203 715.192 6.5049C695.936 29.2801 669.65 51.8614 643.074 68.4569C641.372 69.5276 639.683 70.544 638.001 71.5138C612.05 86.352 592.359 88.7223 563.005 90.8636C551.051 91.7365 536.957 92.0623 521.099 91.8451C515.413 91.7636 509.522 91.655 503.498 91.5386C492.445 91.3291 481.011 91.108 469.577 91.0692C437.357 90.9412 400.515 92.3067 371.139 110.427C336.285 131.926 322.374 168.728 307.646 207.696C295.774 239.118 283.493 271.603 259.235 296.085C229.299 326.297 187.319 339.991 146.889 351.427C111.608 361.404 71.6248 372.72 43.2809 398.929C16.2264 423.942 0.854419 469.601 25.6563 504.949C37.999 522.546 59.8336 535.471 87.1327 541.352C103.107 544.797 119.516 545.895 135.385 546.954C143.215 547.478 151.312 548.021 159.231 548.835C180.546 551.05 201.557 555.457 221.683 561.94C294.795 585.429 356.683 634.532 395.948 700.216C401.226 709.026 406.143 718.267 410.567 727.67C447.024 805.314 452.283 898.374 424.987 982.996L424.979 983Z" fill="white" fill-opacity="0.06"/>
<path d="M406.018 983L403.973 982.305C431.949 900.408 429.368 810.067 396.899 734.452C392.934 725.236 388.495 716.179 383.707 707.534C347.858 642.652 289.748 593.422 220.075 568.907C200.872 562.135 180.66 557.339 159.991 554.662C152.133 553.653 144.066 552.916 136.263 552.206C120.929 550.809 105.074 549.365 89.5421 545.753C62.4817 539.471 40.6091 526.406 27.9481 508.964C2.40099 473.758 15.0737 428.653 40.8032 402.294C66.1369 376.335 100.244 363.926 138.96 351.486C173.571 340.365 216.649 326.528 247.729 295.792C271.154 272.627 283.978 242.1 296.383 212.579C312.377 174.51 327.487 138.551 363.339 117.912C392.037 101.389 427.277 99.6935 463.89 99.3288L470.335 99.2628C485.619 99.1076 501.423 98.9447 515.45 98.3976C530.428 97.8116 544.427 96.4846 555.936 94.5522C581.212 90.3149 597.966 86.8614 622.858 70.0171C624.402 68.9694 625.962 67.8674 627.545 66.7188C643.675 55.109 674.418 31.5478 699.092 4.13354C716.684 -15.396 728.631 -34.3202 735.62 -53.71C738.08 -60.485 740.059 -67.6985 741.506 -75.1487C750.745 -122.783 730.874 -177.526 692.061 -211.37L693.481 -213C733.474 -178.128 753.158 -123.858 743.628 -74.7373C742.162 -67.1747 740.152 -59.8525 737.653 -52.9728C730.572 -33.3152 718.485 -14.162 700.702 5.58089C675.892 33.1387 645.013 56.8124 628.814 68.4688C627.211 69.6329 625.632 70.7466 624.068 71.8059C598.808 88.9025 581.86 92.3947 556.293 96.6824C544.699 98.6265 530.602 99.9652 515.536 100.555C501.482 101.102 485.658 101.265 470.359 101.42L463.914 101.486C427.599 101.847 392.662 103.52 364.418 119.782C329.198 140.056 314.228 175.689 298.377 213.413C285.891 243.133 272.978 273.861 249.25 297.325C217.805 328.421 172.617 342.938 139.624 353.535C101.19 365.886 67.3436 378.194 42.3552 403.8C17.2621 429.511 4.85715 473.451 29.7058 507.687C42.0565 524.71 63.4828 537.48 90.0388 543.642C105.428 547.22 121.208 548.659 136.469 550.048C144.291 550.762 152.378 551.5 160.278 552.512C181.095 555.213 201.458 560.04 220.801 566.862C290.974 591.552 349.503 641.138 385.604 706.482C390.427 715.19 394.897 724.312 398.894 733.594C431.572 809.698 434.172 900.602 406.029 982.996L406.018 983Z" fill="white" fill-opacity="0.06"/>
<path d="M386.617 982.992L384.584 982.259C413.876 901.358 413.93 815.431 384.739 740.302C381.204 731.224 377.207 722.286 372.852 713.727C340.13 649.182 285.303 599.491 218.472 573.809C200.015 566.694 180.429 561.486 160.249 558.326C152.383 557.104 144.292 556.161 136.468 555.249C121.752 553.529 106.54 551.755 91.6106 548.026C65.2875 541.462 43.8153 528.569 31.1524 511.724C4.6275 476.444 16.5996 432.831 38.9488 407.241C62.8775 379.836 97.4861 365.724 130.88 353.614L131.943 353.23C167.239 340.434 207.241 325.933 237.139 297.01C260.031 274.86 273.455 246.104 286.44 218.295C303.639 181.446 319.888 146.643 356.181 127.229C385.639 111.472 421.672 110.61 456.518 109.776L457.806 109.744C479.414 109.209 495.822 108.374 509.439 107.105C524.186 105.735 537.773 103.414 548.732 100.395C573.701 93.517 586.495 87.9513 608.589 70.3809C610.021 69.2398 611.48 68.0444 612.974 66.8024L616.164 64.1671C637.267 46.7403 663.528 25.0519 684.527 3.15009C703.159 -16.2755 715.946 -34.6726 723.618 -53.0968C726.408 -59.7493 728.725 -66.8597 730.495 -74.2263C742.063 -122.284 723.016 -177.39 683.099 -211.354L684.5 -213C725.019 -178.519 744.349 -122.548 732.598 -73.7178C730.797 -66.2387 728.449 -59.0196 725.613 -52.2623C717.839 -33.5897 704.909 -14.9753 686.091 4.64435C665.007 26.6393 638.688 48.3704 617.541 65.836L614.355 68.4675C612.854 69.7172 611.383 70.9282 609.935 72.077C587.551 89.8764 574.593 95.5158 549.31 102.483C538.234 105.533 524.516 107.878 509.645 109.259C495.977 110.528 479.523 111.371 457.86 111.906L456.572 111.937C421.979 112.764 386.206 113.622 357.201 129.135C321.545 148.211 305.444 182.7 288.4 219.211C275.333 247.199 261.824 276.137 238.644 298.563C208.417 327.808 168.182 342.394 132.684 355.264L131.621 355.648C98.4912 367.661 64.1698 381.649 40.5788 408.666C18.7884 433.618 7.08401 476.11 32.8832 510.428C45.2512 526.881 66.2965 539.491 92.1384 545.934C106.936 549.633 122.078 551.398 136.724 553.106C144.567 554.022 152.682 554.969 160.587 556.2C180.918 559.382 200.656 564.633 219.252 571.798C286.583 597.671 341.818 647.731 374.781 712.757C379.163 721.377 383.191 730.382 386.753 739.526C416.134 815.14 416.088 901.607 386.617 983V982.992Z" fill="white" fill-opacity="0.06"/>
<path d="M368.215 981.996L366.197 981.224C396.408 902.536 399.031 818.774 373.581 745.368C370.477 736.443 366.919 727.622 363.008 719.158C333.437 654.981 281.913 604.873 217.926 578.062C200.237 570.626 181.278 565.005 161.583 561.359C153.691 559.908 145.562 558.744 137.697 557.616C123.624 555.599 109.073 553.508 94.7711 549.675C76.6742 544.838 51.6978 534.703 35.4673 513.888C9.02037 479.967 17.7817 438.113 38.1989 411.682C58.3173 385.631 87.0031 370.293 123.88 355.278L129.529 352.982C162.114 339.766 199.049 324.789 227.595 297.803C249.894 276.721 263.851 249.79 277.35 223.747C295.816 188.115 313.261 154.457 350.029 136.265C377.884 122.487 411.331 121.331 443.676 120.217C446.683 120.113 449.694 120.008 452.697 119.895C472.695 119.12 490.09 117.661 504.392 115.555C519.047 113.398 532.212 110.093 542.471 106.001C564.902 97.0523 574.362 90.0314 595.249 70.5319C596.215 69.632 597.193 68.6971 598.194 67.7429L599.327 66.6646C608.263 58.1658 618.758 48.9649 629.871 39.2249C643.766 27.0527 658.13 14.4617 670.861 1.98695C690.886 -17.6173 704.117 -34.9678 712.502 -52.6171C715.629 -59.1453 718.276 -66.1468 720.371 -73.416C734.099 -121.065 715.459 -177.779 675.039 -211.34L676.421 -213C717.48 -178.908 736.407 -121.263 722.447 -72.8186C720.32 -65.4331 717.628 -58.323 714.454 -51.69C705.956 -33.808 692.585 -16.2596 672.37 3.52689C659.593 16.0443 645.205 28.6508 631.291 40.8463C620.194 50.5708 609.714 59.7562 600.813 68.2239L599.684 69.2984C598.675 70.2603 597.689 71.1952 596.723 72.1029C575.607 91.8157 566.027 98.918 543.274 108.003C532.864 112.157 519.528 115.504 504.71 117.688C490.334 119.802 472.862 121.272 452.786 122.048C449.779 122.161 446.768 122.265 443.757 122.37C411.641 123.476 378.427 124.624 350.991 138.196C314.855 156.074 297.57 189.426 279.271 224.736C265.69 250.942 251.644 278.04 229.081 299.371C200.241 326.64 163.104 341.698 130.344 354.983L124.698 357.276C88.1477 372.159 59.7413 387.33 39.9139 413.001C20.0089 438.772 11.4377 479.552 37.1745 512.558C53.0326 532.899 77.555 542.833 95.3337 547.585C109.512 551.386 124 553.461 138.007 555.474C145.892 556.607 154.044 557.775 161.979 559.233C181.829 562.91 200.935 568.574 218.768 576.072C283.256 603.089 335.18 653.585 364.975 718.255C368.917 726.784 372.502 735.667 375.63 744.662C401.246 818.549 398.612 902.838 368.219 982L368.215 981.996Z" fill="white" fill-opacity="0.06"/>
<path d="M348.758 982L346.758 981.185C377.893 904.584 383.08 822.916 361.362 751.223C358.691 742.435 355.574 733.732 352.104 725.356C325.729 661.477 277.54 610.91 216.409 582.971C199.475 575.203 181.164 569.17 161.977 565.03C154.041 563.331 145.849 561.926 137.925 560.561C124.53 558.256 110.678 555.878 97.0394 551.955C79.4732 546.919 55.1302 536.707 38.9325 516.656C10.9181 481.985 20.1684 441.114 36.6025 416.647C56.1963 387.486 86.3314 370.946 115.978 357.416C119.343 355.884 122.77 354.336 126.252 352.768C156.143 339.305 190.019 324.049 217.087 299.024C238.709 279.034 253.111 253.939 267.041 229.666C286.84 195.174 305.539 162.594 342.83 145.589C369.271 133.53 400.46 132.254 430.619 131.02C435.903 130.803 441.195 130.589 446.467 130.314C465.794 129.297 483.678 127.21 498.185 124.269C512.805 121.312 525.544 117.025 535.027 111.876C552.574 102.347 559.335 94.7776 572.804 79.6964C575.2 77.0154 577.797 74.1054 580.701 70.9123L584.469 66.7569C596.871 53.2043 614.054 38.1232 630.666 23.5425C639.145 16.0969 647.915 8.40308 655.936 1.00409C670.432 -12.3467 688.552 -30.4387 700.105 -52.0032C703.571 -58.4245 706.549 -65.3152 708.956 -72.4891C725.072 -120.484 707.289 -177.573 665.713 -211.32L667.074 -213C709.336 -178.694 727.399 -120.631 711.003 -71.8024C708.553 -64.5081 705.529 -57.5049 702.005 -50.9789C690.301 -29.135 672.017 -10.8723 657.397 2.59485C649.357 10.0055 640.579 17.7148 632.089 25.1643C615.519 39.71 598.383 54.7486 586.059 68.2157L582.294 72.3672C579.398 75.5526 576.801 78.4587 574.409 81.1358C561.2 95.9221 553.923 104.066 536.051 113.774C526.382 119.023 513.433 123.384 498.608 126.387C484 129.344 466.007 131.447 446.576 132.471C441.296 132.742 435.996 132.96 430.704 133.177C400.751 134.403 369.775 135.672 343.722 147.556C307.058 164.274 288.531 196.563 268.91 230.745C254.899 255.158 240.411 280.4 218.549 300.611C191.221 325.873 157.174 341.21 127.136 354.739C123.658 356.303 120.231 357.847 116.87 359.383C87.51 372.781 57.685 389.135 38.3897 417.854C22.3627 441.707 13.3295 481.539 40.6035 515.294C56.4483 534.907 80.3571 544.925 97.6286 549.875C111.155 553.763 124.949 556.134 138.286 558.427C146.233 559.792 154.448 561.205 162.427 562.912C181.765 567.087 200.227 573.17 217.301 581C278.928 609.164 327.509 660.138 354.093 724.525C357.594 732.96 360.73 741.733 363.424 750.587C385.286 822.753 380.076 904.933 348.754 981.992L348.758 982Z" fill="white" fill-opacity="0.06"/>
<path d="M329.933 982L327.951 981.142C360.088 906.559 367.842 826.981 349.787 757.074C347.537 748.404 344.861 739.816 341.832 731.554C318.65 667.957 273.733 616.931 215.345 587.871C199.152 579.787 181.458 573.337 162.76 568.699C154.731 566.724 146.42 565.044 138.379 563.425C125.681 560.864 112.556 558.217 99.6095 554.231C82.5401 548.996 58.7995 538.708 42.6221 519.42C14.8207 486.281 20.5765 447.169 35.2335 421.621C49.3126 397.078 71.1953 378.516 108.402 359.557C113.277 357.074 118.316 354.574 123.466 352.025C150.698 338.527 181.563 323.232 207.033 300.246C227.915 281.4 242.685 258.184 256.966 235.733C278.22 202.319 298.292 170.763 336.243 154.917C361.461 144.389 390.706 143.104 418.984 141.862C426.206 141.544 433.672 141.218 440.979 140.74C460.155 139.475 478.07 136.797 492.789 132.998C507.434 129.218 519.76 123.956 528.44 117.777C541.309 108.618 546.619 100.709 553.965 89.7648C557.506 84.4945 561.517 78.5179 567.074 71.3033L567.342 70.954C568.362 69.6307 569.417 68.2607 570.534 66.8597C584.83 48.9183 607.066 29.929 628.569 11.5685C633.145 7.66429 637.66 3.80669 642.023 0.0227966C659.225 -14.8799 676.791 -31.4242 688.771 -51.3914C692.584 -57.7018 695.896 -64.4895 698.615 -71.5644C716.895 -119.109 699.565 -177.878 657.41 -211.308L658.752 -213C701.629 -178.999 719.241 -119.187 700.632 -70.7843C697.867 -63.5891 694.496 -56.6889 690.622 -50.2698C678.489 -30.0464 660.772 -13.3586 643.439 1.66052C639.072 5.44441 634.553 9.30592 629.973 13.2179C608.548 31.5125 586.393 50.428 572.225 68.2103C571.116 69.6035 570.065 70.9657 569.052 72.2775L568.785 72.6267C563.27 79.7831 559.279 85.7287 555.757 90.9718C548.283 102.106 542.88 110.151 529.689 119.539C520.796 125.869 508.218 131.248 493.324 135.094C478.477 138.924 460.426 141.621 441.115 142.898C433.781 143.376 426.303 143.705 419.073 144.02C390.981 145.254 361.935 146.531 337.069 156.912C299.742 172.494 279.845 203.774 258.781 236.89C244.423 259.461 229.576 282.805 208.476 301.848C182.785 325.037 151.776 340.401 124.421 353.961C119.278 356.511 114.247 359.002 109.38 361.482C72.5722 380.239 50.9571 398.545 37.0991 422.696C22.8066 447.611 17.1828 485.741 44.2666 518.03C60.1027 536.911 83.4437 547.013 100.234 552.163C113.08 556.114 126.154 558.753 138.798 561.302C146.858 562.928 155.193 564.609 163.268 566.6C182.122 571.272 199.963 577.781 216.295 585.934C275.179 615.239 320.477 666.692 343.845 730.809C346.897 739.137 349.597 747.791 351.862 756.527C370.037 826.9 362.245 906.97 329.917 981.992L329.933 982Z" fill="white" fill-opacity="0.06"/>
<path d="M311.063 980.992L309.1 980.092C342.282 907.508 352.605 830.095 338.173 762.103C336.354 753.581 334.115 745.118 331.524 736.946C311.575 673.674 269.932 622.232 214.272 592.095C198.812 583.698 181.742 576.837 163.544 571.706C155.396 569.421 146.943 567.455 138.765 565.546C126.797 562.761 114.421 559.876 102.196 555.861C85.6269 550.431 62.4815 540.075 46.3465 521.571C18.6971 489.867 21.7852 451.449 33.8971 426.067C46.0478 400.6 66.6947 380.598 100.842 361.217C107.24 357.587 113.874 353.999 120.896 350.202C145.453 336.921 173.289 321.868 196.985 301.033C217.015 283.412 232.01 262.15 246.511 241.589C269.342 209.21 290.909 178.627 329.642 163.931C353.742 154.789 381.232 153.575 407.819 152.4C416.897 152.001 426.281 151.586 435.464 150.864C454.614 149.34 472.557 146.082 487.357 141.432C502.026 136.824 513.943 130.591 521.823 123.404C532.104 114.029 535.789 105.966 540.448 95.7648C543.587 88.8996 547.141 81.1152 553.402 71.4614C554.395 69.9293 555.435 68.3468 556.556 66.7256C571.857 44.6213 599.899 21.7879 624.638 1.64632L628.048 -1.13464C645.898 -15.6717 664.408 -31.4887 677.373 -50.905C681.54 -57.1069 685.186 -63.782 688.212 -70.7519C708.623 -117.772 691.785 -178.193 649.045 -211.293L650.367 -213C693.865 -179.314 710.985 -117.792 690.195 -69.8908C687.118 -62.8007 683.41 -56.0092 679.169 -49.7026C666.037 -30.0381 647.388 -14.1008 629.414 0.540924L626 3.32188C601.373 23.3743 573.459 46.103 558.333 67.9551C557.224 69.5609 556.196 71.1278 555.214 72.6404C549.038 82.1624 545.519 89.8693 542.412 96.6685C537.647 107.094 533.884 115.332 523.278 125.006C515.169 132.402 502.972 138.798 488.005 143.499C473.053 148.196 454.943 151.493 435.635 153.025C426.417 153.746 417.009 154.165 407.916 154.565C380.286 155.786 354.184 156.938 330.41 165.96C292.298 180.419 270.914 210.742 248.28 242.842C233.709 263.507 218.641 284.874 198.417 302.662C174.538 323.664 146.59 338.775 121.932 352.11C114.917 355.903 108.295 359.483 101.921 363.106C68.1806 382.258 47.8052 401.97 35.8563 427.006C24.0392 451.771 21.0209 489.25 47.9837 520.163C63.7967 538.295 86.5657 548.476 102.879 553.821C115.01 557.808 127.34 560.682 139.265 563.456C147.467 565.368 155.947 567.342 164.141 569.638C182.499 574.816 199.716 581.736 215.32 590.21C271.476 620.615 313.484 672.499 333.603 736.306C336.214 744.54 338.472 753.073 340.307 761.664C354.836 830.106 344.458 908.001 311.086 981L311.063 980.992Z" fill="white" fill-opacity="0.06"/>
<path d="M291.752 980.996L289.807 980.057C324.597 908.304 337.158 834.961 326.13 767.956C324.741 759.577 322.94 751.228 320.786 743.147C304.103 680.13 265.734 628.233 212.744 597.007C198.022 588.301 181.576 581.027 163.857 575.382C155.551 572.751 146.899 570.451 138.534 568.228C127.336 565.248 115.754 562.168 104.299 558.153C81.2277 550.079 62.3016 538.39 49.5703 524.354C14.8892 486.113 27.3992 443.286 32.057 431.073C42.2459 404.362 60.978 383.486 92.7868 363.378C100.721 358.366 109.167 353.419 118.106 348.182C139.966 335.379 164.742 320.869 186.451 302.263C205.494 285.945 220.542 266.683 235.094 248.054C259.679 216.582 282.898 186.861 322.587 173.278C345.658 165.38 370.418 164.336 396.634 163.23C407.436 162.776 418.603 162.303 429.522 161.302C448.436 159.549 466.901 155.595 481.511 150.176C496.214 144.717 507.73 137.509 514.806 129.334C523.419 119.387 525.787 110.635 528.527 100.497C530.72 92.3892 533.204 83.2023 539.329 71.8661C540.21 70.2367 541.146 68.5569 542.174 66.8343C556.567 42.7848 586.633 18.6383 613.683 -2.10976C634.278 -17.8919 652.405 -32.4132 665.598 -50.2864C670.12 -56.3735 674.102 -62.9455 677.433 -69.8201C700.33 -117.104 684.365 -177.917 640.298 -211.277L641.603 -213C686.477 -179.03 702.717 -117.07 679.381 -68.8812C675.993 -61.8825 671.94 -55.1941 667.337 -49.0023C653.977 -30.904 635.73 -16.2857 614.999 -0.398834C588.108 20.225 558.228 44.2163 544.03 67.94C543.017 69.6315 542.097 71.2842 541.231 72.8865C535.227 84.0015 532.777 93.0603 530.615 101.056C527.805 111.45 525.379 120.423 516.44 130.743C509.127 139.192 497.308 146.606 482.264 152.193C467.269 157.756 449.1 161.651 429.72 163.448C418.751 164.452 407.553 164.926 396.727 165.384C370.671 166.481 346.062 167.521 323.289 175.315C284.206 188.692 261.178 218.169 236.798 249.376C222.18 268.088 207.066 287.439 187.86 303.9C166 322.631 141.135 337.195 119.2 350.04C110.277 355.266 101.842 360.205 93.9396 365.198C62.55 385.038 44.0896 405.592 34.0754 431.833C29.5263 443.759 17.3112 485.569 51.1695 522.895C63.6601 536.667 82.2796 548.151 105.014 556.108C116.39 560.1 127.93 563.169 139.089 566.137C147.481 568.367 156.156 570.676 164.513 573.318C182.387 579.013 198.984 586.353 213.843 595.144C267.322 626.662 306.048 679.025 322.874 742.592C325.048 750.739 326.86 759.158 328.261 767.607C339.362 835.054 326.736 908.844 291.752 981V980.996Z" fill="white" fill-opacity="0.06"/>
<path d="M272.807 980.988L270.886 980.003C306.868 910.029 321.93 838.728 314.45 773.799C313.491 765.56 312.132 757.326 310.412 749.332C297.047 686.572 261.961 634.211 211.623 601.902C197.62 592.888 181.801 585.196 164.596 579.042C156.075 576.011 147.165 573.333 138.551 570.737C128.186 567.617 117.464 564.397 106.851 560.419C84.1447 551.932 66.1165 540.725 53.267 527.109C19.5672 491.4 26.2559 451.539 30.6969 436.059C38.593 408.531 55.9029 386.117 85.1773 365.515C94.6921 358.821 105.162 352.236 116.245 345.266C136.234 332.693 156.902 319.694 176.339 303.473C194.196 288.568 209.053 271.392 223.42 254.784C249.969 224.093 275.043 195.105 315.913 182.606C337.998 175.85 361.352 174.957 386.081 174.01C398.511 173.533 411.368 173.04 423.915 171.729C442.894 169.718 461.388 165.167 475.985 158.903C490.713 152.59 501.823 144.413 508.112 135.255C515.48 124.53 516.528 115.224 517.747 104.448C518.784 95.2702 519.956 84.8743 525.554 72.2586C526.42 70.3028 527.251 68.5605 528.085 66.9345C541.424 40.9892 573.299 15.8821 599.577 -3.08986L600.951 -4.08328C620.928 -18.4917 639.798 -32.1008 654.069 -49.668C658.96 -55.6518 663.273 -62.1168 666.895 -68.8883C691.899 -115.633 676.483 -178.172 631.801 -211.265L633.09 -213C678.611 -179.286 694.298 -115.536 668.801 -67.8716C665.113 -60.972 660.719 -54.3906 655.742 -48.302C641.293 -30.5175 622.31 -16.827 602.213 -2.32927L600.838 -1.33974C574.755 17.4925 543.132 42.3862 530.003 67.9202C529.184 69.5112 528.376 71.2148 527.522 73.1356C522.06 85.4486 520.958 95.2314 519.89 104.692C518.691 115.294 517.561 125.31 509.89 136.478C503.368 145.973 491.936 154.414 476.835 160.89C462.044 167.231 443.329 171.845 424.14 173.874C411.516 175.198 398.627 175.691 386.158 176.168C361.577 177.107 338.355 177.996 316.542 184.67C276.27 196.987 251.39 225.75 225.05 256.196C210.625 272.871 195.71 290.116 177.721 305.134C158.171 321.451 137.441 334.49 117.394 347.098C106.334 354.056 95.8878 360.622 86.4195 367.288C57.1762 387.867 40.631 409.26 32.7738 436.661C28.4376 451.787 21.9003 490.732 54.8393 525.634C67.4636 539.006 85.2161 550.035 107.611 558.401C118.159 562.352 128.842 565.569 139.176 568.677C147.818 571.277 156.75 573.966 165.326 577.012C182.686 583.221 198.657 590.982 212.795 600.09C263.622 632.714 299.042 685.559 312.528 748.885C314.259 756.949 315.63 765.25 316.6 773.558C324.131 838.914 308.992 910.646 272.811 981L272.807 980.988Z" fill="white" fill-opacity="0.06"/>
<path d="M253.5 980L251.6 978.968C288.896 910.723 306.477 841.516 302.444 778.828C301.916 770.738 300.995 762.625 299.713 754.725C289.704 692.27 257.883 639.498 210.116 606.13C196.832 596.822 181.628 588.721 164.917 582.054C156.121 578.564 147.297 575.589 137.952 572.444C128.468 569.248 118.665 565.944 108.944 562.062C86.9024 553.285 69.2472 542.256 56.4682 529.271C23.8815 496.171 25.1637 459.463 28.8276 440.533C34.3643 411.931 49.696 388.627 77.0841 367.2C88.2623 358.454 101.072 349.903 114.632 340.847C131.526 329.569 148.999 317.904 165.807 304.271C182.226 290.954 196.571 275.991 210.446 261.526C239.279 231.454 266.516 203.05 308.921 191.62C330.065 185.919 352.127 185.198 375.482 184.434C389.481 183.976 403.958 183.503 418.073 181.843C437.15 179.582 455.688 174.432 470.266 167.339C485.026 160.152 495.746 151.011 501.259 140.893C507.6 129.266 507.387 118.783 507.165 107.691C506.951 97.065 506.734 86.0741 511.618 72.4188C512.34 70.4022 513.067 68.5639 513.836 66.8032C526.437 38.0732 560.69 12.4962 585.362 -4.24226L590.755 -7.88782C610.015 -20.8916 628.203 -33.1739 642.474 -49.1794C647.808 -55.1286 652.331 -61.3105 656.306 -68.0742C683.398 -114.217 668.564 -178.445 623.233 -211.251L624.504 -213C670.709 -179.558 685.815 -114.058 658.171 -66.9844C654.126 -60.0966 649.518 -53.8022 644.09 -47.7444C629.644 -31.5373 611.344 -19.1851 591.971 -6.10382L586.582 -2.46214C562.135 14.129 528.197 39.4461 515.822 67.6641C515.072 69.3783 514.365 71.1701 513.658 73.1402C508.91 86.4232 509.123 97.2085 509.333 107.641C509.562 119.031 509.776 129.786 503.163 141.921C497.432 152.435 486.386 161.89 471.217 169.27C456.426 176.464 437.644 181.688 418.333 183.976C404.125 185.648 389.601 186.125 375.555 186.583C352.329 187.343 330.388 188.06 309.488 193.691C267.666 204.965 240.635 233.156 212.012 263.007C198.094 277.523 183.699 292.532 167.174 305.935C150.289 319.629 132.773 331.326 115.837 342.631C102.312 351.664 89.5367 360.192 78.4245 368.891C51.4716 389.977 36.3885 412.87 30.9568 440.933C27.3745 459.451 26.1234 495.352 58.0185 527.747C70.5877 540.514 87.9942 551.381 109.756 560.045C119.423 563.904 129.199 567.201 138.656 570.385C147.615 573.402 156.878 576.524 165.729 580.037C182.596 586.766 197.947 594.945 211.367 604.35C259.619 638.056 291.759 691.331 301.861 754.368C303.155 762.338 304.084 770.517 304.616 778.677C308.676 841.772 291.002 911.386 253.512 979.992L253.5 980Z" fill="white" fill-opacity="0.06"/>
<path d="M234.389 979.988L232.518 978.902C271.739 911.249 291.273 845.892 290.571 784.651C290.47 776.687 289.988 768.692 289.146 760.891C282.553 698.692 254.044 645.466 208.871 611.011C196.314 601.402 181.745 592.887 165.573 585.703C156.437 581.665 147.219 578.201 137.465 574.535C128.965 571.342 120.178 568.037 111.461 564.325C90.0861 555.24 72.8306 544.37 60.1724 532.027C27.3971 500.07 25.6381 464.117 27.5058 445.528C30.4801 415.93 43.81 391.724 69.4564 369.345C82.398 358.052 97.9955 347.105 114.506 335.514C127.995 326.045 141.942 316.254 155.602 305.478C170.198 293.964 183.539 281.369 196.442 269.18C227.944 239.438 257.698 211.341 302.041 200.945C322.224 196.212 343.984 195.654 365.029 195.115C380.533 194.715 396.565 194.304 412.178 192.263C431.348 189.746 449.901 183.993 464.415 176.068C479.181 168.003 489.494 157.882 494.239 146.807C499.652 134.165 498.145 122.857 496.553 110.886C495.016 99.3257 493.424 87.37 497.489 72.8075C498.052 70.7825 498.693 68.7964 499.388 66.9034C507.93 43.8842 531.965 19.616 570.833 -5.22643C573.823 -7.13885 576.812 -9.02415 579.791 -10.9017C598.506 -22.7061 616.181 -33.8587 630.478 -48.557C636.185 -54.3952 641.031 -60.4739 645.291 -67.1384C674.894 -113.483 660.985 -178.126 614.286 -211.235L615.536 -213C663.164 -179.232 677.325 -113.278 647.112 -65.9785C642.771 -59.186 637.84 -52.9948 632.027 -47.048C617.552 -32.1635 599.772 -20.9488 580.944 -9.07069C577.969 -7.19316 574.98 -5.31175 571.998 -3.4032C533.538 21.1832 509.79 45.0906 501.415 67.6559C500.731 69.5179 500.126 71.3954 499.57 73.3971C495.621 87.5329 497.186 99.2636 498.697 110.61C500.331 122.884 501.873 134.475 496.227 147.664C491.292 159.193 480.649 169.675 465.452 177.972C450.708 186.022 431.888 191.864 412.462 194.416C396.732 196.468 380.642 196.884 365.083 197.283C343.184 197.846 322.5 198.377 302.534 203.055C258.758 213.32 229.21 241.219 197.925 270.759C184.987 282.975 171.607 295.609 156.941 307.181C143.231 317.996 129.26 327.806 115.748 337.291C99.2846 348.847 83.7376 359.763 70.8814 370.982C45.6738 392.977 32.5729 416.737 29.6569 445.753C27.828 463.955 29.5559 499.166 61.6829 530.49C74.1469 542.644 91.1811 553.362 112.308 562.346C120.982 566.043 129.75 569.337 138.226 572.522C148.011 576.199 157.256 579.675 166.451 583.74C182.782 590.994 197.498 599.598 210.187 609.308C255.838 644.124 284.645 697.882 291.301 760.674C292.151 768.545 292.632 776.606 292.737 784.636C293.444 846.272 273.812 912.002 234.393 980L234.389 979.988Z" fill="white" fill-opacity="0.06"/>
<path d="M215.266 979.996L213.425 978.867C254.222 912.632 276.196 849.257 278.732 790.508C279.058 782.685 279.019 774.808 278.615 767.091C275.481 705.155 250.257 651.469 207.588 615.915C195.74 606.017 181.798 597.084 166.151 589.371C156.574 584.676 146.853 580.629 136.562 576.349C129.14 573.26 121.466 570.067 113.85 566.606C93.0966 557.192 76.2263 546.491 63.7096 534.804C32.206 505.373 25.8175 472.74 26.0039 450.55C26.2602 420.078 37.5964 394.966 61.6823 371.51C76.5992 356.983 95.7413 343.088 116.006 328.378C125.594 321.417 135.509 314.219 145.327 306.7C157.556 297.329 169.211 287.345 180.481 277.688C215.297 247.857 248.18 219.679 295.21 210.297C314.445 206.455 334.946 206.102 354.772 205.757C371.767 205.462 389.34 205.155 406.428 202.707C425.717 199.929 444.3 193.577 458.755 184.819C473.532 175.864 483.454 164.77 487.443 152.73C491.991 138.998 489.183 126.799 486.208 113.882C483.342 101.442 480.379 88.5753 483.586 73.2059C484.025 71.0951 484.557 69.0114 485.167 67.0054C494.604 36.3326 529.215 10.2655 556.586 -6.20195C560.629 -8.63095 564.683 -11.0095 568.718 -13.3803C587.076 -24.1555 604.42 -34.3332 618.813 -47.9294C624.906 -53.6604 630.075 -59.6359 634.619 -66.2012C666.258 -111.945 652.996 -178.358 605.659 -211.227L606.894 -213C655.194 -179.467 668.705 -111.677 636.398 -64.975C631.768 -58.2817 626.502 -52.1937 620.3 -46.3579C605.729 -32.5988 588.288 -22.359 569.817 -11.5178C565.79 -9.15089 561.74 -6.77621 557.705 -4.3511C530.655 11.9185 496.476 37.6169 487.241 67.634C486.651 69.5741 486.134 71.5957 485.707 73.6444C482.596 88.5521 485.505 101.182 488.317 113.397C491.361 126.62 494.239 139.107 489.497 153.413C485.342 165.946 475.101 177.447 459.877 186.67C445.182 195.575 426.308 202.032 406.738 204.849C389.515 207.317 371.875 207.619 354.815 207.918C334.177 208.275 314.682 208.613 295.641 212.415C249.166 221.689 216.49 249.688 181.898 279.329C170.605 289.006 158.927 299.009 146.651 308.415C136.81 315.954 126.888 323.159 117.287 330.128C97.0889 344.791 78.0089 358.644 63.2047 373.062C39.5615 396.083 28.4311 420.715 28.1787 450.569C27.9962 472.329 34.2682 504.333 65.2009 533.228C77.5429 544.76 94.219 555.326 114.759 564.642C122.344 568.088 130.002 571.277 137.408 574.354C147.731 578.65 157.482 582.708 167.121 587.435C182.928 595.226 197.013 604.251 208.994 614.258C252.133 650.2 277.633 704.441 280.794 766.982C281.202 774.766 281.24 782.712 280.91 790.601C278.359 849.727 256.277 913.451 215.286 980L215.266 979.996Z" fill="white" fill-opacity="0.06"/>
<path d="M196.766 978.981L194.959 977.802C238.042 911.968 261.74 852.33 267.405 795.489C268.162 787.818 268.561 780.062 268.596 772.435C268.972 710.835 247.066 656.735 206.919 620.101C195.622 609.767 182.701 600.689 167.403 592.348C157.27 586.841 146.897 582.091 135.919 577.057C129.734 574.222 123.343 571.291 116.999 568.22C96.5549 558.323 80.5549 548.09 68.0876 536.941C36.0643 508.291 27.2073 476.567 25.4196 454.994C22.8331 423.82 32.1554 397.823 54.7633 373.179C71.9887 354.399 95.9306 336.801 121.272 318.172C126.065 314.651 130.909 311.091 135.764 307.477C144.737 300.803 153.598 293.862 162.164 287.149C201.199 256.561 238.069 227.671 288.838 219.279C307.064 216.266 326.294 216.115 344.889 215.971C363.343 215.824 382.422 215.677 400.947 212.792C420.336 209.755 438.923 202.806 453.279 193.228C468.042 183.378 477.554 171.31 480.792 158.331C484.495 143.479 480.362 130.356 475.987 116.462C471.807 103.184 467.487 89.4566 469.837 73.3441C470.143 71.1881 470.57 69.0087 471.097 66.8604C479.225 34.2787 514.339 8.51817 542.368 -7.35774C547.359 -10.1808 552.385 -12.9186 557.383 -15.6447C575.478 -25.5061 592.571 -34.8206 607.074 -47.4431C613.543 -53.0504 619.026 -58.9215 623.846 -65.3897C639.578 -86.5124 645.973 -114.251 641.393 -141.489C636.631 -169.828 620.437 -195.243 596.969 -211.216L598.182 -213C622.136 -196.698 638.659 -170.762 643.522 -141.845C648.199 -114.03 641.657 -85.6941 625.576 -64.0984C620.662 -57.5022 615.074 -51.5225 608.49 -45.8105C593.812 -33.033 576.618 -23.668 558.419 -13.7484C553.428 -11.03 548.414 -8.29616 543.435 -5.47696C515.774 10.1857 481.137 35.5429 473.199 67.3839C472.687 69.4547 472.276 71.5642 471.982 73.6544C469.701 89.2821 473.948 102.773 478.054 115.814C482.521 130.007 486.745 143.413 482.894 158.855C479.524 172.365 469.697 184.871 454.481 195.023C439.869 204.772 420.976 211.838 401.284 214.924C382.605 217.837 363.44 217.984 344.912 218.131C326.399 218.275 307.258 218.426 289.199 221.412C238.977 229.714 202.316 258.442 163.506 288.852C154.928 295.572 146.06 302.525 137.063 309.214C132.204 312.828 127.357 316.388 122.56 319.917C97.3034 338.484 73.4468 356.02 56.361 374.645C34.1913 398.816 25.0434 424.289 27.5757 454.824C29.3323 476 38.0381 507.163 69.534 535.335C81.8462 546.352 97.6834 556.474 117.945 566.285C124.266 569.352 130.649 572.276 136.823 575.103C147.836 580.152 158.24 584.921 168.439 590.463C183.675 598.773 197.112 608.212 208.377 618.519C248.982 655.572 271.136 710.242 270.756 772.458C270.721 780.156 270.318 787.981 269.554 795.717C263.849 852.92 240.043 912.867 196.766 979V978.981Z" fill="white" fill-opacity="0.06"/>
<path d="M177.428 978.988L175.656 977.751C221.363 912.13 246.686 856.069 255.354 801.328C256.537 793.803 257.379 786.166 257.852 778.614C261.723 718.209 242.606 662.215 205.407 624.99C194.815 614.366 182.497 604.883 167.751 596.004C156.895 589.488 145.679 583.863 133.799 577.905C128.951 575.473 124.06 573.022 119.158 570.489C98.9161 560.036 83.7397 550.254 71.3983 539.707C38.5554 511.632 27.335 480.87 23.7086 460.006C18.2632 428.673 25.803 400.982 46.77 375.347C65.3596 352.617 93.3156 331.711 125.266 308.698C129.463 305.676 133.636 302.639 137.806 299.61C182.738 266.931 225.18 236.063 281.778 228.628C298.991 226.366 316.976 226.417 334.386 226.475C354.329 226.541 374.97 226.595 394.956 223.232C414.481 219.935 433.097 212.387 447.386 201.977C462.151 191.221 471.277 178.169 473.775 164.24C476.652 148.189 471.176 134.09 465.378 119.161C459.909 105.088 454.258 90.5389 455.716 73.7321C455.907 71.4707 456.225 69.19 456.655 66.9558C463.772 30.6658 504.341 4.21248 527.887 -8.33154C533.74 -11.4462 539.74 -14.4717 545.542 -17.4002C563.515 -26.461 580.491 -35.0177 595.171 -46.8092C602.02 -52.2899 607.83 -58.0616 612.934 -64.4499C629.744 -85.4885 636.919 -113.443 632.614 -141.141C628.165 -169.767 611.941 -195.305 588.1 -211.204L589.299 -213C613.64 -196.763 630.209 -170.69 634.751 -141.471C639.149 -113.175 631.815 -84.6119 614.625 -63.0963C609.42 -56.5838 603.498 -50.7035 596.524 -45.1219C581.67 -33.1908 563.798 -24.1803 546.519 -15.4685C540.729 -12.5478 534.737 -9.53009 528.907 -6.42319C505.698 5.93854 465.723 31.9614 458.78 67.3709C458.362 69.5275 458.059 71.7267 457.873 73.9144C456.457 90.2209 462.019 104.537 467.398 118.377C473.309 133.597 478.894 147.972 475.908 164.62C473.309 179.111 463.885 192.633 448.661 203.726C434.113 214.327 415.171 222.011 395.321 225.366C375.153 228.76 354.426 228.705 334.382 228.639C317.057 228.585 299.135 228.535 282.062 230.777C226.006 238.139 183.781 268.847 139.078 301.363C134.908 304.396 130.727 307.433 126.535 310.459C94.7118 333.386 66.8683 354.196 48.4494 376.724C27.9051 401.847 20.5127 428.968 25.8456 459.645C29.41 480.16 40.452 510.418 72.8101 538.078C85.0234 548.516 100.068 558.209 120.159 568.585C125.053 571.118 129.936 573.565 134.776 575.993C146.691 581.967 157.947 587.61 168.872 594.169C183.773 603.145 196.227 612.733 206.943 623.481C244.58 661.144 263.922 717.748 260.012 778.769C259.535 786.379 258.69 794.09 257.495 801.681C248.777 856.756 223.338 913.099 177.436 979L177.428 978.988Z" fill="white" fill-opacity="0.06"/>
<path d="M158.922 979L157.188 977.712C189.961 933.568 229.462 874.289 244.169 807.18C245.779 799.793 247.06 792.262 247.972 784.809C255.387 724.727 239.633 668.261 204.749 629.89C194.842 618.972 183.127 609.086 168.937 599.67C157.125 591.852 144.767 585.117 131.686 577.99C128.52 576.263 125.334 574.529 122.144 572.772C108.548 565.284 90.9582 555.072 75.5222 542.486C48.2436 520.247 30.5066 494.183 22.8003 465.022C14.4033 433.243 19.89 404.626 39.5749 377.526C58.6545 351.259 90.2209 327.601 115.587 309.92C165.111 275.41 214.612 243.941 275.588 237.985C291.738 236.41 308.489 236.655 324.682 236.903C346.179 237.225 368.405 237.559 389.875 233.679C409.478 230.129 428.139 221.978 442.415 210.734C457.187 199.009 465.929 184.972 467.691 170.14C469.748 152.855 462.895 137.748 455.639 121.759C448.906 106.919 441.945 91.5781 442.508 74.1152C442.581 71.7641 442.787 69.3897 443.129 67.0541C448.751 28.8072 490.162 2.79718 514.344 -9.30385C520.987 -12.6249 527.832 -15.8102 534.448 -18.8869C551.599 -26.8637 569.332 -35.1122 584.229 -46.1695C591.473 -51.5314 597.612 -57.1997 602.99 -63.5005C620.898 -84.4591 628.849 -112.638 624.809 -140.813C620.665 -169.713 604.399 -195.363 580.189 -211.188L581.369 -213C606.102 -196.833 622.714 -170.637 626.947 -141.123C631.076 -112.335 622.943 -83.5318 604.632 -62.0999C599.145 -55.675 592.89 -49.9019 585.513 -44.4391C570.442 -33.2576 552.608 -24.9588 535.356 -16.9354C528.752 -13.8626 521.922 -10.6851 515.306 -7.3795C496.138 2.21132 450.944 28.6869 445.263 67.3567C444.937 69.607 444.735 71.9038 444.665 74.1735C444.114 91.132 450.971 106.244 457.602 120.855C464.66 136.413 471.959 152.498 469.833 170.384C468.001 185.799 458.98 200.332 443.749 212.418C429.194 223.882 410.196 232.185 390.251 235.797C368.572 239.712 346.237 239.382 324.643 239.056C308.508 238.816 291.823 238.564 275.79 240.131C215.334 246.032 166.097 277.346 116.817 311.686C91.5868 329.269 60.2066 352.784 41.3172 378.786C22.0397 405.324 16.6655 433.348 24.884 464.46C32.4701 493.174 49.9625 518.862 76.8804 540.802C92.1843 553.28 109.661 563.425 123.18 570.874C126.37 572.632 129.548 574.362 132.714 576.089C145.838 583.239 158.235 589.994 170.125 597.866C184.466 607.383 196.313 617.381 206.34 628.435C241.647 667.271 257.599 724.366 250.106 785.069C249.186 792.588 247.894 800.181 246.268 807.638C231.476 875.15 191.812 934.677 158.914 978.992L158.922 979Z" fill="white" fill-opacity="0.06"/>
<path d="M139.779 978L138.084 976.658C174.771 930.35 214.646 874.591 232.266 812.168C234.302 804.929 236.02 797.526 237.374 790.159C248.369 730.485 235.989 673.594 203.41 634.071C194.187 622.865 183.086 612.586 169.477 602.64C156.418 593.113 142.54 584.963 127.849 576.336L124.525 574.385C109.34 565.463 93.3259 555.68 79.084 544.622C50.6429 522.539 31.231 497.25 21.3912 469.453C10.1979 437.832 13.7195 407.467 31.8593 379.2C46.3533 356.622 70.3807 334.214 105.314 310.697C142.847 285.431 200.613 251.336 268.65 246.959C283.656 245.989 299.112 246.428 314.056 246.85C337.121 247.498 360.97 248.172 383.943 243.744C403.417 239.987 422.588 231.011 436.547 219.126C451.332 206.478 459.678 191.468 460.69 175.71C461.951 157.156 453.69 141.03 444.944 123.953C436.973 108.397 428.732 92.3092 428.413 74.2479C428.367 71.8012 428.468 69.3312 428.712 66.9039C432.94 25.2559 479.866 -1.06837 499.84 -10.4519C507.209 -13.9106 514.838 -17.1793 522.211 -20.3356C539.382 -27.6834 557.133 -35.2833 572.26 -45.675C579.939 -50.9367 586.397 -56.5009 592.005 -62.6777C611.002 -83.4804 619.744 -111.825 615.986 -140.448C612.154 -169.642 595.853 -195.423 571.259 -211.181L572.422 -213C597.555 -196.897 614.213 -170.557 618.127 -140.731C621.967 -111.476 613.027 -82.4994 593.599 -61.2275C587.878 -54.9266 581.297 -49.2539 573.477 -43.8952C558.177 -33.3833 540.324 -25.7408 523.057 -18.3503C515.695 -15.1979 508.086 -11.9409 500.752 -8.49765C481.107 0.734634 434.968 26.5742 430.853 67.121C430.616 69.463 430.523 71.8477 430.566 74.2091C430.876 91.7702 439.002 107.633 446.86 122.972C455.358 139.556 464.142 156.706 462.839 175.853C461.792 192.197 453.182 207.73 437.943 220.766C423.709 232.887 404.173 242.034 384.342 245.865C361.137 250.336 337.168 249.661 313.986 249.01C299.092 248.591 283.687 248.157 268.782 249.115C201.269 253.457 143.84 287.366 106.513 312.488C71.8274 335.835 48.0017 358.041 33.6706 380.367C15.907 408.041 12.459 437.77 23.4197 468.728C33.1198 496.126 52.2913 521.089 80.4027 542.915C94.5438 553.896 110.488 563.633 125.611 572.52L128.931 574.47C143.673 583.129 157.593 591.303 170.741 600.895C184.498 610.95 195.726 621.349 205.066 632.695C238.049 672.71 250.596 730.244 239.484 790.547C238.118 797.98 236.389 805.448 234.329 812.753C216.604 875.545 176.578 931.525 139.759 978H139.779Z" fill="white" fill-opacity="0.06"/>
<path d="M120.341 978L118.693 976.604C156.712 931.683 199.042 878.677 220.136 818.01C222.6 810.916 224.76 803.628 226.553 796.341C241.165 737.063 232.15 679.696 201.823 638.953C193.269 627.45 182.776 616.768 169.746 606.289C156.297 595.483 141.665 586.101 126.606 576.65L124.554 575.362C110.407 566.492 95.7786 557.319 82.3257 547.391C52.3709 525.279 31.276 500.737 19.6231 474.441C5.52234 442.622 6.92272 411.311 23.7932 381.377C37.6456 356.795 61.514 333.424 94.739 311.914C131.8 287.778 190.822 258.539 261.512 256.316C275.294 255.878 289.41 256.487 303.061 257.069C327.783 258.124 353.347 259.217 377.878 254.191C397.522 250.161 416.736 240.57 430.588 227.88C445.341 214.328 453.305 198.326 453.611 181.598C454.014 161.752 443.886 143.791 434.091 126.419C424.909 110.134 415.409 93.2933 414.218 74.6146C414.055 72.0742 414.044 69.5106 414.195 66.9857C416.782 23.3492 464.768 -2.39211 485.28 -11.4289C493.318 -14.9738 501.685 -18.2628 509.777 -21.4431C527.036 -28.2265 544.884 -35.2388 560.28 -45.0435C568.329 -50.1631 575.114 -55.6239 581.022 -61.7402C601.128 -82.49 610.643 -111.101 607.125 -140.236C603.571 -169.658 587.24 -195.516 562.317 -211.173L563.465 -213C588.943 -196.994 605.639 -170.566 609.266 -140.496C612.862 -110.713 603.133 -81.4583 582.574 -60.2393C576.549 -53.9988 569.633 -48.4333 561.44 -43.2206C545.865 -33.3034 527.92 -26.2524 510.565 -19.434C502.492 -16.2615 494.148 -12.9803 486.149 -9.45866C466.001 -0.576996 418.866 24.6601 416.348 67.1098C416.204 69.5455 416.212 72.0199 416.371 74.4711C417.531 92.6572 426.903 109.28 435.969 125.353C445.907 142.976 456.187 161.201 455.768 181.633C455.446 198.966 447.241 215.507 432.043 229.466C417.911 242.416 398.325 252.197 378.309 256.305C353.521 261.382 327.822 260.288 302.968 259.225C289.356 258.643 275.286 258.038 261.577 258.473C191.388 260.68 132.747 289.737 95.9144 313.725C62.9842 335.045 39.3563 358.165 25.6745 382.436C9.15711 411.745 7.78389 442.405 21.5976 473.568C33.0954 499.515 53.9613 523.767 83.6097 545.653C96.9966 555.531 111.59 564.685 125.706 573.531L127.762 574.819C142.879 584.31 157.57 593.726 171.108 604.605C184.285 615.201 194.899 626.015 203.565 637.662C234.28 678.925 243.427 736.946 228.659 796.857C226.851 804.206 224.675 811.564 222.189 818.716C200.97 879.735 158.497 932.928 120.353 977.996L120.341 978Z" fill="white" fill-opacity="0.06"/>
<path d="M101.368 978L99.7638 976.549C145.551 926.047 185.345 879.7 208.59 823.852C235.256 759.792 232.274 690.813 200.807 643.837C179.243 611.642 145.741 589.692 113.346 568.464C104.3 562.537 94.944 556.407 86.0111 550.158C2.10403 491.462 -1.77596 435.731 9.74359 399.311C33.0701 325.58 142.879 265.678 254.629 265.678H254.986C267.458 265.694 280.177 266.438 292.474 267.156C318.969 268.708 346.366 270.31 372.547 264.642C409.452 256.651 448.209 226.892 447.343 187.481C446.881 166.327 435.229 147.263 423.966 128.829C412.174 109.533 399.983 89.5847 400.437 67.0726C401.377 20.1746 455.107 -5.61554 471.551 -12.4006C480.224 -15.9813 489.296 -19.24 498.074 -22.3939C524.169 -31.7704 551.155 -41.4689 570.974 -60.7844C592.223 -81.4964 602.523 -110.382 599.233 -140.04C595.943 -169.679 579.565 -195.601 554.293 -211.161L555.427 -213C581.27 -197.087 598.021 -170.579 601.385 -140.277C604.748 -109.956 594.215 -80.418 572.485 -59.2404C552.328 -39.5912 525.117 -29.8152 498.808 -20.3611C490.054 -17.2149 481.004 -13.964 472.378 -10.4066C456.241 -3.7457 403.517 21.5285 402.601 67.1153C402.162 88.995 414.186 108.675 425.814 127.704C437.229 146.383 449.032 165.698 449.51 187.435C450.399 228.001 410.761 258.579 373.009 266.753C346.537 272.482 318.989 270.872 292.349 269.313C280.08 268.595 267.395 267.854 254.986 267.839H254.629C143.749 267.839 34.8722 327.058 11.8098 399.959C0.507756 435.688 4.41881 490.442 87.25 548.392C96.1557 554.623 105.5 560.744 114.534 566.66C147.112 588.005 180.801 610.079 202.609 642.635C234.472 690.204 237.532 759.959 210.59 824.683C187.217 880.845 147.298 927.343 101.372 977.996L101.368 978Z" fill="white" fill-opacity="0.06"/>
</g>
</svg>
