<svg width="91" height="30" viewBox="0 0 91 30" fill="none" xmlns="http://www.w3.org/2000/svg">
<path d="M88.3226 18.3212L90.8555 20.0151C90.0334 21.2298 88.0673 23.3138 84.668 23.3138C80.4468 23.3138 77.3032 20.0374 77.3032 15.8695C77.3032 11.4342 80.4801 8.42529 84.3126 8.42529C88.1671 8.42529 90.0555 11.501 90.6666 13.1614L90.9999 14.0085L81.069 18.1317C81.8243 19.6251 83.0019 20.3829 84.668 20.3829C86.3344 20.3829 87.4895 19.5582 88.3226 18.3212ZM80.5358 15.6357L87.1675 12.8718C86.8008 11.9469 85.7124 11.2895 84.4124 11.2895C82.7575 11.2895 80.458 12.7605 80.5358 15.6357Z" fill="#FF302F"/>
<path d="M72.5156 0.835938H75.7147V22.6338H72.5156V0.835938Z" fill="#20B15A"/>
<path d="M67.4724 9.00458H70.5605V22.2437C70.5605 27.7377 67.328 29.9999 63.5066 29.9999C59.9076 29.9999 57.7415 27.5706 56.9305 25.5981L59.7631 24.4167C60.274 25.6314 61.5071 27.0691 63.5066 27.0691C65.9615 27.0691 67.4724 25.5423 67.4724 22.6895V21.6198H67.3613C66.6281 22.5112 65.2284 23.3135 63.4511 23.3135C59.7408 23.3135 56.3416 20.0706 56.3416 15.8917C56.3416 11.6903 59.7408 8.41406 63.4511 8.41406C65.2174 8.41406 66.6281 9.2053 67.3613 10.0745H67.4724V9.00458ZM67.6944 15.8917C67.6944 13.2616 65.9504 11.3448 63.7288 11.3448C61.4848 11.3448 59.5964 13.2616 59.5964 15.8917C59.5964 18.4881 61.4848 20.3715 63.7288 20.3715C65.9506 20.3827 67.6946 18.4881 67.6946 15.8917" fill="#3686F7"/>
<path d="M38.7795 15.8356C38.7795 20.1262 35.4471 23.2798 31.3591 23.2798C27.2713 23.2798 23.9387 20.1151 23.9387 15.8356C23.9387 11.5229 27.2713 8.38037 31.3591 8.38037C35.4471 8.38037 38.7795 11.5229 38.7795 15.8356ZM35.5359 15.8356C35.5359 13.1612 33.6029 11.3222 31.3591 11.3222C29.1153 11.3222 27.1823 13.1612 27.1823 15.8356C27.1823 18.4879 29.1153 20.3491 31.3591 20.3491C33.6031 20.3491 35.5359 18.4879 35.5359 15.8356Z" fill="#FF302F"/>
<path d="M54.9865 15.8695C54.9865 20.16 51.6539 23.3136 47.5661 23.3136C43.4782 23.3136 40.1458 20.1598 40.1458 15.8695C40.1458 11.5568 43.4782 8.42529 47.5661 8.42529C51.6539 8.42529 54.9865 11.5457 54.9865 15.8695ZM51.7317 15.8695C51.7317 13.1951 49.7989 11.3561 47.5549 11.3561C45.3109 11.3561 43.3781 13.1951 43.3781 15.8695C43.3781 18.5217 45.3111 20.3829 47.5549 20.3829C49.8099 20.3829 51.7317 18.5106 51.7317 15.8695Z" fill="#FFBA40"/>
<path d="M11.7416 20.0483C7.0871 20.0483 3.44369 16.2816 3.44369 11.6121C3.44369 6.94292 7.0871 3.1762 11.7416 3.1762C14.2521 3.1762 16.0849 4.16797 17.4401 5.43846L19.673 3.19857C17.7846 1.38211 15.263 0 11.7416 0C5.36544 0.000178891 0 5.21573 0 11.6121C0 18.0086 5.36544 23.2243 11.7416 23.2243C15.1853 23.2243 17.7846 22.0876 19.8175 19.9703C21.9058 17.8751 22.55 14.9331 22.55 12.5483C22.55 11.8016 22.4612 11.0327 22.3612 10.4644H11.7416V13.5624H19.3064C19.0842 15.5016 18.4733 16.8277 17.5735 17.7302C16.4849 18.8336 14.7632 20.0483 11.7416 20.0483Z" fill="#3686F7"/>
</svg>
