<svg width="342" height="70" viewBox="0 0 342 70" fill="none" xmlns="http://www.w3.org/2000/svg">
<path d="M72.3332 25.1439C72.574 26.7933 72.7011 28.4797 72.7011 30.1956C72.7011 49.2959 57.2366 64.7795 38.1597 64.7795C19.0828 64.7795 3.61681 49.2974 3.61681 30.1956C3.61681 17.2757 10.6953 6.01103 21.1808 0.0732422C8.67118 5.90748 0 18.6041 0 33.3302C0 53.5829 16.3983 69.9998 36.6246 69.9998C56.8509 69.9998 73.2492 53.5814 73.2492 33.3302C73.2492 30.5166 72.9315 27.777 72.3317 25.1439" fill="white"/>
<path d="M59.0596 43.3544C45.6133 58.2596 38.5304 53.6516 37.2096 53.0511C35.8887 52.4505 34.9683 51.7286 40.9313 52.0599C46.8943 52.3913 47.8945 47.5615 47.8945 47.5615C44.2925 49.0038 40.0108 47.3204 40.0108 47.3204C33.2869 44.8367 30.4148 47.9668 30.4148 47.9668C27.4141 50.8218 24.4355 51.9505 22.045 52.3247C15.2472 46.9846 10.8784 38.6829 10.8784 29.3605C10.8799 13.2483 23.9243 0.187867 40.0168 0.187867C40.3019 0.187867 40.587 0.193784 40.8707 0.201181C39.7094 0.0695257 38.529 0 37.3322 0C20.0682 0 6.07373 14.0131 6.07373 31.2984C6.07373 46.2967 16.6095 58.8276 30.6748 61.8838V61.8808C44.3767 66.0154 55.4502 54.0762 59.5797 47.9224C64.0446 41.2701 59.0596 43.3544 59.0596 43.3544Z" fill="#06C106"/>
<path d="M44.0356 8.65583C44.0356 10.8984 42.2198 12.7179 39.9785 12.7179C37.7372 12.7179 35.9214 10.8999 35.9214 8.65583C35.9214 6.41177 37.7372 4.59375 39.9785 4.59375C42.2198 4.59375 44.0356 6.41177 44.0356 8.65583Z" fill="white"/>
<path d="M57.3666 6.3581C56.4683 5.02084 53.1973 5.47794 48.7324 7.28561C51.9592 6.15544 54.2699 5.98089 54.9702 7.02526C56.4698 9.25895 50.0311 16.2234 40.5872 22.5827C31.1433 28.9406 22.2727 32.2838 20.7716 30.0501C20.0713 29.0057 21.104 26.9288 23.366 24.3638C20.0092 27.8223 18.353 30.6832 19.2513 32.0205C20.9238 34.5101 30.8109 30.7838 41.3363 23.6966C51.8617 16.6094 59.0391 8.84772 57.3666 6.3581Z" fill="white"/>
<path d="M51.8233 10.9544C52.135 10.5491 52.4497 10.1364 52.7659 9.71329C52.7659 9.71329 33.6668 21.5119 25.9457 7.06836C25.9457 7.06836 24.613 11.2044 29.6024 15.8153C35.5329 21.296 22.2417 29.3166 22.2417 29.3166C22.2417 29.3166 24.2821 29.0607 26.7878 28.1613C30.381 26.8137 34.9773 24.3817 39.7185 21.1895C44.9605 17.6599 49.2761 13.944 51.8233 10.9529" fill="#06C106"/>
<path d="M32.0076 45.453V30.9932C29.1842 32.3437 26.6755 33.2786 24.7046 33.7135V50.1216C26.3579 49.4337 27.9373 48.3805 29.4251 46.9708C29.6467 46.7429 30.48 45.9737 32.0091 45.4545" fill="white"/>
<path d="M40.525 46.0127C40.5369 46.0171 41.4972 46.384 42.8372 46.5955V24.6875C42.7353 24.757 42.6348 24.8251 42.5314 24.8946C40.1365 26.507 37.774 27.9463 35.5327 29.1771V44.9624C37.0811 45.0068 38.7491 45.3573 40.4984 46.0023L40.525 46.0127Z" fill="white"/>
<path d="M49.8035 45.2817L49.2717 47.8482C49.0796 48.7728 48.4975 50.0878 47.382 51.215C49.2007 50.2935 51.2943 48.8808 53.6656 46.7684V15.9951C51.6799 17.9463 49.1978 20.0572 46.3625 22.177V46.5598C46.7186 46.4829 47.0555 46.3823 47.3731 46.2551L49.8035 45.2817Z" fill="white"/>
<path d="M86.8442 51.5238V53.1802H89.0665V54.2316H86.8442V55.9839H89.3505V57.0634H85.52V50.4443H89.3505V51.5238H86.8442Z" fill="#06C106"/>
<path d="M94.6884 50.8608C95.2151 51.1319 95.6212 51.5187 95.9085 52.0212C96.1958 52.5238 96.3395 53.1057 96.3395 53.7686C96.3395 54.4315 96.1958 55.0101 95.9085 55.506C95.6212 56.0019 95.2151 56.3855 94.6884 56.6566C94.1617 56.9277 93.5508 57.0632 92.859 57.0632H90.5508V50.4541H92.859C93.5524 50.4541 94.1617 50.5897 94.6884 50.8608ZM94.4193 55.3688C94.7974 54.9902 94.9872 54.4563 94.9872 53.7686C94.9872 53.0809 94.7974 52.542 94.4193 52.1535C94.0412 51.765 93.5046 51.5716 92.8111 51.5716H91.8749V55.9375H92.8111C93.5046 55.9375 94.0412 55.7473 94.4193 55.3688Z" fill="#06C106"/>
<path d="M98.6362 50.4541V54.5439C98.6362 54.9919 98.7535 55.3341 98.9863 55.5705C99.2191 55.8069 99.5476 55.9259 99.9703 55.9259C100.393 55.9259 100.73 55.8069 100.963 55.5705C101.195 55.3341 101.313 54.9919 101.313 54.5439V50.4541H102.647V54.5356C102.647 55.0977 102.526 55.5721 102.283 55.9606C102.041 56.3491 101.715 56.64 101.309 56.8367C100.903 57.0318 100.451 57.131 99.9522 57.131C99.4535 57.131 99.0143 57.0335 98.6148 56.8367C98.2136 56.6417 97.8966 56.3491 97.6638 55.9606C97.431 55.5721 97.3137 55.0977 97.3137 54.5356V50.4541H98.6379H98.6362Z" fill="#06C106"/>
<path d="M104.042 52.0014C104.336 51.4873 104.735 51.0856 105.242 50.7996C105.749 50.512 106.319 50.3682 106.949 50.3682C107.687 50.3682 108.333 50.5583 108.888 50.9368C109.442 51.3154 109.83 51.8394 110.052 52.5089H108.529C108.377 52.1932 108.166 51.9568 107.89 51.7981C107.616 51.6411 107.299 51.5617 106.939 51.5617C106.555 51.5617 106.213 51.651 105.912 51.8312C105.614 52.0114 105.379 52.2659 105.212 52.5932C105.046 52.9222 104.961 53.3074 104.961 53.7488C104.961 54.1902 105.046 54.5671 105.212 54.8993C105.379 55.23 105.612 55.4862 105.912 55.6664C106.211 55.8466 106.553 55.9358 106.939 55.9358C107.299 55.9358 107.615 55.8548 107.89 55.6945C108.164 55.5341 108.377 55.2961 108.529 54.9803H110.052C109.83 55.6565 109.444 56.1821 108.893 56.5574C108.341 56.9327 107.694 57.1211 106.949 57.1211C106.319 57.1211 105.749 56.9773 105.242 56.6897C104.735 56.402 104.334 56.0036 104.042 55.4911C103.749 54.9803 103.603 54.3984 103.603 53.7488C103.603 53.0991 103.749 52.5156 104.042 52.0014Z" fill="#06C106"/>
<path d="M115.234 55.8037H112.606L112.172 57.0634H110.781L113.156 50.4443H114.698L117.072 57.0634H115.672L115.236 55.8037H115.234ZM114.875 54.7424L113.92 51.9768L112.964 54.7424H114.875Z" fill="#06C106"/>
<path d="M122.45 50.4541V51.5237H120.691V57.0632H119.367V51.5237H117.609V50.4541H122.45Z" fill="#06C106"/>
<path d="M124.74 50.4541H123.416V57.0632H124.74V50.4541Z" fill="#06C106"/>
<path d="M127.406 56.6934C126.889 56.4025 126.48 56.0008 126.176 55.4866C125.874 54.9725 125.722 54.3906 125.722 53.7393C125.722 53.088 125.874 52.516 126.176 52.0019C126.478 51.4878 126.888 51.0844 127.406 50.7951C127.923 50.5042 128.491 50.3604 129.109 50.3604C129.726 50.3604 130.302 50.5058 130.816 50.7951C131.329 51.0861 131.735 51.4878 132.036 52.0019C132.335 52.516 132.485 53.0962 132.485 53.7393C132.485 54.3824 132.335 54.9725 132.036 55.4866C131.737 56.0008 131.328 56.4041 130.811 56.6934C130.294 56.9844 129.726 57.1282 129.109 57.1282C128.491 57.1282 127.923 56.9827 127.406 56.6934ZM130.159 55.6751C130.461 55.4949 130.697 55.2387 130.869 54.9031C131.039 54.5692 131.125 54.1807 131.125 53.7376C131.125 53.2946 131.039 52.9094 130.869 52.5772C130.699 52.2465 130.462 51.992 130.159 51.8151C129.855 51.6382 129.506 51.5506 129.109 51.5506C128.711 51.5506 128.359 51.6399 128.053 51.8151C127.748 51.992 127.51 52.2465 127.34 52.5772C127.17 52.9078 127.084 53.2946 127.084 53.7376C127.084 54.1807 127.169 54.5675 127.34 54.9031C127.51 55.237 127.748 55.4949 128.053 55.6751C128.359 55.8553 128.711 55.9445 129.109 55.9445C129.506 55.9445 129.855 55.8553 130.159 55.6751Z" fill="#06C106"/>
<path d="M139.114 57.0634H137.79L134.792 52.5273V57.0634H133.469V50.4443H134.792L137.79 54.9887V50.4443H139.114V57.0634Z" fill="#06C106"/>
<path d="M146.699 53.124H142.689V54.2415H146.699V53.124Z" fill="#06C106"/>
<path d="M150.553 52.0014C150.847 51.4873 151.246 51.0856 151.753 50.7996C152.26 50.512 152.83 50.3682 153.46 50.3682C154.198 50.3682 154.844 50.5583 155.399 50.9368C155.953 51.3154 156.341 51.8394 156.563 52.5089H155.04C154.888 52.1932 154.677 51.9568 154.401 51.7981C154.127 51.6411 153.81 51.5617 153.45 51.5617C153.066 51.5617 152.724 51.651 152.423 51.8312C152.125 52.0114 151.89 52.2659 151.723 52.5932C151.557 52.9222 151.472 53.3074 151.472 53.7488C151.472 54.1902 151.557 54.5671 151.723 54.8993C151.89 55.23 152.123 55.4862 152.423 55.6664C152.722 55.8466 153.064 55.9358 153.45 55.9358C153.81 55.9358 154.126 55.8548 154.401 55.6945C154.675 55.5341 154.888 55.2961 155.04 54.9803H156.563C156.341 55.6565 155.955 56.1821 155.404 56.5574C154.852 56.9327 154.205 57.1211 153.46 57.1211C152.83 57.1211 152.26 56.9773 151.753 56.6897C151.246 56.402 150.845 56.0036 150.553 55.4911C150.26 54.9803 150.114 54.3984 150.114 53.7488C150.114 53.0991 150.26 52.5156 150.553 52.0014Z" fill="#06C106"/>
<path d="M159.023 50.4541H157.698V57.0632H159.023V50.4541Z" fill="#06C106"/>
<path d="M164.82 50.4541V51.5237H163.06V57.0632H161.735V51.5237H159.977V50.4541H164.82Z" fill="#06C106"/>
<path d="M167.108 50.4541H165.784V57.0632H167.108V50.4541Z" fill="#06C106"/>
<path d="M169.765 55.9457H172.735V57.0632H168.232V56.0399L171.185 51.5716H168.232V50.4541H172.735V51.4757L169.765 55.9457Z" fill="#06C106"/>
<path d="M175.185 51.5238V53.1802H177.408V54.2316H175.185V55.9839H177.692V57.0634H173.861V50.4443H177.692V51.5238H175.185Z" fill="#06C106"/>
<path d="M184.539 57.0634H183.214L180.216 52.5273V57.0634H178.892V50.4443H180.216L183.214 54.9887V50.4443H184.539V57.0634Z" fill="#06C106"/>
<path d="M186.878 56.8928C186.508 56.7357 186.218 56.5076 186.003 56.2117C185.788 55.9141 185.678 55.5653 185.673 55.1603H187.091C187.109 55.4314 187.207 55.6463 187.38 55.805C187.553 55.9621 187.791 56.0414 188.093 56.0414C188.395 56.0414 188.645 55.967 188.821 55.8182C188.998 55.6695 189.086 55.476 189.086 55.2363C189.086 55.0413 189.026 54.8793 188.906 54.7536C188.785 54.628 188.637 54.5272 188.457 54.4561C188.277 54.3833 188.029 54.3023 187.714 54.2147C187.284 54.0891 186.936 53.9635 186.668 53.8411C186.401 53.7188 186.17 53.532 185.978 53.2824C185.785 53.0328 185.689 52.7005 185.689 52.2839C185.689 51.8921 185.787 51.5516 185.983 51.2606C186.178 50.9697 186.452 50.7482 186.806 50.5928C187.159 50.439 187.562 50.3613 188.016 50.3613C188.696 50.3613 189.249 50.5266 189.675 50.8589C190.101 51.1895 190.335 51.6524 190.38 52.2459H188.924C188.911 52.0194 188.815 51.8309 188.635 51.6822C188.455 51.5334 188.217 51.459 187.922 51.459C187.662 51.459 187.456 51.5251 187.302 51.6574C187.147 51.7896 187.071 51.983 187.071 52.2343C187.071 52.4112 187.129 52.5583 187.246 52.674C187.364 52.7897 187.507 52.8856 187.682 52.9584C187.856 53.0311 188.1 53.1154 188.415 53.2096C188.845 53.3353 189.193 53.4626 189.465 53.5882C189.736 53.7138 189.971 53.9039 190.165 54.1569C190.36 54.4098 190.458 54.7404 190.458 55.1504C190.458 55.5041 190.367 55.8315 190.184 56.1356C190 56.4382 189.733 56.6795 189.38 56.8597C189.026 57.0399 188.607 57.1292 188.121 57.1292C187.661 57.1292 187.246 57.0498 186.878 56.8928Z" fill="#06C106"/>
<path d="M197.078 50.4541V57.0632H195.754V54.2513H192.926V57.0632H191.602V50.4541H192.926V53.1718H195.754V50.4541H197.078Z" fill="#06C106"/>
<path d="M199.707 50.4541H198.383V57.0632H199.707V50.4541Z" fill="#06C106"/>
<path d="M205.577 53.4925C205.41 53.8016 205.147 54.0513 204.792 54.2414C204.436 54.4315 203.987 54.5257 203.445 54.5257H202.339V57.0632H201.015V50.4541H203.445C203.955 50.4541 204.391 50.5434 204.749 50.7186C205.109 50.8955 205.378 51.1385 205.558 51.4476C205.738 51.7567 205.828 52.1072 205.828 52.499C205.828 52.8528 205.743 53.1834 205.577 53.4925ZM204.201 53.2032C204.378 53.0363 204.465 52.8015 204.465 52.4973C204.465 51.8526 204.105 51.5319 203.387 51.5319H202.337V53.4545H203.387C203.754 53.4545 204.025 53.3702 204.201 53.2032Z" fill="#06C106"/>
<path d="M213.043 53.124H209.032V54.2415H213.043V53.124Z" fill="#06C106"/>
<path d="M220.182 57.0632L218.726 54.4877H218.102V57.0632H216.777V50.4541H219.256C219.766 50.4541 220.202 50.5434 220.56 50.7236C220.92 50.9037 221.189 51.1468 221.369 51.4526C221.549 51.7584 221.638 52.1006 221.638 52.4792C221.638 52.9139 221.511 53.3074 221.26 53.6578C221.007 54.0083 220.633 54.2496 220.134 54.3819L221.714 57.0616H220.182V57.0632ZM218.102 53.4942H219.208C219.568 53.4942 219.835 53.4082 220.012 53.233C220.188 53.0594 220.276 52.818 220.276 52.5089C220.276 52.1998 220.187 51.97 220.012 51.803C219.835 51.6361 219.568 51.5518 219.208 51.5518H218.102V53.4925V53.4942Z" fill="#06C106"/>
<path d="M224.164 51.5238V53.1802H226.387V54.2316H224.164V55.9839H226.671V57.0634H222.84V50.4443H226.671V51.5238H224.164Z" fill="#06C106"/>
<path d="M228.906 56.8928C228.536 56.7357 228.246 56.5076 228.031 56.2117C227.817 55.9141 227.706 55.5653 227.701 55.1603H229.119C229.137 55.4314 229.235 55.6463 229.408 55.805C229.582 55.9621 229.819 56.0414 230.121 56.0414C230.424 56.0414 230.673 55.967 230.85 55.8182C231.026 55.6695 231.114 55.476 231.114 55.2363C231.114 55.0413 231.054 54.8793 230.934 54.7536C230.813 54.628 230.665 54.5272 230.485 54.4561C230.305 54.3833 230.057 54.3023 229.742 54.2147C229.312 54.0891 228.964 53.9635 228.697 53.8411C228.429 53.7188 228.198 53.532 228.006 53.2824C227.813 53.0328 227.717 52.7005 227.717 52.2839C227.717 51.8921 227.815 51.5516 228.011 51.2606C228.206 50.9697 228.48 50.7482 228.834 50.5928C229.187 50.439 229.59 50.3613 230.044 50.3613C230.724 50.3613 231.277 50.5266 231.703 50.8589C232.129 51.1912 232.364 51.6524 232.408 52.2459H230.952C230.939 52.0194 230.843 51.8309 230.663 51.6822C230.483 51.5334 230.245 51.459 229.95 51.459C229.69 51.459 229.484 51.5251 229.331 51.6574C229.175 51.7896 229.099 51.983 229.099 52.2343C229.099 52.4112 229.157 52.5583 229.274 52.674C229.392 52.7914 229.535 52.8856 229.71 52.9584C229.884 53.0311 230.128 53.1154 230.443 53.2096C230.873 53.3353 231.221 53.4626 231.493 53.5882C231.764 53.7138 231.999 53.9039 232.194 54.1569C232.388 54.4098 232.486 54.7404 232.486 55.1504C232.486 55.5041 232.395 55.8315 232.212 56.1356C232.028 56.4382 231.761 56.6795 231.408 56.8597C231.054 57.0399 230.635 57.1292 230.149 57.1292C229.689 57.1292 229.274 57.0498 228.906 56.8928Z" fill="#06C106"/>
<path d="M234.956 50.4541H233.632V57.0632H234.956V50.4541Z" fill="#06C106"/>
<path d="M240.398 50.8608C240.925 51.1319 241.331 51.5187 241.618 52.0212C241.905 52.5238 242.047 53.1057 242.047 53.7686C242.047 54.4315 241.904 55.0101 241.618 55.506C241.331 56.0019 240.925 56.3855 240.398 56.6566C239.871 56.9277 239.262 57.0632 238.568 57.0632H236.26V50.4541H238.568C239.262 50.4541 239.871 50.5897 240.398 50.8608ZM240.129 55.3688C240.507 54.9902 240.697 54.4563 240.697 53.7686C240.697 53.0809 240.507 52.542 240.129 52.1535C239.751 51.765 239.214 51.5716 238.521 51.5716H237.584V55.9375H238.521C239.214 55.9375 239.751 55.7473 240.129 55.3688Z" fill="#06C106"/>
<path d="M244.365 51.5238V53.1802H246.588V54.2316H244.365V55.9839H246.872V57.0634H243.041V50.4443H246.872V51.5238H244.365Z" fill="#06C106"/>
<path d="M253.719 57.0634H252.395L249.396 52.5273V57.0634H248.072V50.4443H249.396L252.395 54.9887V50.4443H253.719V57.0634Z" fill="#06C106"/>
<path d="M255.142 52.0014C255.434 51.4873 255.835 51.0856 256.342 50.7996C256.849 50.512 257.419 50.3682 258.05 50.3682C258.788 50.3682 259.433 50.5583 259.988 50.9368C260.543 51.3154 260.931 51.8394 261.15 52.5089H259.628C259.476 52.1932 259.263 51.9568 258.989 51.7981C258.715 51.6411 258.398 51.5617 258.038 51.5617C257.653 51.5617 257.312 51.651 257.011 51.8312C256.712 52.0114 256.478 52.2659 256.311 52.5932C256.144 52.9222 256.06 53.3074 256.06 53.7488C256.06 54.1902 256.144 54.5671 256.311 54.8993C256.478 55.23 256.712 55.4862 257.011 55.6664C257.31 55.8466 257.653 55.9358 258.038 55.9358C258.398 55.9358 258.713 55.8548 258.989 55.6945C259.263 55.5341 259.476 55.2961 259.628 54.9803H261.15C260.929 55.6565 260.544 56.1821 259.991 56.5574C259.44 56.9327 258.793 57.1211 258.048 57.1211C257.417 57.1211 256.848 56.9773 256.341 56.6897C255.834 56.402 255.433 56.0036 255.14 55.4911C254.846 54.9803 254.701 54.3984 254.701 53.7488C254.701 53.0991 254.848 52.5156 255.14 52.0014" fill="#06C106"/>
<path d="M267.535 50.4541L265.304 54.7621V57.0632H263.98V54.7621L261.738 50.4541H263.232L264.65 53.4743L266.06 50.4541H267.535Z" fill="#06C106"/>
<path d="M274.582 53.124H270.571V54.2415H274.582V53.124Z" fill="#06C106"/>
<path d="M279.641 50.4541H278.316V57.0632H279.641V50.4541Z" fill="#06C106"/>
<path d="M288.144 50.4541V57.0632H286.819V52.7635L285.051 57.0632H284.049L282.271 52.7635V57.0632H280.947V50.4541H282.451L284.549 55.3688L286.649 50.4541H288.144Z" fill="#06C106"/>
<path d="M296.645 50.4541V57.0632H295.321V52.7635L293.553 57.0632H292.55L290.772 52.7635V57.0632H289.448V50.4541H290.952L293.052 55.3688L295.151 50.4541H296.645Z" fill="#06C106"/>
<path d="M299.275 50.4541H297.951V57.0632H299.275V50.4541Z" fill="#06C106"/>
<path d="M305.176 52.4422C305.024 52.1645 304.816 51.9529 304.552 51.8074C304.288 51.6619 303.977 51.5892 303.626 51.5892C303.234 51.5892 302.888 51.6785 302.586 51.8537C302.283 52.0306 302.047 52.2835 301.876 52.6108C301.706 52.9398 301.62 53.3184 301.62 53.7465C301.62 54.1747 301.706 54.5731 301.881 54.902C302.054 55.231 302.295 55.4823 302.604 55.6592C302.913 55.836 303.272 55.9237 303.682 55.9237C304.187 55.9237 304.6 55.7898 304.92 55.522C305.242 55.2541 305.454 54.8789 305.554 54.3995H303.284V53.3861H306.859V54.5417C306.771 55.0029 306.581 55.4294 306.291 55.8195C306 56.2113 305.627 56.5254 305.17 56.7618C304.712 56.9982 304.2 57.1172 303.632 57.1172C302.995 57.1172 302.42 56.9734 301.907 56.6857C301.394 56.3981 300.989 55.9997 300.697 55.4872C300.403 54.9764 300.258 54.3945 300.258 53.7449C300.258 53.0952 300.405 52.5116 300.697 51.9975C300.989 51.4834 301.394 51.0817 301.907 50.7957C302.42 50.5081 302.993 50.3643 303.624 50.3643C304.367 50.3643 305.014 50.5461 305.562 50.9081C306.111 51.2718 306.489 51.781 306.697 52.4373H305.174L305.176 52.4422Z" fill="#06C106"/>
<path d="M311.247 57.0632L309.791 54.4877H309.167V57.0632H307.843V50.4541H310.321C310.831 50.4541 311.267 50.5434 311.625 50.7236C311.984 50.9037 312.254 51.1468 312.434 51.4526C312.614 51.7584 312.704 52.1006 312.704 52.4792C312.704 52.9139 312.576 53.3074 312.325 53.6578C312.073 54.0083 311.698 54.2496 311.199 54.3819L312.78 57.0616H311.247V57.0632ZM309.167 53.4942H310.273C310.633 53.4942 310.901 53.4082 311.077 53.233C311.254 53.0594 311.341 52.818 311.341 52.5089C311.341 52.1998 311.252 51.97 311.077 51.803C310.901 51.6361 310.633 51.5518 310.273 51.5518H309.167V53.4925V53.4942Z" fill="#06C106"/>
<path d="M317.952 55.8037H315.324L314.889 57.0634H313.499L315.874 50.4443H317.416L319.79 57.0634H318.39L317.954 55.8037H317.952ZM317.592 54.7424L316.638 51.9768L315.682 54.7424H317.592Z" fill="#06C106"/>
<path d="M325.169 50.4541V51.5237H323.409V57.0632H322.085V51.5237H320.326V50.4541H325.169Z" fill="#06C106"/>
<path d="M327.457 50.4541H326.133V57.0632H327.457V50.4541Z" fill="#06C106"/>
<path d="M330.124 56.6934C329.607 56.4025 329.198 56.0008 328.894 55.4866C328.592 54.9725 328.44 54.3906 328.44 53.7393C328.44 53.088 328.592 52.516 328.894 52.0019C329.196 51.4878 329.606 51.0844 330.124 50.7951C330.641 50.5042 331.209 50.3604 331.826 50.3604C332.444 50.3604 333.02 50.5058 333.534 50.7951C334.047 51.0861 334.453 51.4878 334.754 52.0019C335.053 52.516 335.203 53.0962 335.203 53.7393C335.203 54.3824 335.053 54.9725 334.754 55.4866C334.455 56.0008 334.045 56.4041 333.529 56.6934C333.012 56.9844 332.444 57.1282 331.826 57.1282C331.209 57.1282 330.641 56.9827 330.124 56.6934ZM332.876 55.6751C333.179 55.4949 333.415 55.2387 333.586 54.9031C333.756 54.5692 333.842 54.1807 333.842 53.7376C333.842 53.2946 333.756 52.9094 333.586 52.5772C333.416 52.2465 333.18 51.992 332.876 51.8151C332.573 51.6382 332.224 51.5506 331.826 51.5506C331.428 51.5506 331.077 51.6399 330.771 51.8151C330.466 51.992 330.228 52.2465 330.058 52.5772C329.888 52.9078 329.802 53.2946 329.802 53.7376C329.802 54.1807 329.886 54.5675 330.058 54.9031C330.228 55.237 330.466 55.4949 330.771 55.6751C331.077 55.8553 331.428 55.9445 331.826 55.9445C332.224 55.9445 332.573 55.8553 332.876 55.6751Z" fill="#06C106"/>
<path d="M341.833 57.0634H340.509L337.511 52.5273V57.0634H336.187V50.4443H337.511L340.509 54.9887V50.4443H341.833V57.0634Z" fill="#06C106"/>
<path d="M119.268 14.3633L113.555 37.6721H105.597L102.394 23.3892L99.1249 37.6721H91.1667L85.52 14.3633H92.5206L95.2284 30.2992L98.8938 14.3633H105.993L109.56 30.167L112.267 14.3633H119.268Z" fill="white"/>
<path d="M127.16 36.3656C125.332 35.3406 123.886 33.919 122.818 32.1006C121.75 30.2821 121.216 28.2273 121.216 25.9345C121.216 23.6416 121.75 21.5868 122.818 19.7684C123.886 17.95 125.332 16.5332 127.16 15.5199C128.988 14.5065 130.991 13.999 133.17 13.999C135.35 13.999 137.38 14.5065 139.197 15.5199C141.013 16.5332 142.449 17.95 143.506 19.7684C144.563 21.5868 145.091 23.6416 145.091 25.9345C145.091 28.2273 144.563 30.2821 143.506 32.1006C142.449 33.919 141.008 35.3406 139.18 36.3656C137.352 37.3905 135.35 37.903 133.17 37.903C130.991 37.903 128.988 37.3905 127.16 36.3656ZM137.083 30.2656C138.041 29.1861 138.52 27.7413 138.52 25.9345C138.52 24.1276 138.041 22.6233 137.083 21.5537C136.126 20.4842 134.821 19.9502 133.17 19.9502C131.519 19.9502 130.187 20.4842 129.241 21.5537C128.294 22.6233 127.821 24.083 127.821 25.9345C127.821 27.7859 128.294 29.2126 129.241 30.2821C130.187 31.3517 131.498 31.8856 133.17 31.8856C134.843 31.8856 136.126 31.3451 137.083 30.2656Z" fill="white"/>
<path d="M159.786 37.6741L155.163 29.0779H154.469V37.6741H147.997V14.3652H158.2C160.071 14.3652 161.656 14.6909 162.956 15.3406C164.255 15.9902 165.234 16.8829 165.895 18.0186C166.555 19.1543 166.885 20.4272 166.885 21.8373C166.885 23.4243 166.449 24.8178 165.581 26.0196C164.711 27.2215 163.439 28.0745 161.767 28.582L167.017 37.6741H159.786ZM154.469 24.6476H157.672C158.552 24.6476 159.213 24.4376 159.653 24.0194C160.094 23.6011 160.314 22.9945 160.314 22.201C160.314 21.4521 160.088 20.8619 159.637 20.4321C159.186 20.0023 158.531 19.7874 157.672 19.7874H154.469V24.6476Z" fill="white"/>
<path d="M176.296 32.7128H183.528V37.6721H169.824V14.3633H176.296V32.7128Z" fill="white"/>
<path d="M201.673 15.8345C203.511 16.8148 204.926 18.1869 205.917 19.9508C206.907 21.7147 207.403 23.7314 207.403 26.0012C207.403 28.2709 206.901 30.2546 205.9 32.0185C204.898 33.7823 203.478 35.1643 201.64 36.1678C199.801 37.1712 197.673 37.6721 195.251 37.6721H186.038V14.3633H195.251C197.694 14.3633 199.836 14.8543 201.673 15.8345ZM199.213 30.3984C200.291 29.3619 200.831 27.8973 200.831 26.0012C200.831 24.105 200.291 22.6007 199.213 21.5543C198.133 20.5079 196.647 19.9838 194.755 19.9838H192.51V31.9523H194.755C196.647 31.9523 198.133 31.4349 199.213 30.3984Z" fill="white"/>
<path d="M217.26 19.8351C218.217 18.0381 219.576 16.6396 221.338 15.6362C223.1 14.6327 225.124 14.1318 227.414 14.1318C230.32 14.1318 232.763 14.9088 234.745 16.4627C236.726 18.0166 238.002 20.1277 238.575 22.7941H231.608C231.19 21.913 230.612 21.2402 229.874 20.7773C229.136 20.3145 228.284 20.083 227.315 20.083C225.817 20.083 224.623 20.617 223.732 21.6865C222.84 22.7561 222.395 24.1827 222.395 25.9681C222.395 27.7534 222.84 29.2131 223.732 30.2827C224.623 31.3523 225.817 31.8862 227.315 31.8862C228.284 31.8862 229.136 31.6548 229.874 31.1919C230.612 30.729 231.19 30.0562 231.608 29.1751H238.575C238.002 31.8416 236.726 33.9526 234.745 35.5065C232.763 37.0604 230.32 37.8374 227.414 37.8374C225.124 37.8374 223.1 37.3365 221.338 36.3331C219.576 35.3296 218.217 33.9311 217.26 32.1342C216.302 30.3373 215.823 28.2824 215.823 25.9681C215.823 23.6537 216.302 21.632 217.26 19.8351Z" fill="white"/>
<path d="M248.118 14.3633H241.646V37.6721H248.118V14.3633Z" fill="white"/>
<path d="M269.351 14.3633V19.521H263.141V37.6721H256.671V19.521H250.529V14.3633H269.351Z" fill="white"/>
<path d="M278.234 14.3633H271.762V37.6721H278.234V14.3633Z" fill="white"/>
<path d="M288.999 32.4155H298.674V37.6741H281.734V32.7461L291.31 19.5874H281.734V14.3652H298.674V19.2898L288.999 32.4155Z" fill="white"/>
<path d="M308.647 19.554V23.3562H316.077V28.2824H308.647V32.4813H317.067V37.6721H302.175V14.3633H317.067V19.554H308.647Z" fill="white"/>
<path d="M341.833 37.6721H335.361L326.742 24.6456V37.6721H320.269V14.3633H326.742L335.361 27.5551V14.3633H341.833V37.6721Z" fill="white"/>
</svg>
