<svg width="293" height="60" viewBox="0 0 293 60" fill="none" xmlns="http://www.w3.org/2000/svg">
<path d="M61.9999 21.5516C62.2063 22.9653 62.3152 24.4108 62.3152 25.8817C62.3152 42.2536 49.0599 55.5254 32.7083 55.5254C16.3567 55.5254 3.10012 42.2549 3.10012 25.8817C3.10012 14.8073 9.16739 5.15174 18.155 0.0621338C7.43244 5.06298 0 15.9459 0 28.5685C0 45.9282 14.0557 60 31.3925 60C48.7294 60 62.785 45.9269 62.785 28.5685C62.785 26.1568 62.5128 23.8085 61.9986 21.5516" fill="white"/>
<path d="M50.6226 37.1614C39.0971 49.9374 33.0261 45.9877 31.8939 45.4729C30.7618 44.9582 29.9728 44.3394 35.084 44.6234C40.1951 44.9074 41.0525 40.7675 41.0525 40.7675C37.965 42.0038 34.295 40.5609 34.295 40.5609C28.5317 38.432 26.0698 41.115 26.0698 41.115C23.4978 43.5621 20.9447 44.5296 18.8957 44.8504C13.0691 40.273 9.32435 33.1572 9.32435 25.1665C9.32562 11.3559 20.5066 0.161031 34.3001 0.161031C34.5445 0.161031 34.7889 0.166103 35.032 0.172443C34.0367 0.0595943 33.0248 0 31.999 0C17.2013 0 5.20605 12.0114 5.20605 26.8276C5.20605 39.6834 14.2367 50.4243 26.2927 53.044V53.0414C38.0372 56.5854 47.5288 46.3516 51.0683 41.0769C54.8954 35.3749 50.6226 37.1614 50.6226 37.1614Z" fill="#06C106"/>
<path d="M37.7448 7.41884C37.7448 9.34108 36.1884 10.9007 34.2673 10.9007C32.3462 10.9007 30.7898 9.34234 30.7898 7.41884C30.7898 5.49535 32.3462 3.93702 34.2673 3.93702C36.1884 3.93702 37.7448 5.49535 37.7448 7.41884Z" fill="white"/>
<path d="M49.1712 5.44971C48.4013 4.30347 45.5975 4.69527 41.7705 6.24472C44.5363 5.276 46.5169 5.12638 47.1172 6.02156C48.4025 7.93618 42.8836 13.9058 34.7889 19.3567C26.6941 24.8064 19.0907 27.672 17.804 25.7574C17.2038 24.8622 18.089 23.082 20.0278 20.8834C17.1506 23.8478 15.731 26.3001 16.5009 27.4463C17.9345 29.5803 26.4092 26.3863 35.4309 20.3115C44.4527 14.2367 50.6048 7.58369 49.1712 5.44971Z" fill="white"/>
<path d="M44.4198 9.38927C44.6871 9.04184 44.9568 8.68808 45.2278 8.32544C45.2278 8.32544 28.8572 18.4387 22.239 6.05833C22.239 6.05833 21.0968 9.60355 25.3734 13.5558C30.4566 18.2536 19.0642 25.1285 19.0642 25.1285C19.0642 25.1285 20.8131 24.9091 22.9609 24.1382C26.0407 22.9831 29.9805 20.8986 34.0443 18.1623C38.5375 15.1369 42.2366 11.9518 44.4198 9.388" fill="#06C106"/>
<path d="M27.4351 38.9594V26.5651C25.015 27.7227 22.8647 28.5241 21.1753 28.8969V42.9611C22.5924 42.3715 23.9462 41.4687 25.2214 40.2604C25.4114 40.0651 26.1256 39.4057 27.4363 38.9607" fill="white"/>
<path d="M34.7357 39.4387C34.7458 39.4425 35.569 39.757 36.7176 39.9383V21.1598C36.6302 21.2194 36.5441 21.2777 36.4554 21.3373C34.4026 22.7194 32.3777 23.9531 30.4565 25.008V38.5385C31.7837 38.5765 33.2135 38.877 34.7129 39.4298L34.7357 39.4387Z" fill="white"/>
<path d="M42.6887 38.8136L42.2328 41.0135C42.0681 41.806 41.5692 42.9332 40.6131 43.8994C42.172 43.1095 43.9665 41.8985 45.999 40.0879V13.7105C44.297 15.3829 42.1695 17.1923 39.7393 19.0093V39.9091C40.0445 39.8432 40.3332 39.757 40.6055 39.6479L42.6887 38.8136Z" fill="white"/>
<path d="M74.4377 44.1638V45.5836H76.3426V46.4847H74.4377V47.9867H76.586V48.912H73.3027V43.2385H76.586V44.1638H74.4377Z" fill="#06C106"/>
<path d="M81.1613 43.5956C81.6127 43.8279 81.9609 44.1595 82.2071 44.5903C82.4534 45.021 82.5765 45.5198 82.5765 46.088C82.5765 46.6562 82.4534 47.1521 82.2071 47.5772C81.9609 48.0023 81.6127 48.3311 81.1613 48.5634C80.7098 48.7958 80.1862 48.912 79.5932 48.912H77.6147V43.247H79.5932C80.1876 43.247 80.7098 43.3632 81.1613 43.5956ZM80.9306 47.4596C81.2547 47.1351 81.4174 46.6775 81.4174 46.088C81.4174 45.4985 81.2547 45.0366 80.9306 44.7036C80.6065 44.3706 80.1466 44.2048 79.5522 44.2048H78.7497V47.9471H79.5522C80.1466 47.9471 80.6065 47.7841 80.9306 47.4596Z" fill="#06C106"/>
<path d="M84.5452 43.247V46.7526C84.5452 47.1366 84.6457 47.4299 84.8452 47.6325C85.0448 47.8351 85.3264 47.9371 85.6887 47.9371C86.051 47.9371 86.3397 47.8351 86.5392 47.6325C86.7388 47.4299 86.8393 47.1366 86.8393 46.7526V43.247H87.9828V46.7455C87.9828 47.2272 87.8794 47.6339 87.6714 47.9669C87.4634 48.2999 87.1846 48.5493 86.8364 48.7179C86.4883 48.8851 86.1005 48.9701 85.6731 48.9701C85.2457 48.9701 84.8693 48.8865 84.5268 48.7179C84.1829 48.5507 83.9112 48.2999 83.7117 47.9669C83.5121 47.6339 83.4116 47.2272 83.4116 46.7455V43.247H84.5466H84.5452Z" fill="#06C106"/>
<path d="M89.1784 44.5733C89.4304 44.1326 89.7728 43.7883 90.2073 43.5431C90.6418 43.2966 91.13 43.1733 91.6706 43.1733C92.3032 43.1733 92.8566 43.3362 93.3321 43.6607C93.8076 43.9852 94.1402 44.4344 94.3298 45.0083H93.025C92.8948 44.7376 92.7136 44.535 92.4773 44.399C92.2424 44.2644 91.9707 44.1963 91.6621 44.1963C91.3324 44.1963 91.0394 44.2729 90.7819 44.4273C90.5257 44.5818 90.3248 44.8 90.1818 45.0805C90.0389 45.3625 89.9667 45.6927 89.9667 46.071C89.9667 46.4493 90.0389 46.7724 90.1818 47.0572C90.3248 47.3406 90.5243 47.5602 90.7819 47.7147C91.038 47.8691 91.331 47.9456 91.6621 47.9456C91.9707 47.9456 92.241 47.8762 92.4773 47.7388C92.7122 47.6013 92.8948 47.3973 93.025 47.1266H94.3298C94.1402 47.7062 93.809 48.1568 93.3363 48.4784C92.8637 48.8001 92.3089 48.9616 91.6706 48.9616C91.13 48.9616 90.6418 48.8383 90.2073 48.5918C89.7728 48.3452 89.4289 48.0037 89.1784 47.5645C88.928 47.1266 88.802 46.6279 88.802 46.071C88.802 45.5141 88.928 45.0139 89.1784 44.5733Z" fill="#06C106"/>
<path d="M98.7721 47.8323H96.5191L96.1469 48.912H94.9553L96.9904 43.2385H98.3122L100.347 48.912H99.1472L98.7736 47.8323H98.7721ZM98.4636 46.9226L97.6456 44.552L96.8262 46.9226H98.4636Z" fill="#06C106"/>
<path d="M104.957 43.247V44.1638H103.45V48.912H102.315V44.1638H100.807V43.247H104.957Z" fill="#06C106"/>
<path d="M106.92 43.247H105.785V48.912H106.92V43.247Z" fill="#06C106"/>
<path d="M109.205 48.5946C108.762 48.3452 108.411 48.0009 108.151 47.5602C107.892 47.1195 107.762 46.6208 107.762 46.0625C107.762 45.5042 107.892 45.0139 108.151 44.5732C108.41 44.1326 108.761 43.7868 109.205 43.5389C109.648 43.2895 110.135 43.1662 110.664 43.1662C111.194 43.1662 111.688 43.2909 112.128 43.5389C112.568 43.7882 112.916 44.1326 113.173 44.5732C113.43 45.0139 113.558 45.5113 113.558 46.0625C113.558 46.6137 113.43 47.1195 113.173 47.5602C112.917 48.0009 112.566 48.3466 112.123 48.5946C111.68 48.844 111.194 48.9673 110.664 48.9673C110.135 48.9673 109.648 48.8426 109.205 48.5946ZM111.564 47.7218C111.823 47.5673 112.026 47.3477 112.173 47.06C112.319 46.7738 112.392 46.4408 112.392 46.0611C112.392 45.6813 112.319 45.3512 112.173 45.0664C112.027 44.783 111.825 44.5647 111.564 44.4131C111.304 44.2615 111.005 44.1864 110.664 44.1864C110.323 44.1864 110.022 44.2629 109.76 44.4131C109.498 44.5647 109.294 44.783 109.149 45.0664C109.003 45.3497 108.929 45.6813 108.929 46.0611C108.929 46.4408 109.001 46.7724 109.149 47.06C109.294 47.3463 109.498 47.5673 109.76 47.7218C110.022 47.8762 110.323 47.9527 110.664 47.9527C111.005 47.9527 111.304 47.8762 111.564 47.7218Z" fill="#06C106"/>
<path d="M119.24 48.912H118.105L115.535 45.0239V48.912H114.402V43.2385H115.535L118.105 47.1337V43.2385H119.24V48.912Z" fill="#06C106"/>
<path d="M125.742 45.5354H122.304V46.4932H125.742V45.5354Z" fill="#06C106"/>
<path d="M129.045 44.5733C129.297 44.1326 129.64 43.7883 130.074 43.5431C130.508 43.2966 130.997 43.1733 131.537 43.1733C132.17 43.1733 132.723 43.3362 133.199 43.6607C133.674 43.9852 134.007 44.4344 134.197 45.0083H132.892C132.761 44.7376 132.58 44.535 132.344 44.399C132.109 44.2644 131.837 44.1963 131.529 44.1963C131.199 44.1963 130.906 44.2729 130.649 44.4273C130.392 44.5818 130.191 44.8 130.049 45.0805C129.906 45.3625 129.833 45.6927 129.833 46.071C129.833 46.4493 129.906 46.7724 130.049 47.0572C130.191 47.3406 130.391 47.5602 130.649 47.7147C130.905 47.8691 131.198 47.9456 131.529 47.9456C131.837 47.9456 132.108 47.8762 132.344 47.7388C132.579 47.6013 132.761 47.3973 132.892 47.1266H134.197C134.007 47.7062 133.676 48.1568 133.203 48.4784C132.73 48.8001 132.176 48.9616 131.537 48.9616C130.997 48.9616 130.508 48.8383 130.074 48.5918C129.64 48.3452 129.296 48.0037 129.045 47.5645C128.795 47.1266 128.669 46.6279 128.669 46.071C128.669 45.5141 128.795 45.0139 129.045 44.5733Z" fill="#06C106"/>
<path d="M136.305 43.247H135.17V48.912H136.305V43.247Z" fill="#06C106"/>
<path d="M141.274 43.247V44.1638H139.765V48.912H138.63V44.1638H137.123V43.247H141.274Z" fill="#06C106"/>
<path d="M143.235 43.247H142.1V48.912H143.235V43.247Z" fill="#06C106"/>
<path d="M145.512 47.9541H148.058V48.912H144.199V48.0349L146.729 44.2048H144.199V43.247H148.058V44.1227L145.512 47.9541Z" fill="#06C106"/>
<path d="M150.158 44.1638V45.5836H152.063V46.4847H150.158V47.9867H152.307V48.912H149.023V43.2385H152.307V44.1638H150.158Z" fill="#06C106"/>
<path d="M158.176 48.912H157.041L154.471 45.0239V48.912H153.336V43.2385H154.471L157.041 47.1337V43.2385H158.176V48.912Z" fill="#06C106"/>
<path d="M160.181 48.7661C159.864 48.6315 159.615 48.4359 159.431 48.1823C159.247 47.9272 159.152 47.6282 159.148 47.2811H160.364C160.379 47.5135 160.463 47.6977 160.611 47.8337C160.76 47.9683 160.964 48.0363 161.223 48.0363C161.482 48.0363 161.695 47.9726 161.847 47.845C161.998 47.7175 162.073 47.5517 162.073 47.3463C162.073 47.1791 162.022 47.0402 161.919 46.9325C161.816 46.8248 161.688 46.7384 161.534 46.6775C161.38 46.6151 161.167 46.5457 160.897 46.4706C160.529 46.3629 160.231 46.2552 160.001 46.1503C159.772 46.0455 159.574 45.8854 159.41 45.6714C159.244 45.4574 159.162 45.1726 159.162 44.8156C159.162 44.4797 159.246 44.1878 159.414 43.9385C159.581 43.6891 159.816 43.4992 160.119 43.366C160.422 43.2342 160.767 43.1676 161.156 43.1676C161.739 43.1676 162.213 43.3093 162.578 43.5941C162.944 43.8775 163.145 44.2743 163.183 44.783H161.935C161.923 44.5888 161.841 44.4273 161.687 44.2998C161.533 44.1723 161.329 44.1085 161.075 44.1085C160.853 44.1085 160.676 44.1652 160.545 44.2785C160.412 44.3919 160.347 44.5577 160.347 44.7731C160.347 44.9247 160.396 45.0508 160.497 45.15C160.597 45.2492 160.72 45.3313 160.87 45.3937C161.019 45.456 161.228 45.5283 161.499 45.6091C161.867 45.7168 162.165 45.8259 162.399 45.9336C162.631 46.0412 162.832 46.2042 162.999 46.421C163.166 46.6378 163.249 46.9212 163.249 47.2726C163.249 47.5758 163.171 47.8564 163.014 48.1171C162.857 48.3764 162.628 48.5833 162.325 48.7377C162.022 48.8922 161.663 48.9687 161.247 48.9687C160.852 48.9687 160.497 48.9007 160.181 48.7661Z" fill="#06C106"/>
<path d="M168.924 43.247V48.912H167.789V46.5018H165.365V48.912H164.23V43.247H165.365V45.5765H167.789V43.247H168.924Z" fill="#06C106"/>
<path d="M171.177 43.247H170.042V48.912H171.177V43.247Z" fill="#06C106"/>
<path d="M176.208 45.8514C176.065 46.1163 175.84 46.3303 175.536 46.4933C175.23 46.6562 174.845 46.737 174.381 46.737H173.433V48.912H172.298V43.247H174.381C174.819 43.247 175.192 43.3235 175.499 43.4737C175.808 43.6253 176.038 43.8336 176.193 44.0986C176.347 44.3635 176.423 44.6639 176.423 44.9998C176.423 45.303 176.351 45.5864 176.208 45.8514ZM175.029 45.6034C175.181 45.4603 175.256 45.2591 175.256 44.9984C175.256 44.4457 174.947 44.1708 174.332 44.1708H173.432V45.8188H174.332C174.646 45.8188 174.878 45.7465 175.029 45.6034Z" fill="#06C106"/>
<path d="M182.608 45.5354H179.17V46.4932H182.608V45.5354Z" fill="#06C106"/>
<path d="M188.727 48.912L187.479 46.7044H186.944V48.912H185.809V43.247H187.933C188.371 43.247 188.744 43.3235 189.051 43.4779C189.36 43.6324 189.591 43.8407 189.745 44.1028C189.899 44.365 189.975 44.6583 189.975 44.9828C189.975 45.3554 189.866 45.6927 189.651 45.9931C189.435 46.2935 189.114 46.5003 188.686 46.6137L190.041 48.9106H188.727V48.912ZM186.944 45.8528H187.892C188.201 45.8528 188.43 45.7791 188.581 45.6289C188.733 45.4801 188.808 45.2732 188.808 45.0083C188.808 44.7433 188.732 44.5463 188.581 44.4032C188.43 44.2601 188.201 44.1878 187.892 44.1878H186.944V45.8514V45.8528Z" fill="#06C106"/>
<path d="M192.141 44.1638V45.5836H194.045V46.4847H192.141V47.9867H194.289V48.912H191.006V43.2385H194.289V44.1638H192.141Z" fill="#06C106"/>
<path d="M196.205 48.7661C195.888 48.6315 195.639 48.4359 195.455 48.1823C195.271 47.9272 195.176 47.6282 195.172 47.2811H196.388C196.403 47.5135 196.487 47.6977 196.635 47.8337C196.784 47.9683 196.988 48.0363 197.247 48.0363C197.506 48.0363 197.719 47.9726 197.871 47.845C198.022 47.7175 198.097 47.5517 198.097 47.3463C198.097 47.1791 198.046 47.0402 197.943 46.9325C197.84 46.8248 197.712 46.7384 197.558 46.6775C197.404 46.6151 197.192 46.5457 196.921 46.4706C196.553 46.3629 196.255 46.2552 196.025 46.1503C195.796 46.0455 195.598 45.8854 195.434 45.6714C195.268 45.4574 195.186 45.1726 195.186 44.8156C195.186 44.4797 195.27 44.1878 195.438 43.9385C195.605 43.6891 195.84 43.4992 196.143 43.366C196.446 43.2342 196.791 43.1676 197.18 43.1676C197.763 43.1676 198.237 43.3093 198.603 43.5941C198.968 43.8789 199.169 44.2743 199.207 44.783H197.959C197.947 44.5888 197.865 44.4273 197.711 44.2998C197.557 44.1723 197.353 44.1085 197.1 44.1085C196.877 44.1085 196.701 44.1652 196.569 44.2785C196.436 44.3919 196.371 44.5577 196.371 44.7731C196.371 44.9247 196.42 45.0508 196.521 45.15C196.621 45.2506 196.744 45.3313 196.894 45.3937C197.043 45.456 197.252 45.5283 197.523 45.6091C197.891 45.7168 198.189 45.8259 198.423 45.9336C198.655 46.0412 198.856 46.2042 199.023 46.421C199.19 46.6378 199.273 46.9212 199.273 47.2726C199.273 47.5758 199.196 47.8564 199.038 48.1171C198.881 48.3764 198.652 48.5833 198.349 48.7377C198.046 48.8922 197.687 48.9687 197.271 48.9687C196.876 48.9687 196.521 48.9007 196.205 48.7661Z" fill="#06C106"/>
<path d="M201.391 43.247H200.256V48.912H201.391V43.247Z" fill="#06C106"/>
<path d="M206.055 43.5956C206.507 43.8279 206.855 44.1595 207.101 44.5903C207.347 45.021 207.469 45.5198 207.469 46.088C207.469 46.6562 207.346 47.1521 207.101 47.5772C206.855 48.0023 206.507 48.3311 206.055 48.5634C205.604 48.7958 205.081 48.912 204.487 48.912H202.509V43.247H204.487C205.081 43.247 205.604 43.3632 206.055 43.5956ZM205.824 47.4596C206.148 47.1351 206.311 46.6775 206.311 46.088C206.311 45.4985 206.148 45.0366 205.824 44.7036C205.5 44.3706 205.04 44.2048 204.446 44.2048H203.644V47.9471H204.446C205.04 47.9471 205.5 47.7841 205.824 47.4596Z" fill="#06C106"/>
<path d="M209.456 44.1638V45.5836H211.361V46.4847H209.456V47.9867H211.604V48.912H208.321V43.2385H211.604V44.1638H209.456Z" fill="#06C106"/>
<path d="M217.473 48.912H216.338L213.768 45.0239V48.912H212.633V43.2385H213.768L216.338 47.1337V43.2385H217.473V48.912Z" fill="#06C106"/>
<path d="M218.693 44.5733C218.944 44.1326 219.287 43.7883 219.722 43.5431C220.156 43.2966 220.645 43.1733 221.185 43.1733C221.818 43.1733 222.371 43.3362 222.847 43.6607C223.322 43.9852 223.655 44.4344 223.843 45.0083H222.538C222.408 44.7376 222.225 44.535 221.99 44.399C221.756 44.2644 221.484 44.1963 221.175 44.1963C220.846 44.1963 220.553 44.2729 220.295 44.4273C220.039 44.5818 219.838 44.8 219.695 45.0805C219.552 45.3625 219.48 45.6927 219.48 46.071C219.48 46.4493 219.552 46.7724 219.695 47.0572C219.838 47.3406 220.039 47.5602 220.295 47.7147C220.551 47.8691 220.846 47.9456 221.175 47.9456C221.484 47.9456 221.754 47.8762 221.99 47.7388C222.225 47.6013 222.408 47.3973 222.538 47.1266H223.843C223.653 47.7062 223.324 48.1568 222.85 48.4784C222.377 48.8001 221.822 48.9616 221.184 48.9616C220.643 48.9616 220.155 48.8383 219.72 48.5918C219.286 48.3452 218.942 48.0037 218.692 47.5645C218.44 47.1266 218.315 46.6279 218.315 46.071C218.315 45.5141 218.441 45.0139 218.692 44.5733" fill="#06C106"/>
<path d="M229.315 43.247L227.404 46.9396V48.912H226.269V46.9396L224.347 43.247H225.627L226.843 45.8358L228.052 43.247H229.315Z" fill="#06C106"/>
<path d="M235.356 45.5354H231.918V46.4932H235.356V45.5354Z" fill="#06C106"/>
<path d="M239.692 43.247H238.557V48.912H239.692V43.247Z" fill="#06C106"/>
<path d="M246.98 43.247V48.912H245.845V45.2265L244.329 48.912H243.47L241.946 45.2265V48.912H240.811V43.247H242.101L243.899 47.4596L245.699 43.247H246.98Z" fill="#06C106"/>
<path d="M254.267 43.247V48.912H253.132V45.2265L251.616 48.912H250.757L249.233 45.2265V48.912H248.098V43.247H249.387L251.188 47.4596L252.986 43.247H254.267Z" fill="#06C106"/>
<path d="M256.521 43.247H255.386V48.912H256.521V43.247Z" fill="#06C106"/>
<path d="M261.579 44.9516C261.449 44.7135 261.271 44.5322 261.044 44.4075C260.818 44.2828 260.552 44.2204 260.251 44.2204C259.915 44.2204 259.618 44.297 259.359 44.4472C259.1 44.5988 258.898 44.8156 258.75 45.0961C258.605 45.3781 258.531 45.7026 258.531 46.0696C258.531 46.4366 258.605 46.7781 258.755 47.06C258.903 47.342 259.11 47.5574 259.375 47.709C259.639 47.8606 259.948 47.9357 260.299 47.9357C260.732 47.9357 261.086 47.821 261.36 47.5914C261.636 47.3619 261.817 47.0402 261.904 46.6293H259.958V45.7607H263.022V46.7511C262.947 47.1465 262.784 47.5121 262.535 47.8465C262.286 48.1823 261.966 48.4515 261.574 48.6541C261.182 48.8568 260.743 48.9588 260.256 48.9588C259.71 48.9588 259.217 48.8355 258.777 48.589C258.337 48.3424 257.99 48.0009 257.74 47.5616C257.488 47.1238 257.364 46.625 257.364 46.0682C257.364 45.5113 257.489 45.0111 257.74 44.5704C257.99 44.1298 258.337 43.7854 258.777 43.5403C259.217 43.2937 259.709 43.1705 260.249 43.1705C260.886 43.1705 261.441 43.3263 261.911 43.6366C262.38 43.9484 262.705 44.3848 262.883 44.9473H261.578L261.579 44.9516Z" fill="#06C106"/>
<path d="M266.783 48.912L265.535 46.7044H265V48.912H263.865V43.247H265.989C266.427 43.247 266.8 43.3235 267.107 43.4779C267.414 43.6324 267.646 43.8407 267.801 44.1028C267.955 44.365 268.031 44.6583 268.031 44.9828C268.031 45.3554 267.922 45.6927 267.707 45.9931C267.491 46.2935 267.169 46.5003 266.742 46.6137L268.096 48.9106H266.783V48.912ZM265 45.8528H265.948C266.257 45.8528 266.486 45.7791 266.637 45.6289C266.789 45.4801 266.864 45.2732 266.864 45.0083C266.864 44.7433 266.787 44.5463 266.637 44.4032C266.486 44.2601 266.257 44.1878 265.948 44.1878H265V45.8514V45.8528Z" fill="#06C106"/>
<path d="M272.53 47.8323H270.277L269.905 48.912H268.713L270.748 43.2385H272.07L274.105 48.912H272.905L272.532 47.8323H272.53ZM272.222 46.9226L271.404 44.552L270.584 46.9226H272.222Z" fill="#06C106"/>
<path d="M278.716 43.247V44.1638H277.208V48.912H276.073V44.1638H274.565V43.247H278.716Z" fill="#06C106"/>
<path d="M280.678 43.247H279.543V48.912H280.678V43.247Z" fill="#06C106"/>
<path d="M282.963 48.5946C282.52 48.3452 282.169 48.0009 281.909 47.5602C281.65 47.1195 281.52 46.6208 281.52 46.0625C281.52 45.5042 281.65 45.0139 281.909 44.5732C282.168 44.1326 282.519 43.7868 282.963 43.5389C283.406 43.2895 283.893 43.1662 284.422 43.1662C284.952 43.1662 285.446 43.2909 285.886 43.5389C286.326 43.7882 286.674 44.1326 286.932 44.5732C287.188 45.0139 287.316 45.5113 287.316 46.0625C287.316 46.6137 287.188 47.1195 286.932 47.5602C286.675 48.0009 286.324 48.3466 285.881 48.5946C285.439 48.844 284.952 48.9673 284.422 48.9673C283.893 48.9673 283.406 48.8426 282.963 48.5946ZM285.322 47.7218C285.581 47.5673 285.784 47.3477 285.931 47.06C286.077 46.7738 286.15 46.4408 286.15 46.0611C286.15 45.6813 286.077 45.3512 285.931 45.0664C285.785 44.783 285.583 44.5647 285.322 44.4131C285.062 44.2615 284.763 44.1864 284.422 44.1864C284.081 44.1864 283.78 44.2629 283.518 44.4131C283.256 44.5647 283.052 44.783 282.907 45.0664C282.761 45.3497 282.687 45.6813 282.687 46.0611C282.687 46.4408 282.76 46.7724 282.907 47.06C283.052 47.3463 283.256 47.5673 283.518 47.7218C283.78 47.8762 284.081 47.9527 284.422 47.9527C284.763 47.9527 285.062 47.8762 285.322 47.7218Z" fill="#06C106"/>
<path d="M293 48.912H291.865L289.295 45.0239V48.912H288.16V43.2385H289.295L291.865 47.1337V43.2385H293V48.912Z" fill="#06C106"/>
<path d="M102.23 12.3117L97.333 32.291H90.5117L87.7662 20.0484L84.9641 32.291H78.1428L73.3027 12.3117H79.3032L81.6242 25.9713L84.7659 12.3117H90.8513L93.9082 25.858L96.2291 12.3117H102.23Z" fill="white"/>
<path d="M108.994 31.1716C107.428 30.2931 106.188 29.0745 105.272 27.5158C104.357 25.9571 103.9 24.1959 103.9 22.2305C103.9 20.2652 104.357 18.5039 105.272 16.9452C106.188 15.3866 107.428 14.1722 108.994 13.3036C110.561 12.435 112.278 12 114.146 12C116.014 12 117.755 12.435 119.311 13.3036C120.868 14.1722 122.099 15.3866 123.005 16.9452C123.911 18.5039 124.364 20.2652 124.364 22.2305C124.364 24.1959 123.911 25.9571 123.005 27.5158C122.099 29.0745 120.864 30.2931 119.297 31.1716C117.731 32.0501 116.014 32.4894 114.146 32.4894C112.278 32.4894 110.561 32.0501 108.994 31.1716ZM117.5 25.943C118.321 25.0177 118.731 23.7793 118.731 22.2305C118.731 20.6818 118.321 19.3923 117.5 18.4755C116.679 17.5588 115.561 17.1011 114.146 17.1011C112.731 17.1011 111.588 17.5588 110.778 18.4755C109.967 19.3923 109.56 20.6435 109.56 22.2305C109.56 23.8175 109.967 25.0404 110.778 25.9571C111.588 26.8739 112.712 27.3316 114.146 27.3316C115.579 27.3316 116.679 26.8683 117.5 25.943Z" fill="white"/>
<path d="M136.959 32.2924L132.996 24.9242H132.402V32.2924H126.854V12.3131H135.6C137.204 12.3131 138.562 12.5923 139.676 13.1492C140.79 13.706 141.629 14.4712 142.195 15.4446C142.761 16.4181 143.044 17.5092 143.044 18.7178C143.044 20.0781 142.671 21.2726 141.926 22.3028C141.18 23.3329 140.091 24.0641 138.657 24.4991L143.157 32.2924H136.959ZM132.402 21.1267H135.147C135.902 21.1267 136.468 20.9467 136.846 20.5882C137.223 20.2297 137.412 19.7097 137.412 19.0296C137.412 18.3877 137.218 17.8818 136.831 17.5134C136.445 17.145 135.883 16.9608 135.147 16.9608H132.402V21.1267Z" fill="white"/>
<path d="M151.111 28.0401H157.309V32.291H145.563V12.3117H151.111V28.0401Z" fill="white"/>
<path d="M172.863 13.5728C174.438 14.4131 175.651 15.5892 176.5 17.1011C177.349 18.613 177.774 20.3417 177.774 22.2872C177.774 24.2327 177.343 25.9331 176.486 27.445C175.627 28.9569 174.41 30.1414 172.834 31.0015C171.258 31.8616 169.434 32.291 167.358 32.291H159.461V12.3117H167.358C169.452 12.3117 171.288 12.7326 172.863 13.5728ZM170.754 26.0563C171.678 25.1679 172.141 23.9125 172.141 22.2872C172.141 20.6619 171.678 19.3725 170.754 18.4755C169.829 17.5786 168.555 17.1294 166.933 17.1294H165.008V27.3883H166.933C168.555 27.3883 169.829 26.9448 170.754 26.0563Z" fill="white"/>
<path d="M186.222 17.0019C187.043 15.4616 188.208 14.2629 189.718 13.4028C191.228 12.5427 192.963 12.1133 194.926 12.1133C197.417 12.1133 199.511 12.7793 201.21 14.1113C202.908 15.4432 204.002 17.2527 204.493 19.5383H198.521C198.163 18.783 197.667 18.2063 197.035 17.8096C196.402 17.4128 195.672 17.2144 194.841 17.2144C193.557 17.2144 192.534 17.6721 191.77 18.5889C191.006 19.5057 190.624 20.7285 190.624 22.2588C190.624 23.7892 191.006 25.0403 191.77 25.9571C192.534 26.8739 193.557 27.3316 194.841 27.3316C195.672 27.3316 196.402 27.1332 197.035 26.7365C197.667 26.3397 198.163 25.763 198.521 25.0078H204.493C204.002 27.2933 202.908 29.1028 201.21 30.4347C199.511 31.7667 197.417 32.4327 194.926 32.4327C192.963 32.4327 191.228 32.0033 189.718 31.1432C188.208 30.2831 187.043 29.0844 186.222 27.5441C185.402 26.0039 184.991 24.2426 184.991 22.2588C184.991 20.2751 185.402 18.5421 186.222 17.0019Z" fill="white"/>
<path d="M212.673 12.3117H207.125V32.291H212.673V12.3117Z" fill="white"/>
<path d="M230.872 12.3117V16.7327H225.55V32.291H220.003V16.7327H214.739V12.3117H230.872Z" fill="white"/>
<path d="M238.486 12.3117H232.938V32.291H238.486V12.3117Z" fill="white"/>
<path d="M247.713 27.785H256.006V32.2924H241.486V28.0684L249.695 16.7893H241.486V12.3131H256.006V16.5343L247.713 27.785Z" fill="white"/>
<path d="M264.554 16.761V20.02H270.923V24.2426H264.554V27.8417H271.772V32.291H259.007V12.3117H271.772V16.761H264.554Z" fill="white"/>
<path d="M293 32.291H287.452L280.065 21.1253V32.291H274.516V12.3117H280.065L287.452 23.6191V12.3117H293V32.291Z" fill="white"/>
</svg>
