<svg width="34" height="44" viewBox="0 0 34 44" fill="none" xmlns="http://www.w3.org/2000/svg">
<path d="M32.9123 6.03646C33.4423 3.76265 32.0286 1.48973 29.7548 0.959765C27.481 0.429796 25.2081 1.84346 24.6781 4.11727C24.1481 6.39109 25.5618 8.664 27.8356 9.19397C30.1094 9.72394 32.3823 8.31028 32.9123 6.03646Z" fill="#03038C"/>
<path d="M27.1336 21.5016C25.7249 20.4541 24.9078 19.2641 24.4686 18.4403C23.6423 16.912 23.2014 15.1278 23.1943 13.2822C23.1947 12.8522 23.221 12.5666 23.2319 12.4639C23.3407 11.5121 24.1424 10.7957 25.0971 10.7957C25.1683 10.7957 25.2399 10.7997 25.3122 10.8079C26.3415 10.9246 27.0838 11.8577 26.9668 12.8874C26.9648 12.9086 26.9633 12.9298 26.9621 12.9511C26.9559 13.0608 26.9529 13.1706 26.953 13.2805C26.9506 13.7088 27.0027 15.1848 27.7273 16.5595C27.9021 15.6394 28.0859 14.773 28.2362 14.0055C28.7754 12.1353 28.0699 9.89666 26.4659 9.49675C25.5458 9.26729 24.3886 9.45728 23.3903 10.1791C22.6205 10.5911 21.5948 11.2334 20.5122 12.1759C18.3521 14.0497 15.9745 17.1795 15.1639 21.9092C15.1257 22.1297 15.1373 22.3559 15.1978 22.5713C15.2583 22.7868 15.3662 22.9859 15.5137 23.1543L13.51 27.9139L6.89901 25.1309C6.71706 25.0543 6.52179 25.0143 6.32437 25.0131C6.12694 25.012 5.93123 25.0498 5.74841 25.1243C5.56558 25.1988 5.39923 25.3086 5.25886 25.4474C5.11848 25.5863 5.00682 25.7514 4.93027 25.9333L0.117799 37.365C0.0411813 37.547 0.00116144 37.7423 2.49074e-05 37.9397C-0.00111162 38.1372 0.0366574 38.3329 0.111175 38.5157C0.185692 38.6986 0.295498 38.8649 0.434322 39.0053C0.573145 39.1457 0.738266 39.2574 0.920253 39.334L7.90988 42.2766C8.14911 43.2649 9.03745 43.9999 10.0992 43.9999C11.3446 43.9999 12.3544 42.9901 12.3544 41.7447C12.3544 41.2335 12.1822 40.7639 11.8958 40.3858L16.0154 30.6002C16.092 30.4182 16.1321 30.2229 16.1332 30.0255C16.1343 29.828 16.0966 29.6323 16.0221 29.4494C15.9475 29.2666 15.8377 29.1002 15.6989 28.9598C15.5601 28.8193 15.395 28.7077 15.213 28.6311L14.6067 28.376L16.5892 23.6667C16.6085 23.6675 16.6277 23.6692 16.6467 23.6692C17.0009 23.6687 17.3435 23.5432 17.6143 23.3149C17.8851 23.0867 18.0667 22.7702 18.1272 22.4212C18.5675 19.8928 19.5013 17.9789 20.5738 16.5232C20.2126 18.5613 20.2151 20.5173 20.5221 23.1537C20.811 24.6398 21.4586 25.4701 22.2468 25.9287C22.4044 26.8658 22.4841 27.8144 22.485 28.7647C22.4854 30.4109 22.2381 32.284 21.4909 34.1466C20.7399 36.0108 19.5086 37.8805 17.4082 39.6144C16.4061 40.4388 16.2622 41.9189 17.087 42.9208C17.3074 43.189 17.5845 43.4049 17.8984 43.5531C18.2124 43.7012 18.5553 43.7778 18.9024 43.7774C19.4276 43.7774 19.9561 43.602 20.3934 43.2421V43.2418C23.1041 41.0159 24.8392 38.4323 25.8522 35.8939C26.1828 35.0672 26.4519 34.2172 26.6574 33.3509C27.3742 35.6459 27.9632 38.3977 28.2101 41.6083C28.3095 42.9016 29.439 43.8696 30.7325 43.7704C32.0264 43.6708 32.9938 42.5415 32.8948 41.248C32.207 32.3154 29.1328 26.4084 27.2304 23.5384C27.1472 22.8763 27.1205 22.1928 27.1336 21.5016ZM10.0991 42.8723C9.95096 42.8723 9.80431 42.8431 9.6675 42.7864C9.53068 42.7297 9.40637 42.6466 9.30167 42.5418C9.19696 42.4371 9.11391 42.3128 9.05726 42.1759C9.00061 42.0391 8.97146 41.8924 8.97149 41.7443C8.97151 41.5962 9.0007 41.4496 9.0574 41.3128C9.1141 41.176 9.19719 41.0517 9.30193 40.9469C9.40667 40.8422 9.53101 40.7592 9.66784 40.7025C9.80468 40.6459 9.95133 40.6167 10.0994 40.6168C10.3985 40.6168 10.6854 40.7357 10.8968 40.9472C11.1083 41.1587 11.2271 41.4456 11.227 41.7447C11.227 42.0438 11.1081 42.3306 10.8966 42.5421C10.685 42.7536 10.3982 42.8723 10.0991 42.8723Z" fill="#03038C"/>
<path d="M26.5871 12.927C26.5895 12.8891 26.5912 12.8626 26.5931 12.8483V12.8445C26.6155 12.6484 26.599 12.4497 26.5446 12.2599C26.4902 12.0701 26.3989 11.8929 26.276 11.7384C26.1531 11.5838 26.001 11.4551 25.8283 11.3594C25.6556 11.2637 25.4657 11.2029 25.2695 11.1806C25.0733 11.1582 24.8747 11.1746 24.6849 11.229C24.4951 11.2834 24.3179 11.3747 24.1633 11.4976C24.0088 11.6205 23.88 11.7726 23.7843 11.9453C23.6886 12.118 23.6279 12.3078 23.6056 12.504C23.6005 12.551 23.5703 12.8314 23.5701 13.28C23.574 14.313 23.7178 16.2611 24.8004 18.2629C25.8686 20.2672 27.993 22.2442 31.4627 23.0336C31.5752 23.06 31.6903 23.0734 31.8058 23.0735C32.145 23.0731 32.474 22.958 32.7395 22.7471C33.005 22.5361 33.1914 22.2416 33.2685 21.9113C33.3134 21.7191 33.3199 21.52 33.2878 21.3252C33.2557 21.1304 33.1856 20.9439 33.0814 20.7763C32.9772 20.6087 32.841 20.4632 32.6805 20.3482C32.5201 20.2332 32.3386 20.1509 32.1464 20.1061C29.4342 19.4523 28.1933 18.165 27.4412 16.8254C26.7038 15.4831 26.5732 14.008 26.5769 13.2802C26.5771 13.1231 26.5822 13.0026 26.5871 12.927Z" fill="#03038C"/>
</svg>
