<svg width="42" height="44" viewBox="0 0 42 44" fill="none" xmlns="http://www.w3.org/2000/svg">
<path d="M23.1512 41.5008C22.6929 41.3387 22.2959 41.0387 22.0147 40.6419C21.7335 40.2451 21.5818 39.771 21.5804 39.2846V38.4987H5.0886C4.8803 38.4987 4.68053 38.4159 4.53324 38.2685C4.38595 38.1211 4.3032 37.9212 4.3032 37.7128C4.3032 37.5043 4.38595 37.3044 4.53324 37.157C4.68053 37.0097 4.8803 36.9269 5.0886 36.9269H22.0045C22.2789 36.4485 22.6747 36.0513 23.1519 35.7753C23.6292 35.4995 24.1708 35.3547 24.722 35.3558H27.1803C27.2839 34.9519 27.4673 34.5727 27.7195 34.2407C27.9717 33.9087 28.2877 33.6305 28.649 33.4225V29.2651C27.9231 28.6738 27.3373 27.9286 26.9341 27.0833C26.5308 26.2381 26.3201 25.3138 26.3171 24.3771C26.3141 23.4405 26.5189 22.5148 26.9167 21.667C27.3145 20.8191 27.8955 20.0702 28.6176 19.4743C28.7482 19.3653 28.8842 19.263 29.0252 19.1678V7.01061C29.0233 6.38587 28.7745 5.78726 28.333 5.34551C27.8916 4.90376 27.2933 4.65476 26.669 4.65289H25.5852V2.49322C25.5805 2.11912 25.4929 1.75073 25.3285 1.41469C25.1642 1.07864 24.9272 0.783356 24.6348 0.550192C24.3425 0.317027 24.0019 0.151813 23.6379 0.0665024C23.2738 -0.0188078 22.8954 -0.0220812 22.53 0.0569193L2.11272 4.67725C1.53563 4.73898 1.0014 5.01097 0.611793 5.44141C0.222184 5.87185 0.00442532 6.43066 0 7.01139V41.6423C0.00186461 42.267 0.250705 42.8656 0.692174 43.3074C1.13364 43.7491 1.73187 43.9981 2.3562 44H23.5753C23.196 43.2253 23.0487 42.3574 23.1512 41.5008ZM20.795 35.3558H8.23019C8.02189 35.3558 7.82212 35.273 7.67483 35.1256C7.52754 34.9783 7.4448 34.7784 7.4448 34.5699C7.4448 34.3615 7.52754 34.1616 7.67483 34.0142C7.82212 33.8668 8.02189 33.784 8.23019 33.784H20.795C21.0033 33.784 21.2031 33.8668 21.3504 34.0142C21.4977 34.1616 21.5804 34.3615 21.5804 34.5699C21.5804 34.7784 21.4977 34.9783 21.3504 35.1256C21.2031 35.273 21.0033 35.3558 20.795 35.3558ZM22.8685 1.58865C23.0048 1.55893 23.146 1.55977 23.282 1.5911C23.4179 1.62243 23.5453 1.68347 23.6549 1.76986C23.7645 1.85625 23.8536 1.96584 23.9159 2.09076C23.9782 2.21569 24.0121 2.35286 24.0151 2.49244V4.65368H9.31247L22.8685 1.58865ZM23.9366 20.213C23.9366 22.714 22.9437 25.1126 21.1764 26.8811C19.409 28.6496 17.012 29.6431 14.5126 29.6431C12.0132 29.6431 9.61617 28.6496 7.84882 26.8811C6.08148 25.1126 5.0886 22.714 5.0886 20.213C5.60853 7.70299 23.4182 7.70692 23.9366 20.213Z" fill="#06C106"/>
<path d="M18.3133 27.0811C19.4244 26.468 20.3701 25.5941 21.0692 24.5346C21.7683 23.475 22.1998 22.2615 22.3266 20.9982H20.0019C19.9579 23.1354 19.3772 25.2273 18.3133 27.0811ZM22.3266 19.4271C22.1977 18.1645 21.7653 16.9517 21.0665 15.8925C20.3676 14.8333 19.423 13.959 18.3133 13.3442C19.3761 15.1985 19.9567 17.29 20.0019 19.4271H22.3266ZM18.4311 20.999H15.2973V27.9063C16.9467 27.2147 18.2583 24.3862 18.4311 20.999ZM10.7114 27.0811C9.64749 25.2273 9.06679 23.1354 9.02278 20.9982H6.698C6.82487 22.2615 7.25638 23.475 7.95546 24.5346C8.65454 25.5941 9.60027 26.468 10.7114 27.0811ZM10.7114 13.345C9.60175 13.9597 8.6572 14.8339 7.95834 15.893C7.25948 16.952 6.82707 18.1646 6.698 19.4271H9.02278C9.06793 17.29 9.64855 15.1993 10.7114 13.345ZM13.7265 27.9063V20.9982H10.5936C10.7664 24.3854 12.0772 27.2147 13.7265 27.9063ZM13.7265 19.4271V12.519C12.078 13.2185 10.7664 16.0478 10.5936 19.4271H13.7265ZM15.2973 12.5198V19.4271H18.4311C18.2583 16.0478 16.9467 13.2193 15.2973 12.5198ZM40.4285 36.9269H36.5015V36.1418C36.5003 35.7253 36.3344 35.3262 36.0401 35.0317C35.7458 34.7372 35.3469 34.5712 34.9307 34.57V28.8171C34.9356 28.695 34.9704 28.576 35.0321 28.4705C35.0937 28.365 35.1803 28.2762 35.2842 28.212C36.0334 27.6852 36.6131 26.9515 36.9525 26.1006C37.292 25.2496 37.3765 24.3182 37.1958 23.4199C37.0151 22.5217 36.5769 21.6956 35.9348 21.0424C35.2927 20.3892 34.4744 19.9371 33.5798 19.7415C32.8884 19.5954 32.1731 19.6049 31.4858 19.7693C30.7985 19.9338 30.1563 20.2491 29.6057 20.6925C29.0373 21.1541 28.5842 21.7419 28.2822 22.4092C27.9802 23.0766 27.8376 23.8051 27.8658 24.5371C27.894 25.2691 28.0922 25.9845 28.4446 26.6266C28.7971 27.2687 29.2941 27.8198 29.8963 28.2364C29.9925 28.2986 30.0721 28.3834 30.1282 28.4834C30.1843 28.5833 30.2153 28.6955 30.2183 28.8101V34.5707C29.8027 34.5724 29.4045 34.7384 29.1106 35.0325C28.8166 35.3266 28.6508 35.725 28.6491 36.141V36.9269H24.7221C24.3059 36.9281 23.9071 37.0941 23.6128 37.3886C23.3185 37.6831 23.1526 38.0822 23.1513 38.4987V39.2846C23.1519 39.4928 23.2349 39.6924 23.382 39.8396C23.5292 39.9869 23.7286 40.0699 23.9367 40.0705H41.2147C41.4228 40.0699 41.6222 39.9869 41.7694 39.8396C41.9165 39.6924 41.9995 39.4928 42.0001 39.2846V38.4987C41.9989 38.0822 41.833 37.6831 41.5387 37.3886C41.2443 37.0941 40.8447 36.9281 40.4285 36.9269ZM24.7221 42.4282C24.7234 42.8447 24.8893 43.2438 25.1836 43.5383C25.4779 43.8328 25.8767 43.9988 26.2929 44H38.8577C39.2739 43.9988 39.6728 43.8328 39.9671 43.5383C40.2614 43.2438 40.4273 42.8447 40.4285 42.4282V41.6423H24.7221V42.4282Z" fill="#06C106"/>
</svg>
