<svg width="44" height="44" viewBox="0 0 44 44" fill="none" xmlns="http://www.w3.org/2000/svg">
<path fill-rule="evenodd" clip-rule="evenodd" d="M3.73729 14.4565C5.56514 14.4565 7.0474 15.9388 7.0474 17.7667C7.0474 19.5945 5.56514 21.0768 3.73729 21.0768C1.90943 21.0768 0.427171 19.5945 0.427171 17.7667C0.427171 15.9379 1.90943 14.4565 3.73729 14.4565ZM40.2631 14.4565C38.4353 14.4565 36.953 15.9388 36.953 17.7667C36.953 19.5945 38.4353 21.0768 40.2631 21.0768C42.091 21.0768 43.5732 19.5945 43.5732 17.7667C43.5732 15.9379 42.091 14.4565 40.2631 14.4565ZM40.3135 36.8455L34.6852 36.862L31.2284 43.0762C30.7224 43.9571 29.5976 44.2615 28.7158 43.7546C27.8348 43.2485 27.5305 42.1238 28.0374 41.2419L31.673 34.2678C31.9755 33.6949 32.5722 33.2989 33.2661 33.2861L35.8988 33.2265C36.2472 33.2182 36.5258 32.9331 36.5258 32.5848V28.5615H38.8524C39.1054 28.5615 39.3107 28.3562 39.3107 28.1032C39.3107 27.8502 39.1054 27.6448 38.8524 27.6448H29.1732C28.2803 27.6448 27.5562 26.9206 27.5562 26.0278C27.5562 25.135 28.2803 24.4108 29.1732 24.4108H36.5323C36.6258 22.967 37.8321 21.8184 39.2988 21.8184H41.2284C42.7556 21.8184 44.0004 23.0642 44.0004 24.5904V33.1495C44.0004 35.1818 42.3458 36.84 40.3135 36.8455ZM3.68687 36.8455L9.31525 36.862L12.772 43.0762C13.278 43.9571 14.4028 44.2615 15.2846 43.7546C16.1656 43.2485 16.4699 42.1238 15.963 41.2419L12.3274 34.2678C12.0249 33.6949 11.4282 33.2989 10.7343 33.2861L8.10158 33.2265C7.75324 33.2182 7.47457 32.9331 7.47457 32.5848V28.5615H5.32405C5.07105 28.5615 4.86571 28.3562 4.86571 28.1032C4.86571 27.8502 5.07105 27.6448 5.32405 27.6448H14.8272C15.7201 27.6448 16.4442 26.9206 16.4442 26.0278C16.4442 25.135 15.7201 24.4108 14.8272 24.4108H7.46815C7.37465 22.967 6.16831 21.8184 4.70163 21.8184H2.77203C1.24485 21.8184 0 23.0642 0 24.5904V33.1495C0 35.1818 1.6546 36.84 3.68687 36.8455Z" fill="#06C106"/>
<path fill-rule="evenodd" clip-rule="evenodd" d="M25.0308 11.662C25.9915 11.662 26.7743 10.8782 26.7743 9.91848V4.48532C26.7743 3.52464 25.9915 2.74179 25.0308 2.74179H13.0837C12.1231 2.74179 11.3402 3.52555 11.3402 4.48532V13.2882C11.3402 13.5687 11.5016 13.808 11.7619 13.9125C12.0222 14.017 12.3046 13.9565 12.4989 13.7539L13.73 12.4705C14.1737 12.0085 14.6494 11.6611 15.2893 11.6611H25.0308V11.662ZM24.2956 31.6924H19.704V43.3581C19.704 43.7119 19.9918 43.9997 20.3456 43.9997H23.6539C24.0078 43.9997 24.2956 43.7119 24.2956 43.3581V31.6924ZM31.7748 28.583H12.2257C11.6207 28.583 11.1294 29.0734 11.1294 29.6794C11.1294 30.2853 11.6198 30.7757 12.2257 30.7757H31.7738C32.3798 30.7757 32.8702 30.2853 32.8702 29.6794C32.8702 29.0734 32.3798 28.583 31.7748 28.583ZM27.691 8.9193V4.48532C27.691 3.01863 26.4965 1.82511 25.0308 1.82511H17.2253V1.74353C17.2253 0.782845 18.0081 0 18.9688 0H30.9158C31.8765 0 32.6593 0.782845 32.6593 1.74353V10.5464C32.6593 10.8269 32.498 11.0662 32.2377 11.1707C31.9773 11.2752 31.695 11.2147 31.5007 11.0121L30.2696 9.72873C29.8259 9.26672 29.3501 8.9193 28.7103 8.9193H27.691ZM20.7582 8.77446H14.5156C14.2626 8.77446 14.0573 8.56913 14.0573 8.31612C14.0573 8.06312 14.2626 7.85778 14.5156 7.85778H20.7582C21.0112 7.85778 21.2165 8.06312 21.2165 8.31612C21.2165 8.56913 21.0112 8.77446 20.7582 8.77446ZM14.5165 6.5451C14.2635 6.5451 14.0582 6.33976 14.0582 6.08676C14.0582 5.83375 14.2635 5.62842 14.5165 5.62842H23.5989C23.8519 5.62842 24.0573 5.83375 24.0573 6.08676C24.0573 6.33976 23.8519 6.5451 23.5989 6.5451H14.5165Z" fill="#06C106"/>
</svg>
