<svg width="44" height="44" viewBox="0 0 44 44" fill="none" xmlns="http://www.w3.org/2000/svg">
<path d="M31.9646 12.7266L23.2901 9.39585V6.44515H28.13C28.8164 6.44515 29.2259 5.6801 28.8451 5.10902L28.3349 4.34389C28.2408 4.20271 28.1905 4.03682 28.1905 3.86713C28.1905 3.69744 28.2408 3.53156 28.3349 3.39037L28.8451 2.62524C29.2259 2.05416 28.8164 1.28912 28.13 1.28912H23.2901C23.2901 0.57718 22.7129 0 22.001 0C21.2891 0 20.7119 0.57718 20.7119 1.28912V9.39585L12.0374 12.7266H31.9646ZM1.28911 17.883C2.3528 17.883 2.40668 18.9568 2.40668 19.1721C2.40668 19.3874 2.3528 20.4611 1.28911 20.4611H42.7125C41.7937 20.4611 41.7672 19.304 41.7672 19.1721C41.7672 19.0401 41.7937 17.883 42.7125 17.883C43.4245 17.883 44.0017 17.3059 44.0017 16.5939C44.0017 15.882 43.4245 15.3048 42.7125 15.3048H1.28911C0.577178 15.3048 0 15.882 0 16.5939C0 17.3059 0.577178 17.883 1.28911 17.883ZM21.9524 36.8684C21.2415 36.8684 20.6632 37.4467 20.6632 38.1574V44H23.2415V38.1574C23.2415 37.4466 22.6632 36.8684 21.9524 36.8684ZM31.8355 44H42.7125C43.4245 44 44.0017 43.4228 44.0017 42.7109V23.0393H31.8355V44ZM36.2518 28.7045C36.2518 27.9925 36.829 27.4154 37.5409 27.4154C38.2528 27.4154 38.83 27.9925 38.83 28.7045V30.4232C38.83 31.1351 38.2528 31.7123 37.5409 31.7123C36.829 31.7123 36.2518 31.1351 36.2518 30.4232V28.7045ZM36.2518 35.5792C36.2518 34.8673 36.829 34.2901 37.5409 34.2901C38.2528 34.2901 38.83 34.8673 38.83 35.5792V37.298C38.83 38.0099 38.2528 38.5871 37.5409 38.5871C36.829 38.5871 36.2518 38.0099 36.2518 37.298V35.5792Z" fill="#03038C"/>
<path d="M14.6474 43.9997H18.0849V38.1571C18.0849 36.0247 19.8198 34.2899 21.9523 34.2899C24.0848 34.2899 25.8196 36.0248 25.8196 38.1571V43.9997H29.2571V23.0391H14.6474V43.9997ZM23.3545 28.7042C23.3545 27.9923 23.9316 27.4151 24.6436 27.4151C25.3555 27.4151 25.9327 27.9923 25.9327 28.7042V30.4229C25.9327 31.1349 25.3555 31.7121 24.6436 31.7121C23.9316 31.7121 23.3545 31.1349 23.3545 30.4229V28.7042ZM18.0691 28.7042C18.0691 27.9923 18.6463 27.4151 19.3582 27.4151C20.0702 27.4151 20.6473 27.9923 20.6473 28.7042V30.4229C20.6473 31.1349 20.0702 31.7121 19.3582 31.7121C18.6463 31.7121 18.0691 31.1349 18.0691 30.4229V28.7042ZM0.000244141 42.7106C0.000244141 43.4226 0.577422 43.9997 1.28936 43.9997H12.0692V23.0391H0.000244141V42.7106ZM4.84962 28.7042C4.84962 27.9923 5.4268 27.4151 6.13873 27.4151C6.85067 27.4151 7.42784 27.9923 7.42784 28.7042V30.4229C7.42784 31.1349 6.85067 31.7121 6.13873 31.7121C5.4268 31.7121 4.84962 31.1349 4.84962 30.4229V28.7042ZM4.84962 35.579C4.84962 34.867 5.4268 34.2899 6.13873 34.2899C6.85067 34.2899 7.42784 34.867 7.42784 35.579V37.2977C7.42784 38.0096 6.85067 38.5868 6.13873 38.5868C5.4268 38.5868 4.84962 38.0096 4.84962 37.2977V35.579Z" fill="#03038C"/>
</svg>
