<svg width="24" height="24" viewBox="0 0 24 24" fill="none" xmlns="http://www.w3.org/2000/svg">
<mask id="mask0_235_225" style="mask-type:alpha" maskUnits="userSpaceOnUse" x="0" y="0" width="24" height="24">
<rect width="24" height="24" fill="#03038C"/>
</mask>
<g mask="url(#mask0_235_225)">
<path d="M12 21.5C10.3103 21.5 8.92958 21.2576 7.85775 20.773C6.78592 20.2885 6.25 19.6622 6.25 18.8942C6.25 18.539 6.38367 18.205 6.651 17.8922C6.91833 17.5794 7.28792 17.3108 7.75975 17.0865L8.9405 18.1577C8.72633 18.2435 8.50125 18.3506 8.26525 18.4787C8.02942 18.607 7.86792 18.7423 7.78075 18.8845C7.94608 19.1833 8.43808 19.4439 9.25675 19.6662C10.0752 19.8887 10.9897 20 12 20C13.0038 20 13.9192 19.8887 14.7462 19.6662C15.5731 19.4439 16.0693 19.1833 16.2348 18.8845C16.1501 18.732 15.9793 18.5916 15.7223 18.4635C15.4651 18.3353 15.2212 18.2282 14.9905 18.1422L16.1557 17.0557C16.6672 17.2904 17.0608 17.5641 17.3365 17.877C17.6122 18.1898 17.75 18.5289 17.75 18.8942C17.75 19.6622 17.2141 20.2885 16.1423 20.773C15.0704 21.2576 13.6897 21.5 12 21.5ZM12 18.5C9.81667 16.8691 8.1875 15.2851 7.1125 13.748C6.0375 12.2108 5.5 10.7038 5.5 9.22697C5.5 8.11413 5.6965 7.13913 6.0895 6.30197C6.4825 5.4648 6.98983 4.7638 7.6115 4.19897C8.23333 3.6343 8.9305 3.20997 9.703 2.92597C10.4753 2.64197 11.241 2.49997 12 2.49997C12.759 2.49997 13.5247 2.64197 14.297 2.92597C15.0695 3.20997 15.7667 3.6343 16.3885 4.19897C17.0102 4.7638 17.5175 5.4648 17.9105 6.30197C18.3035 7.13913 18.5 8.11413 18.5 9.22697C18.5 10.7038 17.9625 12.2108 16.8875 13.748C15.8125 15.2851 14.1833 16.8691 12 18.5ZM12 10.8942C12.4987 10.8942 12.9246 10.7192 13.2777 10.3692C13.6311 10.0192 13.8077 9.59163 13.8077 9.08647C13.8077 8.5878 13.6311 8.16188 13.2777 7.80872C12.9246 7.45538 12.4987 7.27872 12 7.27872C11.5077 7.27872 11.0833 7.45538 10.727 7.80872C10.3705 8.16188 10.1923 8.5878 10.1923 9.08647C10.1923 9.59163 10.3705 10.0192 10.727 10.3692C11.0833 10.7192 11.5077 10.8942 12 10.8942Z" fill="#03038C"/>
</g>
</svg>
