<svg width="20" height="20" viewBox="0 0 20 20" fill="none" xmlns="http://www.w3.org/2000/svg">
<path d="M9.66406 0C13.5243 0 15.4545 4.13128e-05 16.8447 0.919922C17.4655 1.3307 17.9974 1.86258 18.4082 2.4834C19.3279 3.87363 19.3281 5.80394 19.3281 9.66406C19.3281 13.5243 19.328 15.4545 18.4082 16.8447C17.9974 17.4655 17.4655 17.9974 16.8447 18.4082C15.4545 19.328 13.5243 19.3281 9.66406 19.3281C5.80394 19.3281 3.87363 19.3279 2.4834 18.4082C1.86258 17.9974 1.3307 17.4655 0.919922 16.8447C4.13128e-05 15.4545 0 13.5243 0 9.66406C0 5.80384 0.000132398 3.87364 0.919922 2.4834C1.3307 1.86258 1.86258 1.3307 2.4834 0.919922C3.87364 0.000132398 5.80384 0 9.66406 0ZM9.66406 4.66113C6.90097 4.66113 4.66125 6.901 4.66113 9.66406C4.66113 12.4272 6.9009 14.667 9.66406 14.667C12.4272 14.6669 14.667 12.4272 14.667 9.66406C14.6669 6.90104 12.4271 4.6612 9.66406 4.66113ZM9.66406 6.35352C11.4922 6.35358 12.9745 7.83589 12.9746 9.66406C12.9746 11.4923 11.4923 12.9745 9.66406 12.9746C7.83575 12.9746 6.35352 11.4924 6.35352 9.66406C6.35363 7.83585 7.83583 6.35352 9.66406 6.35352ZM14.8652 3.23438C14.216 3.23438 13.6895 3.7609 13.6895 4.41016C13.6896 5.05927 14.2161 5.58496 14.8652 5.58496C15.5142 5.58477 16.0399 5.05915 16.04 4.41016C16.04 3.76101 15.5143 3.23456 14.8652 3.23438Z" fill="#06C106"/>
</svg>
