<svg width="20" height="20" viewBox="0 0 20 20" fill="none" xmlns="http://www.w3.org/2000/svg">
<path d="M10.9816 0.0895238C8.66957 -0.227235 6.321 0.30274 4.36918 1.58167C2.41736 2.86059 0.993995 4.80217 0.361698 7.04818C-0.270599 9.29418 -0.0691596 11.6931 0.928849 13.8022C1.92686 15.9113 3.65409 17.5884 5.79187 18.524C5.73442 17.782 5.78719 17.0355 5.94846 16.3089C6.12729 15.498 7.20118 11.029 7.20118 11.029C6.98617 10.5501 6.87925 10.0298 6.888 9.5049C6.888 8.06969 7.71638 6.99884 8.74678 6.99884C8.9319 6.99614 9.11542 7.03334 9.28487 7.10788C9.45432 7.18243 9.60573 7.29259 9.7288 7.43087C9.85188 7.56915 9.94373 7.73231 9.99811 7.90925C10.0525 8.08618 10.0681 8.27276 10.044 8.45628C10.044 9.3261 9.48527 10.6424 9.19336 11.8776C9.13567 12.1041 9.132 12.341 9.18267 12.5692C9.23333 12.7974 9.3369 13.0105 9.48504 13.1914C9.63317 13.3722 9.82172 13.5157 10.0355 13.6103C10.2493 13.705 10.4823 13.748 10.7158 13.7361C12.5494 13.7361 13.7799 11.3866 13.7799 8.61285C13.7799 6.48564 12.3716 4.89483 9.77525 4.89483C9.15417 4.8707 8.53466 4.97301 7.95433 5.19556C7.374 5.41811 6.84496 5.75625 6.3993 6.18946C5.95365 6.62267 5.60069 7.1419 5.36185 7.71565C5.12301 8.2894 5.00327 8.9057 5.00989 9.52713C4.98222 10.2165 5.20467 10.8927 5.63625 11.4311C5.7169 11.4913 5.77578 11.5761 5.80403 11.6726C5.83227 11.7692 5.82835 11.8724 5.79284 11.9665C5.74838 12.1443 5.63625 12.5686 5.59179 12.7252C5.58241 12.7779 5.5608 12.8276 5.52871 12.8704C5.49661 12.9133 5.45491 12.948 5.40697 12.9717C5.35902 12.9955 5.30617 13.0077 5.25265 13.0074C5.19913 13.007 5.14645 12.9941 5.09882 12.9697C3.76104 12.4343 3.13081 10.9623 3.13081 9.28164C3.13081 6.5301 5.4352 3.23636 10.0459 3.23636C13.7151 3.23636 16.1539 5.92025 16.1539 8.79068C16.1539 12.5686 14.0505 15.4091 10.941 15.4091C10.4762 15.424 10.0152 15.3215 9.60055 15.111C9.18593 14.9005 8.83111 14.5889 8.56893 14.2049C8.56893 14.2049 8.00926 16.4432 7.90004 16.8665C7.67545 17.598 7.34351 18.2921 6.91507 18.9261C7.80724 19.1967 8.73422 19.332 9.66603 19.3281C10.9356 19.3289 12.1928 19.0793 13.3658 18.5937C14.5388 18.1081 15.6045 17.396 16.502 16.4982C17.3994 15.6003 18.111 14.5343 18.5959 13.3612C19.0809 12.1881 19.3297 10.9309 19.3282 9.66147C19.3276 7.32716 18.4821 5.07192 16.9479 3.31245C15.4136 1.55297 13.2944 0.408157 10.9816 0.0895238Z" fill="#06C106"/>
</svg>
