<svg width="24" height="24" viewBox="0 0 24 24" fill="none" xmlns="http://www.w3.org/2000/svg">
<mask id="mask0_235_220" style="mask-type:alpha" maskUnits="userSpaceOnUse" x="0" y="0" width="24" height="24">
<rect width="24" height="24" fill="#03038C"/>
</mask>
<g mask="url(#mask0_235_220)">
<path d="M15.3 16.7L16.7 15.3L13 11.6V7.00003H11V12.4L15.3 16.7ZM12 22C10.6167 22 9.31667 21.7375 8.1 21.2125C6.88333 20.6875 5.825 19.975 4.925 19.075C4.025 18.175 3.3125 17.1167 2.7875 15.9C2.2625 14.6834 2 13.3834 2 12C2 10.6167 2.2625 9.3167 2.7875 8.10003C3.3125 6.88337 4.025 5.82503 4.925 4.92503C5.825 4.02503 6.88333 3.31253 8.1 2.78753C9.31667 2.26253 10.6167 2.00003 12 2.00003C13.3833 2.00003 14.6833 2.26253 15.9 2.78753C17.1167 3.31253 18.175 4.02503 19.075 4.92503C19.975 5.82503 20.6875 6.88337 21.2125 8.10003C21.7375 9.3167 22 10.6167 22 12C22 13.3834 21.7375 14.6834 21.2125 15.9C20.6875 17.1167 19.975 18.175 19.075 19.075C18.175 19.975 17.1167 20.6875 15.9 21.2125C14.6833 21.7375 13.3833 22 12 22Z" fill="#03038C"/>
</g>
</svg>
