<svg width="17" height="20" viewBox="0 0 17 20" fill="none" xmlns="http://www.w3.org/2000/svg">
<path d="M13.1437 3.02809C12.4217 2.19002 12.0237 1.11395 12.0238 0H8.75898V13.315C8.73432 14.0357 8.43516 14.7185 7.92461 15.2194C7.41406 15.7202 6.73205 15.9999 6.02246 15.9995C4.52212 15.9995 3.27537 14.7539 3.27537 13.2076C3.27537 11.3607 5.02928 9.9755 6.83602 10.5446V7.15144C3.19085 6.65749 0 9.53525 0 13.2076C0 16.7833 2.91614 19.3282 6.01189 19.3282C9.32952 19.3282 12.0238 16.59 12.0238 13.2076V6.45347C13.3477 7.41972 14.9371 7.93815 16.567 7.9353V4.61729C16.567 4.61729 14.5807 4.71394 13.1437 3.02809Z" fill="#06C106"/>
</svg>
