<svg width="24" height="20" viewBox="0 0 24 20" fill="none" xmlns="http://www.w3.org/2000/svg">
<path d="M15.9179 0.00429038V0H17.0349L17.4431 0.0815173C17.7152 0.134439 17.9622 0.203793 18.1842 0.289601C18.4062 0.375409 18.621 0.475525 18.8286 0.589928C19.0363 0.704331 19.2246 0.820901 19.3936 0.939594C19.5612 1.05687 19.7115 1.18129 19.8447 1.31286C19.9765 1.44586 20.182 1.48018 20.4612 1.41583C20.7405 1.35147 21.0412 1.26208 21.3635 1.14768C21.6857 1.03327 22.0043 0.904563 22.3194 0.761543C22.6345 0.618523 22.8264 0.527717 22.8951 0.489104C22.9624 0.449074 22.9982 0.427623 23.0025 0.424748L23.0068 0.418312L23.0283 0.407586L23.0498 0.39686L23.0712 0.386135L23.0927 0.375409L23.097 0.368973L23.1035 0.364683L23.1099 0.360392L23.1142 0.353957L23.1357 0.347521L23.1572 0.343231L23.1529 0.375409L23.1464 0.407586L23.1357 0.439764L23.1249 0.471942L23.1142 0.493394L23.1035 0.514846L23.0927 0.547024C23.0856 0.568476 23.0784 0.597071 23.0712 0.632832C23.0641 0.668592 22.9961 0.81159 22.8672 1.06187C22.7383 1.31215 22.5772 1.56599 22.3838 1.82341C22.1905 2.08084 22.0172 2.27532 21.864 2.40691C21.7093 2.53991 21.6069 2.63286 21.5568 2.68578C21.5067 2.74012 21.4458 2.79017 21.3742 2.83594L21.2668 2.90673L21.2453 2.91746L21.2238 2.92819L21.2195 2.93462L21.2131 2.93891L21.2066 2.9432L21.2023 2.94964L21.1809 2.96036L21.1594 2.97109L21.1551 2.97753L21.1486 2.98182L21.1422 2.98611L21.1379 2.99254L21.1336 2.99898L21.1272 3.00327L21.1207 3.00756L21.1164 3.01399H21.2238L21.8253 2.88528C22.2263 2.79948 22.6094 2.6958 22.9746 2.57423L23.5546 2.38116L23.619 2.35971L23.6512 2.34898L23.6727 2.33826L23.6942 2.32753L23.7157 2.31681L23.7372 2.30608L23.7801 2.29965L23.8231 2.29536V2.33826L23.8124 2.34255L23.8016 2.34898L23.7973 2.35542L23.7909 2.35971L23.7844 2.364L23.7801 2.37044L23.7759 2.37687L23.7694 2.38116L23.7629 2.38545L23.7587 2.39189L23.7544 2.39832L23.7479 2.40261L23.7372 2.42407L23.7264 2.44552L23.72 2.44981C23.7171 2.4541 23.6262 2.57565 23.4472 2.81449C23.2682 3.05475 23.1715 3.1763 23.1572 3.17917C23.1429 3.18346 23.1228 3.20492 23.097 3.24353C23.0727 3.28356 22.9209 3.44303 22.6416 3.72191C22.3623 4.00078 22.0888 4.2489 21.821 4.46629C21.5518 4.6851 21.4157 4.95396 21.4129 5.27288C21.4086 5.59037 21.3921 5.94935 21.3635 6.34977C21.3348 6.75021 21.2811 7.18281 21.2023 7.64761C21.1236 8.11241 21.0019 8.63798 20.8372 9.22433C20.6725 9.81067 20.472 10.3827 20.2357 10.9405C19.9994 11.4982 19.7523 11.9988 19.4946 12.4421C19.2368 12.8855 19.0005 13.2609 18.7857 13.5683C18.5708 13.8758 18.3525 14.1654 18.1305 14.4371C17.9085 14.7089 17.6278 15.0149 17.2884 15.3553C16.9476 15.6942 16.7614 15.8801 16.7299 15.913C16.697 15.9445 16.5566 16.0618 16.3088 16.2648C16.0625 16.4693 15.7976 16.6738 15.514 16.8784C15.2319 17.0815 14.9727 17.2509 14.7364 17.3868C14.5001 17.5226 14.2151 17.6778 13.8814 17.8523C13.5492 18.0282 13.1897 18.1912 12.803 18.3414C12.4164 18.4916 12.0082 18.631 11.5786 18.7597C11.149 18.8884 10.7336 18.9885 10.3327 19.06C9.93168 19.1315 9.47697 19.1923 8.96857 19.2424L8.20597 19.3175V19.3282H6.80967V19.3175L6.62707 19.3067C6.50536 19.2996 6.40511 19.2924 6.32633 19.2853C6.24758 19.2781 5.9504 19.2388 5.43485 19.1673C4.91929 19.0958 4.51472 19.0243 4.22114 18.9528C3.92757 18.8813 3.49076 18.7454 2.91076 18.5452C2.33075 18.345 1.83453 18.1426 1.42208 17.9381C1.01107 17.735 0.753295 17.6063 0.648744 17.552C0.545633 17.499 0.429632 17.4333 0.300742 17.3546L0.107408 17.2366L0.103133 17.2302L0.0966672 17.2259L0.0902227 17.2216L0.0859264 17.2152L0.0644448 17.2044L0.0429632 17.1937L0.0386884 17.1873L0.0322224 17.183L0.0257779 17.1787L0.0214816 17.1723L0.0172068 17.1658L0.0107408 17.1615H0V17.1186L0.0214816 17.1229L0.0429632 17.1294L0.13963 17.1401C0.204075 17.1472 0.379515 17.158 0.66593 17.1723C0.952365 17.1866 1.25667 17.1866 1.5789 17.1723C1.90112 17.158 2.23052 17.1258 2.56705 17.0757C2.9036 17.0257 3.30101 16.9399 3.75928 16.8183C4.21757 16.6967 4.63861 16.5523 5.02242 16.385C5.40479 16.2162 5.67688 16.0904 5.83872 16.0074C5.9991 15.9259 6.24399 15.7743 6.57337 15.5526L7.06745 15.2201L7.07174 15.2137L7.07819 15.2094L7.08465 15.2051L7.08893 15.1987L7.09323 15.1922L7.09967 15.188L7.10614 15.1837L7.11041 15.1772L7.13189 15.1708L7.15337 15.1665L7.15767 15.1451L7.16411 15.1236L7.17058 15.1193L7.17486 15.1129L7.003 15.1022C6.88844 15.095 6.77745 15.0878 6.67004 15.0807C6.56263 15.0736 6.39436 15.0414 6.16522 14.9842C5.9361 14.927 5.68906 14.8411 5.4241 14.7267C5.15917 14.6123 4.90139 14.4765 4.65077 14.3192C4.40016 14.1618 4.21899 14.031 4.10728 13.9266C3.99702 13.8236 3.8538 13.6777 3.67765 13.489C3.50294 13.2988 3.35113 13.1035 3.22224 12.9033C3.09335 12.7031 2.9702 12.4721 2.85278 12.2104L2.67446 11.82L2.66372 11.7878L2.65298 11.7557L2.64653 11.7342L2.64224 11.7127L2.67446 11.717L2.70668 11.7235L2.94298 11.7557C3.10053 11.7771 3.34756 11.7842 3.68409 11.7771C4.02065 11.77 4.25336 11.7557 4.38225 11.7342C4.51114 11.7127 4.58991 11.6984 4.61854 11.6913L4.66151 11.6806L4.71521 11.6698L4.76892 11.6591L4.77321 11.6527L4.77966 11.6484L4.78612 11.6441L4.7904 11.6377L4.74743 11.6269L4.70447 11.6162L4.66151 11.6055L4.61854 11.5948L4.57558 11.584C4.54695 11.5769 4.49683 11.5626 4.42521 11.5411C4.35361 11.5197 4.16028 11.441 3.84521 11.3052C3.53016 11.1693 3.27953 11.037 3.09335 10.9083C2.90671 10.7792 2.72874 10.638 2.56061 10.4857C2.39305 10.3312 2.20904 10.1324 2.00853 9.88933C1.80804 9.64622 1.62904 9.36376 1.47149 9.04198C1.31397 8.72021 1.19582 8.41273 1.11704 8.11955C1.03859 7.82809 0.986825 7.53011 0.962397 7.2293L0.923709 6.77881L0.945191 6.7831L0.966672 6.78953L0.988154 6.80026L1.00964 6.81098L1.03112 6.82171L1.0526 6.83244L1.38556 6.9826C1.60755 7.08272 1.88323 7.16852 2.21261 7.24002C2.542 7.31152 2.7389 7.35086 2.80335 7.35801L2.90002 7.36873H3.09335L3.08908 7.3623L3.08261 7.35801L3.07617 7.35372L3.07187 7.34728L3.06759 7.34085L3.06113 7.33656L3.05468 7.33227L3.05039 7.32583L3.02891 7.3151L3.00742 7.30438L3.00315 7.29794L2.99668 7.29365L2.99024 7.28936L2.98594 7.28293L2.96446 7.2722L2.94298 7.26147L2.9387 7.25504C2.93441 7.25216 2.87282 7.20641 2.75394 7.11775C2.6365 7.02765 2.51335 6.9111 2.38446 6.76808C2.25557 6.62506 2.12668 6.4749 1.99779 6.31759C1.86866 6.15992 1.75365 5.99123 1.65408 5.81347C1.55385 5.63471 1.44786 5.4073 1.33616 5.1313C1.22589 4.85671 1.14211 4.57998 1.08482 4.30111C1.02755 4.02223 0.995329 3.74694 0.988154 3.47521C0.981 3.20348 0.988154 2.97109 1.00964 2.77802C1.03112 2.58496 1.07408 2.36685 1.13853 2.12374C1.20297 1.88063 1.29607 1.6232 1.41779 1.35147L1.60038 0.943884L1.61112 0.911707L1.62186 0.879529L1.62833 0.875238L1.6326 0.868803L1.6369 0.862367L1.64334 0.858077L1.64981 0.862367L1.65408 0.868803L1.65838 0.875238L1.66482 0.879529L1.67129 0.883819L1.67557 0.890255L1.67986 0.89669L1.68631 0.900981L1.69705 0.922432L1.70779 0.943884L1.71425 0.948175L1.71853 0.95461L2.00853 1.27639C2.20186 1.49091 2.43101 1.73046 2.69594 1.99503C2.9609 2.25959 3.10768 2.39689 3.13631 2.40691C3.16497 2.41834 3.20076 2.45123 3.24372 2.50558C3.28669 2.55851 3.4299 2.68507 3.67335 2.88528C3.91683 3.08549 4.23546 3.3179 4.62929 3.58247C5.02313 3.84704 5.45991 4.10804 5.93966 4.36547C6.41943 4.62289 6.93499 4.85528 7.48634 5.06265C8.03771 5.27003 8.42438 5.40588 8.64635 5.47024C8.86834 5.5346 9.24783 5.61682 9.78487 5.71694C10.3219 5.81705 10.7265 5.88141 10.9986 5.91C11.2707 5.9386 11.4569 5.95505 11.5571 5.95934L11.7075 5.96363L11.7032 5.93146L11.6967 5.89928L11.6538 5.63113C11.6251 5.45237 11.6108 5.20209 11.6108 4.88031C11.6108 4.55853 11.6359 4.26179 11.686 3.99006C11.7361 3.71833 11.8113 3.44303 11.9115 3.16416C12.0118 2.88528 12.1099 2.66145 12.2058 2.49271C12.3032 2.32539 12.4307 2.13447 12.5882 1.91995C12.7458 1.70543 12.9498 1.48376 13.2004 1.25494C13.4511 1.02611 13.7375 0.822316 14.0597 0.643558C14.3819 0.464799 14.6791 0.328922 14.9512 0.235971C15.2233 0.14302 15.4524 0.0822252 15.6386 0.0536298C15.8248 0.0250344 15.9179 0.00858077 15.9179 0.00429038Z" fill="#06C106"/>
</svg>
