<svg width="27" height="20" viewBox="0 0 27 20" fill="none" xmlns="http://www.w3.org/2000/svg">
<path d="M14.0933 19.0546L8.55586 18.9511C6.76296 18.9151 4.96559 18.987 3.20785 18.6134C0.533913 18.0552 0.344482 15.3181 0.146262 13.0222C-0.126864 9.79443 -0.0211287 6.50809 0.494296 3.30728C0.785271 1.51129 1.93037 0.439606 3.70123 0.322986C9.67919 -0.100242 15.6969 -0.050085 21.6616 0.147366C22.2916 0.165467 22.9258 0.2644 23.547 0.377012C26.6132 0.926256 26.6879 4.028 26.8867 6.63908C27.0849 9.27711 27.0012 11.9287 26.6224 14.5487C26.3184 16.7181 25.7369 18.5373 23.2827 18.7129C20.2077 18.9426 17.2033 19.1274 14.1197 19.0686C14.1198 19.0546 14.1021 19.0546 14.0933 19.0546ZM10.8378 13.5625C13.1551 12.2028 15.4281 10.8658 17.7321 9.51532C15.4105 8.15568 13.1418 6.81871 10.8378 5.46819V13.5625Z" fill="#06C106"/>
</svg>
