<svg width="28" height="36" viewBox="0 0 28 36" fill="none" xmlns="http://www.w3.org/2000/svg">
<path fill-rule="evenodd" clip-rule="evenodd" d="M2.29058 5.22957H18.8978C20.1577 5.22957 21.1884 6.26029 21.1884 7.52015V33.7094C21.1884 34.9693 20.1577 36 18.8978 36H2.29058C1.03072 36 0 34.9693 0 33.7094V7.52015C0 6.26029 1.03072 5.22957 2.29058 5.22957ZM26.4155 5.15946L10.5951 0.108125C9.39493 -0.275102 8.09959 0.393223 7.71643 1.59342L6.92617 4.06835H18.8979C20.7987 4.06835 22.3497 5.61941 22.3497 7.52023V25.4238L27.9009 8.03823C28.2841 6.83797 27.6157 5.54261 26.4155 5.15946ZM10.5943 8.53592C8.72872 8.53592 7.03969 9.29214 5.81714 10.5148C4.59451 11.7374 3.83829 13.4264 3.83829 15.292C3.83829 17.1575 4.59451 18.8465 5.81714 20.0691C7.03976 21.2917 8.72872 22.0479 10.5943 22.0479C12.4598 22.0479 14.1488 21.2917 15.3715 20.0691C16.594 18.8465 17.3503 17.1574 17.3503 15.2919C17.3503 13.4263 16.5941 11.7373 15.3715 10.5147C14.1488 9.29221 12.4598 8.53592 10.5943 8.53592ZM7.18231 33.4727H14.0061C14.1601 33.4727 14.3078 33.4116 14.4167 33.3027C14.5256 33.1938 14.5868 33.0461 14.5868 32.8921C14.5868 32.7381 14.5256 32.5904 14.4167 32.4815C14.3078 32.3726 14.1601 32.3114 14.0061 32.3114H7.18231C7.02831 32.3114 6.88062 32.3726 6.77173 32.4815C6.66284 32.5904 6.60166 32.7381 6.60166 32.8921C6.60166 33.0461 6.66284 33.1938 6.77173 33.3027C6.88062 33.4116 7.02831 33.4727 7.18231 33.4727ZM4.34955 29.9432H16.8388C16.9928 29.9432 17.1405 29.882 17.2494 29.7731C17.3583 29.6642 17.4195 29.5166 17.4195 29.3626C17.4195 29.2086 17.3583 29.0609 17.2494 28.952C17.1405 28.8431 16.9928 28.7819 16.8388 28.7819H4.34955C4.19555 28.7819 4.04786 28.8431 3.93897 28.952C3.83008 29.0609 3.7689 29.2086 3.7689 29.3626C3.7689 29.5166 3.83008 29.6642 3.93897 29.7731C4.04786 29.882 4.19555 29.9432 4.34955 29.9432ZM4.34955 26.4136H16.8388C16.9928 26.4136 17.1405 26.3524 17.2494 26.2435C17.3583 26.1346 17.4195 25.9869 17.4195 25.833C17.4195 25.679 17.3583 25.5313 17.2494 25.4224C17.1405 25.3135 16.9928 25.2523 16.8388 25.2523H4.34955C4.19555 25.2523 4.04786 25.3135 3.93897 25.4224C3.83008 25.5313 3.7689 25.679 3.7689 25.833C3.7689 25.9869 3.83008 26.1346 3.93897 26.2435C4.04786 26.3524 4.19555 26.4136 4.34955 26.4136ZM10.0136 10.2157C9.40703 10.729 8.89664 11.3462 8.50633 12.0384C8.34509 12.3245 8.20545 12.6223 8.08855 12.9292H10.0135L10.0136 10.2157ZM7.76477 14.0905C7.69344 14.4828 7.65763 14.8807 7.65779 15.2795V15.3044C7.65779 15.7102 7.69451 16.1076 7.76477 16.4935H10.0136V14.0905H7.76477V14.0905ZM8.08862 17.6548C8.20551 17.9616 8.34513 18.2594 8.50633 18.5455C8.89666 19.2376 9.40704 19.8548 10.0136 20.3682V17.6548H8.08862ZM8.45864 20.4644C8.09037 20.0492 7.76724 19.596 7.4947 19.1125C7.23379 18.6496 7.02111 18.1611 6.85998 17.6548H5.52137C5.79791 18.2469 6.17581 18.7861 6.63802 19.2481C7.15901 19.7693 7.77769 20.1826 8.45864 20.4644ZM6.58751 16.4935C6.52683 16.1 6.4964 15.7025 6.49649 15.3044V15.2794C6.49649 14.8753 6.52763 14.4783 6.58751 14.0904H5.12892C5.04422 14.4774 4.99959 14.8794 4.99959 15.2919C4.99959 15.7044 5.04422 16.1064 5.129 16.4935H6.58751ZM6.86005 12.9292C7.02116 12.4228 7.23385 11.9343 7.49477 11.4714C7.76729 10.9879 8.09039 10.5347 8.45864 10.1195C7.77772 10.4013 7.15908 10.8146 6.63817 11.3359C6.17592 11.7979 5.79799 12.3371 5.52144 12.9292H6.86005V12.9292ZM11.1749 16.4935H13.3327C13.4041 16.1011 13.4399 15.7031 13.4397 15.3044V15.2794C13.4397 14.8737 13.403 14.4762 13.3328 14.0904H11.1749V16.4935ZM14.51 16.4935H16.0596C16.1443 16.1064 16.1889 15.7044 16.1889 15.2919C16.1889 14.8794 16.1443 14.4774 16.0596 14.0904H14.5099C14.5706 14.4838 14.601 14.8813 14.6009 15.2794V15.3044C14.6011 15.7025 14.5707 16.1 14.51 16.4935ZM15.667 17.6548H14.2375C14.0763 18.1611 13.8636 18.6496 13.6027 19.1125C13.3178 19.618 12.9776 20.0903 12.5884 20.5208C13.3247 20.2393 13.9932 19.8056 14.5504 19.2481C15.0126 18.7861 15.3905 18.2469 15.667 17.6548ZM13.0089 17.6548H11.1748V20.2897C11.7418 19.7923 12.2206 19.2026 12.5911 18.5455C12.7523 18.2594 12.892 17.9617 13.0089 17.6548ZM11.1749 12.9292H13.009C12.892 12.6223 12.7524 12.3245 12.5912 12.0384C12.2207 11.3814 11.7419 10.7916 11.1749 10.2942V12.9292ZM14.2375 12.9292H15.667C15.3905 12.337 15.0125 11.7978 14.5503 11.3358C13.9932 10.7782 13.3246 10.3445 12.5883 10.0631C12.9775 10.4935 13.3177 10.9659 13.6027 11.4714C13.8636 11.9343 14.0763 12.4228 14.2375 12.9292Z" fill="white"/>
</svg>
