<svg width="30" height="36" viewBox="0 0 30 36" fill="none" xmlns="http://www.w3.org/2000/svg">
<path fill-rule="evenodd" clip-rule="evenodd" d="M0 27.965L8.03502 36L10.5924 33.4427L2.55734 25.4076L0 27.965ZM27.0378 12.8034L29.4873 10.3539L27.0378 7.90647V9.4641H23.9412V11.2458H27.0378V12.8034ZM21.5788 2.44744L19.1314 0L16.6839 2.44744H18.2416V5.54404H20.0211V2.44744H21.5788H21.5788ZM11.225 7.90647L8.7755 10.3539L11.225 12.8034V11.2458H14.3216V9.4641H11.225V7.90647ZM19.1315 6.98351C20.994 6.98351 22.5039 8.49138 22.5039 10.3539C22.5039 12.2164 20.994 13.7264 19.1315 13.7264C17.2689 13.7264 15.759 12.2164 15.759 10.3539C15.759 8.49138 17.2689 6.98351 19.1315 6.98351ZM12.7536 17.4162C12.8241 15.4665 14.4004 14.2055 16.4206 13.6289C17.9927 14.9315 20.2701 14.9315 21.8423 13.6289C23.8624 14.2055 25.4388 15.4665 25.5093 17.4162V20.405H12.7536V17.4162H12.7536ZM27.3137 20.8323C28.3341 19.7309 30.1324 21.2326 29.2509 22.4501L24.6734 28.7595C23.7691 30.008 22.4749 30.7298 20.9317 30.7298H12.0795C11.337 30.7298 10.6982 31.0202 10.2128 31.5782L10.0988 31.7088L4.25604 25.8641L7.04987 23.1366C7.90229 22.3028 8.91862 21.8673 10.1112 21.8673H12.5607C13.3571 21.8673 14.0375 22.0497 14.7261 22.448L15.479 22.8815H21.4399C22.9748 22.8815 23.7608 24.746 22.674 25.8433C22.3857 26.1337 21.975 26.3514 21.4399 26.3597H16.3563C16.1157 26.3597 15.9187 26.5568 15.9187 26.7973C15.9187 27.04 16.1157 27.237 16.3563 27.237H21.4399C22.981 27.237 24.1964 25.8971 24.045 24.3623L27.3138 20.8322L27.3137 20.8323Z" fill="white"/>
</svg>
