<svg width="36" height="36" viewBox="0 0 36 36" fill="none" xmlns="http://www.w3.org/2000/svg">
<path d="M16.0714 25.7142H19.9286V32.7856H16.0714V25.7142ZM0 34.0714H8.35715V35.3571H0V34.0714ZM9.64286 16.0714H26.3571V17.3571H9.64286V16.0714ZM8.35715 16.0714C8.01615 16.0714 7.68913 15.9359 7.44801 15.6948C7.20689 15.4537 7.07143 15.1266 7.07143 14.7856H2.72314C2.6037 14.7853 2.48653 14.8184 2.38495 14.8812C2.28336 14.944 2.20142 15.0341 2.14843 15.1411L1.04014 17.3571H8.35715V16.0714Z" fill="white"/>
<path d="M25.0716 32.7857V18.6429H10.9287V32.7857H14.7858V25.0714C14.7858 24.9009 14.8536 24.7374 14.9741 24.6169C15.0947 24.4963 15.2582 24.4286 15.4287 24.4286H20.5716C20.7421 24.4286 20.9056 24.4963 21.0261 24.6169C21.1467 24.7374 21.2144 24.9009 21.2144 25.0714V32.7857H25.0716ZM16.7144 21.8571C16.7144 22.0276 16.6467 22.1912 16.5261 22.3117C16.4056 22.4323 16.2421 22.5 16.0716 22.5C15.9011 22.5 15.7375 22.4323 15.617 22.3117C15.4964 22.1912 15.4287 22.0276 15.4287 21.8571V20.5714C15.4287 20.4009 15.4964 20.2374 15.617 20.1169C15.7375 19.9963 15.9011 19.9286 16.0716 19.9286C16.2421 19.9286 16.4056 19.9963 16.5261 20.1169C16.6467 20.2374 16.7144 20.4009 16.7144 20.5714V21.8571ZM20.5716 21.8571C20.5716 22.0276 20.5038 22.1912 20.3833 22.3117C20.2627 22.4323 20.0992 22.5 19.9287 22.5C19.7582 22.5 19.5947 22.4323 19.4741 22.3117C19.3536 22.1912 19.2858 22.0276 19.2858 21.8571V20.5714C19.2858 20.4009 19.3536 20.2374 19.4741 20.1169C19.5947 19.9963 19.7582 19.9286 19.9287 19.9286C20.0992 19.9286 20.2627 19.9963 20.3833 20.1169C20.5038 20.2374 20.5716 20.4009 20.5716 20.5714V21.8571ZM24.3509 9.83121C24.2912 9.77144 24.2202 9.72403 24.1421 9.69171C24.064 9.65939 23.9803 9.64279 23.8958 9.64286H11.5311C11.4368 9.64289 11.3438 9.66364 11.2584 9.70363C11.1731 9.74363 11.0976 9.80189 11.0373 9.87429L9.08691 12.2143H26.734L24.3509 9.83121ZM26.3573 2.25514H26.3656L18.0001 0L9.64299 2.24486L18.0033 4.5L26.3573 2.25514ZM27.643 17.3571H34.96L33.8517 15.1412C33.7987 15.0342 33.7168 14.9441 33.6152 14.8813C33.5136 14.8184 33.3964 14.7853 33.277 14.7857H28.9287C28.9287 15.1267 28.7932 15.4537 28.5521 15.6949C28.311 15.936 27.984 16.0714 27.643 16.0714V17.3571Z" fill="white"/>
<path d="M17.6695 5.74209L12.8571 4.44995V8.35724H23.1428V4.44995L18.3304 5.74209C18.1138 5.79995 17.8862 5.79995 17.6695 5.74209ZM8.35711 13.5001H27.6428V14.7858H8.35711V13.5001ZM9.64283 18.643H0.642822V32.7858H9.64283V18.643ZM3.85711 30.2144C3.85711 30.3849 3.78938 30.5484 3.66882 30.6689C3.54826 30.7895 3.38475 30.8572 3.21425 30.8572C3.04376 30.8572 2.88024 30.7895 2.75968 30.6689C2.63912 30.5484 2.57139 30.3849 2.57139 30.2144V28.9287C2.57139 28.7582 2.63912 28.5947 2.75968 28.4741C2.88024 28.3535 3.04376 28.2858 3.21425 28.2858C3.38475 28.2858 3.54826 28.3535 3.66882 28.4741C3.78938 28.5947 3.85711 28.7582 3.85711 28.9287V30.2144ZM3.85711 26.3572C3.85711 26.5277 3.78938 26.6912 3.66882 26.8118C3.54826 26.9324 3.38475 27.0001 3.21425 27.0001C3.04376 27.0001 2.88024 26.9324 2.75968 26.8118C2.63912 26.6912 2.57139 26.5277 2.57139 26.3572V25.0715C2.57139 24.901 2.63912 24.7375 2.75968 24.617C2.88024 24.4964 3.04376 24.4287 3.21425 24.4287C3.38475 24.4287 3.54826 24.4964 3.66882 24.617C3.78938 24.7375 3.85711 24.901 3.85711 25.0715V26.3572ZM3.85711 22.5001C3.85711 22.6706 3.78938 22.8341 3.66882 22.9547C3.54826 23.0752 3.38475 23.143 3.21425 23.143C3.04376 23.143 2.88024 23.0752 2.75968 22.9547C2.63912 22.8341 2.57139 22.6706 2.57139 22.5001V21.2144C2.57139 21.0439 2.63912 20.8804 2.75968 20.7598C2.88024 20.6392 3.04376 20.5715 3.21425 20.5715C3.38475 20.5715 3.54826 20.6392 3.66882 20.7598C3.78938 20.8804 3.85711 21.0439 3.85711 21.2144V22.5001ZM7.71425 30.2144C7.71425 30.3849 7.64652 30.5484 7.52596 30.6689C7.40541 30.7895 7.24189 30.8572 7.0714 30.8572C6.9009 30.8572 6.73739 30.7895 6.61683 30.6689C6.49627 30.5484 6.42854 30.3849 6.42854 30.2144V28.9287C6.42854 28.7582 6.49627 28.5947 6.61683 28.4741C6.73739 28.3535 6.9009 28.2858 7.0714 28.2858C7.24189 28.2858 7.40541 28.3535 7.52596 28.4741C7.64652 28.5947 7.71425 28.7582 7.71425 28.9287V30.2144ZM7.71425 26.3572C7.71425 26.5277 7.64652 26.6912 7.52596 26.8118C7.40541 26.9324 7.24189 27.0001 7.0714 27.0001C6.9009 27.0001 6.73739 26.9324 6.61683 26.8118C6.49627 26.6912 6.42854 26.5277 6.42854 26.3572V25.0715C6.42854 24.901 6.49627 24.7375 6.61683 24.617C6.73739 24.4964 6.9009 24.4287 7.0714 24.4287C7.24189 24.4287 7.40541 24.4964 7.52596 24.617C7.64652 24.7375 7.71425 24.901 7.71425 25.0715V26.3572ZM7.71425 22.5001C7.71425 22.6706 7.64652 22.8341 7.52596 22.9547C7.40541 23.0752 7.24189 23.143 7.0714 23.143C6.9009 23.143 6.73739 23.0752 6.61683 22.9547C6.49627 22.8341 6.42854 22.6706 6.42854 22.5001V21.2144C6.42854 21.0439 6.49627 20.8804 6.61683 20.7598C6.73739 20.6392 6.9009 20.5715 7.0714 20.5715C7.24189 20.5715 7.40541 20.6392 7.52596 20.7598C7.64652 20.8804 7.71425 21.0439 7.71425 21.2144V22.5001ZM27.6428 34.0715H36V35.3572H27.6428V34.0715ZM20.5714 34.0715H9.64283V36.0001H26.3578L26.3571 34.0715H20.5714ZM35.3571 18.643H26.3571V32.7858H35.3571V18.643ZM29.5714 30.2144C29.5714 30.3849 29.5037 30.5484 29.3831 30.6689C29.2626 30.7895 29.099 30.8572 28.9285 30.8572C28.7581 30.8572 28.5945 30.7895 28.474 30.6689C28.3534 30.5484 28.2857 30.3849 28.2857 30.2144V28.9287C28.2857 28.7582 28.3534 28.5947 28.474 28.4741C28.5945 28.3535 28.7581 28.2858 28.9285 28.2858C29.099 28.2858 29.2626 28.3535 29.3831 28.4741C29.5037 28.5947 29.5714 28.7582 29.5714 28.9287V30.2144ZM29.5714 26.3572C29.5714 26.5277 29.5037 26.6912 29.3831 26.8118C29.2626 26.9324 29.099 27.0001 28.9285 27.0001C28.7581 27.0001 28.5945 26.9324 28.474 26.8118C28.3534 26.6912 28.2857 26.5277 28.2857 26.3572V25.0715C28.2857 24.901 28.3534 24.7375 28.474 24.617C28.5945 24.4964 28.7581 24.4287 28.9285 24.4287C29.099 24.4287 29.2626 24.4964 29.3831 24.617C29.5037 24.7375 29.5714 24.901 29.5714 25.0715V26.3572ZM29.5714 22.5001C29.5714 22.6706 29.5037 22.8341 29.3831 22.9547C29.2626 23.0752 29.099 23.143 28.9285 23.143C28.7581 23.143 28.5945 23.0752 28.474 22.9547C28.3534 22.8341 28.2857 22.6706 28.2857 22.5001V21.2144C28.2857 21.0439 28.3534 20.8804 28.474 20.7598C28.5945 20.6392 28.7581 20.5715 28.9285 20.5715C29.099 20.5715 29.2626 20.6392 29.3831 20.7598C29.5037 20.8804 29.5714 21.0439 29.5714 21.2144V22.5001ZM33.4285 30.2144C33.4285 30.3849 33.3608 30.5484 33.2403 30.6689C33.1197 30.7895 32.9562 30.8572 32.7857 30.8572C32.6152 30.8572 32.4517 30.7895 32.3311 30.6689C32.2106 30.5484 32.1428 30.3849 32.1428 30.2144V28.9287C32.1428 28.7582 32.2106 28.5947 32.3311 28.4741C32.4517 28.3535 32.6152 28.2858 32.7857 28.2858C32.9562 28.2858 33.1197 28.3535 33.2403 28.4741C33.3608 28.5947 33.4285 28.7582 33.4285 28.9287V30.2144ZM33.4285 26.3572C33.4285 26.5277 33.3608 26.6912 33.2403 26.8118C33.1197 26.9324 32.9562 27.0001 32.7857 27.0001C32.6152 27.0001 32.4517 26.9324 32.3311 26.8118C32.2106 26.6912 32.1428 26.5277 32.1428 26.3572V25.0715C32.1428 24.901 32.2106 24.7375 32.3311 24.617C32.4517 24.4964 32.6152 24.4287 32.7857 24.4287C32.9562 24.4287 33.1197 24.4964 33.2403 24.617C33.3608 24.7375 33.4285 24.901 33.4285 25.0715V26.3572ZM33.4285 22.5001C33.4285 22.6706 33.3608 22.8341 33.2403 22.9547C33.1197 23.0752 32.9562 23.143 32.7857 23.143C32.6152 23.143 32.4517 23.0752 32.3311 22.9547C32.2106 22.8341 32.1428 22.6706 32.1428 22.5001V21.2144C32.1428 21.0439 32.2106 20.8804 32.3311 20.7598C32.4517 20.6392 32.6152 20.5715 32.7857 20.5715C32.9562 20.5715 33.1197 20.6392 33.2403 20.7598C33.3608 20.8804 33.4285 21.0439 33.4285 21.2144V22.5001ZM26.4073 3.56152H25.1215V5.96388C25.1212 6.2889 25.2012 6.60896 25.3546 6.89554C25.5079 7.18212 25.7297 7.42632 26.0003 7.60638C26.1422 7.70101 26.3158 7.7354 26.483 7.70201C26.6502 7.66861 26.7973 7.57016 26.892 7.42831C26.9866 7.28646 27.021 7.11282 26.9876 6.94561C26.9542 6.77839 26.8558 6.63129 26.7139 6.53667C26.6195 6.47393 26.542 6.38879 26.4885 6.28884C26.435 6.18889 26.4071 6.07725 26.4073 5.96388V5.95938V3.56152Z" fill="white"/>
</svg>
