<svg width="37" height="36" viewBox="0 0 37 36" fill="none" xmlns="http://www.w3.org/2000/svg">
<path fill-rule="evenodd" clip-rule="evenodd" d="M20.9169 21.3517C21.2586 21.0323 21.576 20.6878 21.8663 20.321C22.7561 21.6666 23.9578 22.7974 25.3763 23.6007L23.7444 24.2992C23.1611 24.5465 22.7285 24.9134 22.3809 25.4426L21.1177 27.374C20.3606 28.5329 18.9854 29.0312 17.6604 28.6333L15.447 27.9651C14.8444 27.7796 14.2766 27.7796 13.674 27.9651L11.4606 28.6333C10.1356 29.0312 8.76041 28.5329 8.00335 27.374L6.74019 25.4426C6.39252 24.9134 5.95988 24.5465 5.37658 24.2992L3.25589 23.3914C1.98499 22.8468 1.25103 21.5759 1.41328 20.2046L1.68758 17.91C1.76479 17.2805 1.66441 16.7242 1.38243 16.1602L0.339392 14.0975C-0.286352 12.8652 -0.0313882 11.4205 0.976801 10.4741L2.66101 8.8942C3.12458 8.46156 3.40656 7.97097 3.54946 7.35674L4.07866 5.10474C4.39157 3.76047 5.51565 2.8179 6.89469 2.74069L9.2008 2.61321C9.8343 2.57844 10.3674 2.38526 10.8696 2.00673L12.7199 0.620006C13.8284 -0.206669 15.2925 -0.206669 16.4011 0.620006L18.2515 2.00673C18.7575 2.38526 19.2867 2.57844 19.9202 2.61321L22.2263 2.74069C23.6053 2.8179 24.7294 3.76047 25.0423 5.10474L25.1429 5.5324L20.9182 7.34331C20.8219 7.38454 20.7312 7.43796 20.6485 7.50226C19.0162 6.0906 16.8882 5.23668 14.5605 5.23668C9.4177 5.23668 5.24955 9.40482 5.24955 14.5476C5.24955 17.2329 6.38592 19.6524 8.20413 21.3517C8.83102 18.416 11.4394 16.2139 14.5605 16.2139C17.6816 16.2139 20.29 18.416 20.9169 21.3517ZM24.0818 25.4966L27.3716 32.5657C27.418 32.6622 27.4064 32.7665 27.3407 32.8477C27.2789 32.9327 27.1824 32.9713 27.078 32.952L22.9371 32.2296L20.8202 35.8646C20.77 35.9534 20.6773 36.0036 20.573 35.9998C20.4687 35.9959 20.3837 35.9379 20.3374 35.8414L17.5607 29.8777C19.335 30.3008 21.1342 29.5939 22.1457 28.0457L23.4076 26.1163C23.5867 25.8438 23.8026 25.642 24.0818 25.4966ZM11.5603 29.8777L8.78359 35.8414C8.74115 35.9379 8.65227 35.9959 8.54797 35.9998C8.44366 36.0036 8.35095 35.9534 8.30075 35.8646L6.18775 32.2296L2.04294 32.952C1.93863 32.9713 1.84208 32.9327 1.7803 32.8477C1.7146 32.7665 1.70301 32.6622 1.74937 32.5657L5.03918 25.4966C5.3184 25.642 5.5343 25.8438 5.71343 26.1163L6.97559 28.0462C7.98677 29.5939 9.78594 30.3008 11.5603 29.8777ZM14.5605 15.4464C12.7514 15.4464 11.2723 13.9673 11.2723 12.1582C11.2723 10.3492 12.7514 8.87003 14.5605 8.87003C16.3696 8.87003 17.8487 10.3492 17.8487 12.1582C17.8487 13.9673 16.3696 15.4464 14.5605 15.4464ZM29.121 5.1633L36.84 8.472V14.7138C36.84 19.0572 33.6789 22.8105 29.4023 23.556L29.121 23.6052L28.8397 23.556C24.5631 22.8105 21.4019 19.0572 21.4019 14.7138V8.472L29.121 5.1633ZM29.3627 6.83154C29.2863 6.79884 29.204 6.78198 29.1209 6.78198C29.0378 6.78198 28.9556 6.79884 28.8792 6.83154L23.2119 9.259C23.1014 9.30633 23.0073 9.38503 22.9411 9.48536C22.875 9.58569 22.8397 9.70323 22.8397 9.82341V14.7138C22.8397 18.3308 25.4606 21.4683 29.0092 22.1258C29.0831 22.1394 29.1588 22.1394 29.2328 22.1258C32.7834 21.4683 35.4043 18.3308 35.4043 14.7138V9.82341C35.4043 9.70322 35.369 9.58567 35.3028 9.48534C35.2366 9.38501 35.1425 9.30631 35.032 9.259L29.3627 6.83154ZM29.1211 8.06392L34.1763 10.2284V14.7138C34.1763 17.7036 32.0366 20.3017 29.1211 20.8965C26.2073 20.3017 24.0677 17.7036 24.0677 14.7138V10.2284L29.1211 8.06392ZM25.7784 14.8931L27.718 16.8327C27.775 16.8897 27.8427 16.935 27.9172 16.9658C27.9917 16.9967 28.0715 17.0126 28.1522 17.0126C28.2328 17.0126 28.3126 16.9967 28.3871 16.9658C28.4616 16.935 28.5293 16.8897 28.5863 16.8327L32.4654 12.9536C32.5805 12.8384 32.6452 12.6822 32.6452 12.5194C32.6452 12.3566 32.5805 12.2004 32.4654 12.0852C32.3503 11.9702 32.1941 11.9055 32.0313 11.9055C31.8685 11.9055 31.7123 11.9702 31.5972 12.0852L28.1522 15.5302L26.6468 14.0249C26.5316 13.9098 26.3754 13.8451 26.2126 13.8451C26.0498 13.8451 25.8936 13.9098 25.7784 14.0249C25.6634 14.14 25.5987 14.2962 25.5987 14.459C25.5987 14.6218 25.6634 14.778 25.7784 14.8931Z" fill="white"/>
</svg>
